<?xml version="1.0" encoding="UTF-8" standalone="no"?>
<svg
   fill="none"
   height="193"
   viewBox="0 0 323 193"
   width="323"
   version="1.1"
   id="svg66"
   sodipodi:docname="gpas-logo.svg"
   inkscape:version="1.3.2 (091e20ef0f, 2023-11-25)"
   xmlns:inkscape="http://www.inkscape.org/namespaces/inkscape"
   xmlns:sodipodi="http://sodipodi.sourceforge.net/DTD/sodipodi-0.dtd"
   xmlns="http://www.w3.org/2000/svg"
   xmlns:svg="http://www.w3.org/2000/svg">
  <defs
     id="defs66" />
  <sodipodi:namedview
     id="namedview66"
     pagecolor="#ffffff"
     bordercolor="#000000"
     borderopacity="0.25"
     inkscape:showpageshadow="2"
     inkscape:pageopacity="0.0"
     inkscape:pagecheckerboard="0"
     inkscape:deskcolor="#d1d1d1"
     inkscape:zoom="2.5686275"
     inkscape:cx="122.82824"
     inkscape:cy="96.549616"
     inkscape:window-width="1344"
     inkscape:window-height="723"
     inkscape:window-x="0"
     inkscape:window-y="0"
     inkscape:window-maximized="0"
     inkscape:current-layer="svg66"
     labelstyle="default"
     showguides="false" />
  <rect
     style="fill:#0693e3;fill-opacity:1;stroke:none;stroke-width:0.568501;stroke-dasharray:none"
     id="rect1"
     width="323"
     height="193"
     x="0"
     y="0" />
  <path
     d="M 87.0681,72.0858 V 48.39795 H 86.4736 V 72.0858 h 0.2882 z"
     fill="#ffffff"
     id="path1" />
  <path
     d="m 77.7732,57.8193 -0.5764,0.1441 3.999,14.8612 c 0.1801,-0.054 0.3783,-0.108 0.5764,-0.1441 z"
     fill="#ffffff"
     id="path2" />
  <path
     d="m 62.4975,49.89307 -0.5043,0.28823 14.3027,24.7686 c 0.1622,-0.108 0.3423,-0.1981 0.5044,-0.2882 z"
     fill="#ffffff"
     id="path3" />
  <path
     d="m 46.1593,68.6992 -0.2882,0.5044 23.0754,13.33 c 0.09,-0.1801 0.1981,-0.3422 0.2882,-0.5043 z"
     fill="#ffffff"
     id="path4" />
  <path
     d="m 72.5495,77.85 -13.186,-13.1859 -0.4143,0.4143 13.1859,13.1859 c 0.1261,-0.1441 0.2703,-0.2702 0.4144,-0.4143 z"
     fill="#ffffff"
     id="path5" />
  <path
     d="m 46.6817,81.4717 -0.1441,0.5764 20.4454,5.4761 c 0.054,-0.1981 0.0901,-0.3782 0.1441,-0.5764 z"
     fill="#ffffff"
     id="path6" />
  <path
     d="M 66.3525,92.208 H 41.20557 v 0.5945 H 66.3525 c 0,-0.0901 0,-0.1982 0,-0.2883 0,-0.09 0,-0.1981 0,-0.3062 z"
     fill="#ffffff"
     id="path7" />
  <path
     d="m 51.6172,101.611 0.1441,0.5764 15.3476,-4.1071 c -0.0541,-0.1801 -0.1081,-0.3782 -0.1442,-0.5764 z"
     fill="#ffffff"
     id="path8" />
  <path
     d="m 45.853,115.8056 0.2882,0.5044 23.0934,-13.33 c -0.1081,-0.1622 -0.1981,-0.3423 -0.2882,-0.5044 z"
     fill="#ffffff"
     id="path9" />
  <path
     d="m 72.1169,106.7451 -14.4289,14.4289 0.4143,0.4143 14.4289,-14.4289 c -0.1261,-0.1441 -0.2702,-0.2882 -0.4143,-0.4143 z"
     fill="#ffffff"
     id="path10" />
  <path
     d="m 62.0474,134.7556 0.5043,0.2882 14.2668,-24.7146 c -0.1801,-0.09 -0.3423,-0.1981 -0.5044,-0.2882 z"
     fill="#ffffff"
     id="path11" />
  <path
     d="m 76.3862,130.126 0.5765,0.1441 4.8096,-17.9776 c -0.1982,-0.054 -0.3783,-0.09 -0.5765,-0.1441 z"
     fill="#ffffff"
     id="path12" />
  <path
     d="m 86.4736,112.9229 v 25.6693 h 0.5945 v -25.6693 c -0.0901,0 -0.1982,0 -0.2882,0 -0.0901,0 -0.1982,0 -0.3063,0 z"
     fill="#ffffff"
     id="path13" />
  <path
     d="m 98.2904,136.6104 0.5765,-0.1441 -6.5209,-24.3003 c -0.1802,0.0541 -0.3783,0.1081 -0.5765,0.1441 z"
     fill="#ffffff"
     id="path14" />
  <path
     d="m 104.9194,61.6383 -0.5044,-0.2882 -7.6738,13.312 c 0.1801,0.0901 0.3423,0.1982 0.5044,0.2882 z"
     fill="#ffffff"
     id="path15" />
  <path
     d="M 99.8216,44.97565 99.2452,44.83154 91.7695,72.7165 c 0.1982,0.0541 0.3783,0.0901 0.5765,0.1441 z"
     fill="#ffffff"
     id="path16" />
  <path
     d="m 52.6422,105.3644 c 1.9842,-0.2476 3.3921,-2.0568 3.1446,-4.0411 -0.2476,-1.9843 -2.0568,-3.3922 -4.0411,-3.1446 -1.9843,0.2476 -3.3922,2.0568 -3.1446,4.0411 0.2475,1.9843 2.0568,3.3922 4.0411,3.1446 z"
     fill="#112b5f"
     id="path17" />
  <path
     d="m 47.0762,85.4758 c 2.0633,-0.2574 3.5272,-2.1387 3.2698,-4.2019 -0.2574,-2.0633 -2.1387,-3.5272 -4.202,-3.2698 -2.0632,0.2574 -3.52712,2.1387 -3.26971,4.202 0.25741,2.0632 2.13871,3.5271 4.20191,3.2697 z"
     fill="#112b5f"
     id="path18" />
  <path
     d="m 37.96298,96.4592 c 2.1887,0 3.96299,-1.7743 3.96299,-3.963 0,-2.1887 -1.77429,-3.963 -3.96299,-3.963 -2.18869,0 -3.96298,1.7743 -3.96298,3.963 0,2.1887 1.77429,3.963 3.96298,3.963 z"
     fill="#112b5f"
     id="path19" />
  <path
     d="m 176.451,70.5732 h -1.171 v 43.9712 h 1.171 z"
     fill="#ffffff"
     id="path20" />
  <path
     d="m 86.7797,145.275 c 1.94,0 3.5127,-1.572 3.5127,-3.512 0,-1.9403 -1.5727,-3.513 -3.5127,-3.513 -1.9399,0 -3.5126,1.5727 -3.5126,3.513 0,1.94 1.5727,3.512 3.5126,3.512 z"
     fill="#a72e94"
     id="path21" />
  <path
     d="m 98.4938,138.4911 c 2.1044,-0.2486 3.6089,-2.1561 3.3603,-4.2605 -0.2486,-2.1044 -2.156,-3.6089 -4.2605,-3.3604 -2.1044,0.2486 -3.6089,2.1561 -3.3603,4.2605 0.2485,2.1045 2.156,3.6089 4.2605,3.3604 z"
     fill="#a72e94"
     id="path22" />
  <path
     d="m 77.0824,132.6986 c 1.5512,-0.1832 2.6601,-1.5892 2.4769,-3.1404 -0.1832,-1.5511 -1.5892,-2.6601 -3.1403,-2.4769 -1.5512,0.1833 -2.6601,1.5892 -2.4769,3.1404 0.1832,1.5512 1.5892,2.6601 3.1403,2.4769 z"
     fill="#76378a"
     id="path23" />
  <path
     d="m 62.3532,138.7357 c 2.1688,0 3.927,-1.7581 3.927,-3.9269 0,-2.1688 -1.7582,-3.927 -3.927,-3.927 -2.1688,0 -3.9269,1.7582 -3.9269,3.927 0,2.1688 1.7581,3.9269 3.9269,3.9269 z"
     fill="#76378a"
     id="path24" />
  <path
     d="m 61.1169,121.7757 c 0.4059,-1.6008 -0.5627,-3.2276 -2.1635,-3.6335 -1.6008,-0.4059 -3.2275,0.5627 -3.6334,2.1634 -0.406,1.6008 0.5626,3.2276 2.1634,3.6335 1.6008,0.4059 3.2275,-0.5627 3.6335,-2.1634 z"
     fill="#35348a"
     id="path25" />
  <path
     d="m 62.2813,53.8923 c 2.0992,0 3.8009,-1.7018 3.8009,-3.8009 0,-2.09917 -1.7017,-3.80087 -3.8009,-3.80087 -2.0991,0 -3.8008,1.7017 -3.8008,3.80087 0,2.0991 1.7017,3.8009 3.8008,3.8009 z"
     fill="#255291"
     id="path26" />
  <path
     d="m 86.7618,52.3971 c 2.1986,0 3.981,-1.7824 3.981,-3.98104 0,-2.19865 -1.7824,-3.981 -3.981,-3.981 -2.1987,0 -3.981,1.78235 -3.981,3.981 0,2.19864 1.7823,3.98104 3.981,3.98104 z"
     fill="#3f82b5"
     id="path27" />
  <path
     d="m 77.819,60.4478 c 1.4019,-0.1749 2.3965,-1.4531 2.2216,-2.8549 -0.1749,-1.4019 -1.4531,-2.3965 -2.8549,-2.2216 -1.4018,0.1749 -2.3965,1.4531 -2.2216,2.8549 0.1749,1.4018 1.4531,2.3965 2.8549,2.2216 z"
     fill="#3f82b5"
     id="path28" />
  <path
     d="m 46.0332,72.7885 c 2.119,0 3.8369,-1.7178 3.8369,-3.8369 0,-2.119 -1.7179,-3.8369 -3.8369,-3.8369 -2.11907,0 -3.83691,1.7179 -3.83691,3.8369 0,2.1191 1.71784,3.8369 3.83691,3.8369 z"
     fill="#255291"
     id="path29" />
  <path
     d="m 59.55,68.026 c 1.7868,-0.2229 3.0546,-1.8521 2.8317,-3.639 -0.223,-1.7868 -1.8522,-3.0546 -3.639,-2.8317 -1.7869,0.223 -3.0547,1.8522 -2.8317,3.639 0.2229,1.7869 1.8521,3.0547 3.639,2.8317 z"
     fill="#255291"
     id="path30" />
  <path
     d="m 99.9898,48.45932 c 1.9448,-0.24263 3.3247,-2.01588 3.0821,-3.96067 -0.2427,-1.94479 -2.0159,-3.32465 -3.9607,-3.08202 -1.9448,0.24263 -3.3247,2.01588 -3.082,3.96067 0.2426,1.94479 2.0159,3.32466 3.9606,3.08202 z"
     fill="#2597c4"
     id="path31" />
  <path
     d="m 104.6855,65.205 c 2.0295,0 3.6748,-1.6452 3.6748,-3.6748 0,-2.0295 -1.6453,-3.6747 -3.6748,-3.6747 -2.0295,0 -3.6748,1.6452 -3.6748,3.6747 0,2.0296 1.6453,3.6748 3.6748,3.6748 z"
     fill="#2597c4"
     id="path32" />
  <path
     d="m 46.0152,119.21 c 1.741,0 3.1523,-1.4113 3.1523,-3.1524 0,-1.741 -1.4113,-3.1523 -3.1523,-3.1523 -1.741,0 -3.15241,1.4113 -3.15241,3.1523 0,1.7411 1.41141,3.1524 3.15241,3.1524 z"
     fill="#35348a"
     id="path33" />
  <g
     fill="#ffffff"
     id="g66"
     transform="translate(34,40)">
    <path
       d="m 57.7697,47.8648 c -0.4503,-0.8466 -1.1168,-1.4951 -1.9815,-1.9455 -0.8646,-0.4503 -1.8734,-0.6665 -3.0262,-0.6665 -1.9995,0 -3.6027,0.6665 -4.8097,1.9815 -1.2069,1.315 -1.8013,3.0803 -1.8013,5.26 0,2.3417 0.6305,4.1611 1.9094,5.4761 1.261,1.315 3.0083,1.9815 5.224,1.9815 1.5131,0 2.8101,-0.3783 3.8549,-1.1529 1.0447,-0.7746 1.8193,-1.8914 2.3057,-3.3325 h -7.8539 v -4.5574 h 13.4741 v 5.7643 c -0.4503,1.5492 -1.2429,2.9723 -2.3417,4.3053 -1.0989,1.333 -2.4859,2.3958 -4.1792,3.2244 -1.6932,0.8286 -3.6027,1.2249 -5.7283,1.2249 -2.5039,0 -4.7556,-0.5404 -6.7191,-1.6392 -1.9634,-1.0988 -3.4946,-2.63 -4.5934,-4.5755 -1.0988,-1.9634 -1.6392,-4.1791 -1.6392,-6.701 0,-2.5039 0.5404,-4.7556 1.6392,-6.7191 1.0988,-1.9634 2.63,-3.4946 4.5754,-4.5934 1.9635,-1.0988 4.1792,-1.6393 6.7011,-1.6393 3.0443,0 5.6022,0.7386 7.6918,2.2157 2.0895,1.4771 3.4766,3.5127 4.1431,6.1246 h -6.8452 z"
       id="path34" />
    <path
       d="m 87.078,52.0452 c -0.6845,1.2249 -1.7113,2.1977 -3.1164,2.9543 -1.405,0.7565 -3.1343,1.1168 -5.2059,1.1168 h -3.8369 v 9.1149 H 68.7222 V 39.832 h 10.0335 c 2.0355,0 3.7468,0.3423 5.1339,1.0448 1.405,0.7025 2.4498,1.6573 3.1524,2.9002 0.7025,1.2249 1.0448,2.648 1.0448,4.2332 0,1.4771 -0.3423,2.8281 -1.0088,4.035 z M 80.9173,50.37 c 0.5765,-0.5585 0.8647,-1.333 0.8647,-2.3598 0,-1.0268 -0.2882,-1.8014 -0.8647,-2.3598 -0.5764,-0.5584 -1.459,-0.8286 -2.6479,-0.8286 h -3.3686 v 6.3768 h 3.3686 c 1.1889,0 2.0715,-0.2702 2.6479,-0.8286 z"
       id="path35" />
    <path
       d="M 103.758,60.7638 H 94.2651 L 92.752,65.2492 H 86.2671 L 95.454,39.832 h 7.169 l 9.187,25.4172 h -6.557 z m -1.603,-4.7916 -3.1523,-9.295 -3.1164,9.313 h 6.2687 z"
       id="path36" />
    <path
       d="m 118.331,64.6002 c -1.477,-0.5945 -2.648,-1.4952 -3.53,-2.6841 -0.883,-1.1889 -1.351,-2.6119 -1.387,-4.2692 h 6.593 c 0.09,0.9367 0.414,1.6573 0.972,2.1617 0.559,0.4863 1.279,0.7385 2.18,0.7385 0.919,0 1.639,-0.2162 2.18,-0.6305 0.522,-0.4143 0.792,-1.0087 0.792,-1.7473 0,-0.6305 -0.216,-1.1528 -0.63,-1.5491 -0.415,-0.4144 -0.937,-0.7566 -1.549,-1.0088 -0.613,-0.2702 -1.496,-0.5584 -2.63,-0.9007 -1.64,-0.5044 -2.973,-1.0087 -4.017,-1.5131 -1.045,-0.5044 -1.928,-1.261 -2.684,-2.2517 -0.757,-0.9908 -1.117,-2.2877 -1.117,-3.8729 0,-2.3598 0.864,-4.2152 2.576,-5.5662 1.711,-1.333 3.945,-2.0175 6.701,-2.0175 2.792,0 5.061,0.6665 6.773,2.0175 1.711,1.333 2.63,3.2064 2.756,5.6022 h -6.701 c -0.054,-0.8286 -0.342,-1.4591 -0.901,-1.9455 -0.558,-0.4683 -1.261,-0.7025 -2.143,-0.7025 -0.757,0 -1.351,0.1981 -1.802,0.5944 -0.45,0.3963 -0.684,0.9728 -0.684,1.7113 0,0.8287 0.378,1.4591 1.153,1.9275 0.774,0.4503 1.981,0.9547 3.62,1.4771 1.639,0.5584 2.972,1.0808 3.999,1.5852 1.027,0.5044 1.91,1.2429 2.666,2.2157 0.757,0.9727 1.117,2.2156 1.117,3.7288 0,1.4411 -0.36,2.756 -1.099,3.9449 -0.738,1.1889 -1.801,2.1256 -3.206,2.8282 -1.405,0.7025 -3.062,1.0448 -4.954,1.0448 -1.909,-0.0181 -3.567,-0.3243 -5.044,-0.9187 z"
       id="path37" />
    <path
       d="m 232.501,56.5316 c -0.162,-0.1621 -0.234,-0.3603 -0.234,-0.5765 0,-0.2341 0.072,-0.4323 0.234,-0.5764 0.162,-0.1441 0.36,-0.2342 0.576,-0.2342 0.216,0 0.415,0.0721 0.559,0.2342 0.162,0.1621 0.234,0.3603 0.234,0.5764 0,0.2342 -0.072,0.4324 -0.234,0.5765 -0.162,0.1621 -0.343,0.2342 -0.559,0.2342 -0.234,0 -0.414,-0.0721 -0.576,-0.2342 z m 1.171,1.423 v 7.2955 h -1.207 v -7.2955 z"
       id="path38" />
    <path
       d="m 158.628,42.5162 c -0.253,-0.5404 -0.631,-0.9547 -1.117,-1.261 -0.487,-0.2882 -1.063,-0.4503 -1.712,-0.4503 -0.648,0 -1.225,0.1441 -1.747,0.4503 -0.522,0.3063 -0.919,0.7206 -1.225,1.279 -0.306,0.5584 -0.45,1.1889 -0.45,1.9274 0,0.7206 0.144,1.3691 0.45,1.9095 0.288,0.5584 0.703,0.9727 1.225,1.2789 0.522,0.3063 1.099,0.4504 1.747,0.4504 0.901,0 1.658,-0.2702 2.234,-0.8106 0.577,-0.5404 0.919,-1.279 1.027,-2.1977 h -3.693 v -0.9907 h 4.99 v 0.9367 c -0.072,0.7565 -0.306,1.4591 -0.721,2.0895 -0.414,0.6305 -0.936,1.1349 -1.603,1.4952 -0.666,0.3602 -1.405,0.5584 -2.216,0.5584 -0.864,0 -1.639,-0.1982 -2.359,-0.6125 -0.703,-0.3963 -1.279,-0.9727 -1.676,-1.6752 -0.396,-0.7026 -0.612,-1.5312 -0.612,-2.4319 0,-0.9006 0.198,-1.7112 0.612,-2.4498 0.415,-0.7205 0.973,-1.279 1.676,-1.6933 0.702,-0.3963 1.495,-0.6124 2.359,-0.6124 0.991,0 1.856,0.2521 2.612,0.7385 0.757,0.4864 1.315,1.1709 1.658,2.0536 h -1.459 z"
       id="path39" />
    <path
       d="m 162.879,39.2559 v 9.8534 h -1.207 v -9.8534 z"
       id="path40" />
    <path
       d="m 165.923,48.7664 c -0.558,-0.3062 -0.991,-0.7566 -1.297,-1.333 -0.306,-0.5764 -0.468,-1.2429 -0.468,-1.9815 0,-0.7386 0.162,-1.4051 0.486,-1.9815 0.324,-0.5764 0.757,-1.0088 1.315,-1.315 0.558,-0.3062 1.189,-0.4503 1.873,-0.4503 0.685,0 1.315,0.1441 1.874,0.4503 0.558,0.3062 1.009,0.7386 1.315,1.315 0.324,0.5764 0.486,1.2249 0.486,1.9815 0,0.7566 -0.162,1.4231 -0.504,1.9815 -0.342,0.5584 -0.775,1.0088 -1.351,1.333 -0.577,0.3062 -1.189,0.4684 -1.892,0.4684 -0.666,0 -1.279,-0.1622 -1.837,-0.4684 z m 3.08,-0.9187 c 0.379,-0.1981 0.685,-0.5044 0.919,-0.9187 0.234,-0.4143 0.36,-0.9007 0.36,-1.4951 0,-0.5945 -0.108,-1.0808 -0.342,-1.4951 -0.234,-0.4144 -0.54,-0.7206 -0.901,-0.9187 -0.36,-0.1982 -0.774,-0.3063 -1.207,-0.3063 -0.45,0 -0.846,0.1081 -1.224,0.3063 -0.361,0.1981 -0.667,0.5043 -0.883,0.9187 -0.216,0.4143 -0.324,0.9006 -0.324,1.4951 0,0.5944 0.108,1.0988 0.324,1.4951 0.216,0.4143 0.504,0.7206 0.865,0.9187 0.36,0.1982 0.756,0.3062 1.188,0.3062 0.433,0 0.847,-0.09 1.225,-0.3062 z"
       id="path41" />
    <path
       d="m 175.074,42.1025 c 0.486,-0.2702 1.027,-0.4143 1.639,-0.4143 0.649,0 1.243,0.1622 1.765,0.4684 0.523,0.3062 0.937,0.7385 1.243,1.315 0.307,0.5584 0.451,1.2249 0.451,1.9635 0,0.7385 -0.144,1.387 -0.451,1.9634 -0.306,0.5765 -0.72,1.0268 -1.243,1.3511 -0.522,0.3242 -1.116,0.4863 -1.765,0.4863 -0.63,0 -1.189,-0.1441 -1.657,-0.4143 -0.469,-0.2702 -0.829,-0.6305 -1.063,-1.0448 v 1.351 h -1.207 v -9.8534 h 1.207 v 3.8909 c 0.234,-0.4323 0.595,-0.7745 1.081,-1.0628 z m 3.513,1.8915 c -0.217,-0.4143 -0.523,-0.7206 -0.901,-0.9367 -0.378,-0.2162 -0.793,-0.3243 -1.243,-0.3243 -0.45,0 -0.847,0.1081 -1.225,0.3243 -0.378,0.2161 -0.685,0.5404 -0.901,0.9367 -0.234,0.4143 -0.342,0.8826 -0.342,1.423 0,0.5585 0.108,1.0268 0.342,1.4411 0.234,0.4143 0.523,0.7206 0.901,0.9367 0.378,0.2162 0.793,0.3243 1.225,0.3243 0.45,0 0.865,-0.1081 1.243,-0.3243 0.378,-0.2161 0.684,-0.5404 0.901,-0.9367 0.216,-0.4143 0.324,-0.9007 0.324,-1.4591 0.018,-0.5044 -0.09,-0.9907 -0.324,-1.405 z"
       id="path42" />
    <path
       d="m 181.487,43.4718 c 0.306,-0.5584 0.72,-1.0087 1.243,-1.315 0.522,-0.3062 1.117,-0.4683 1.765,-0.4683 0.631,0 1.189,0.1441 1.657,0.4143 0.469,0.2702 0.829,0.6125 1.045,1.0448 v -1.333 h 1.225 v 7.2955 h -1.225 V 47.759 c -0.234,0.4324 -0.594,0.7746 -1.063,1.0628 -0.468,0.2883 -1.026,0.4144 -1.657,0.4144 -0.648,0 -1.225,-0.1622 -1.765,-0.4864 -0.523,-0.3242 -0.937,-0.7746 -1.243,-1.351 -0.306,-0.5765 -0.45,-1.2249 -0.45,-1.9635 0.018,-0.7386 0.162,-1.4051 0.468,-1.9635 z m 5.386,0.5404 c -0.216,-0.4143 -0.522,-0.7205 -0.901,-0.9367 -0.378,-0.2161 -0.792,-0.3242 -1.243,-0.3242 -0.45,0 -0.864,0.1081 -1.243,0.3242 -0.378,0.2162 -0.666,0.5224 -0.882,0.9367 -0.216,0.4143 -0.324,0.8827 -0.324,1.4411 0,0.5584 0.108,1.0448 0.324,1.4591 0.216,0.4143 0.522,0.7206 0.882,0.9367 0.379,0.2162 0.793,0.3243 1.243,0.3243 0.451,0 0.865,-0.1081 1.243,-0.3243 0.379,-0.2161 0.685,-0.5404 0.901,-0.9367 0.216,-0.4143 0.324,-0.9007 0.324,-1.4411 0,-0.5764 -0.108,-1.0448 -0.324,-1.4591 z"
       id="path43" />
    <path
       d="m 191.304,39.2559 v 9.8534 h -1.207 v -9.8534 z"
       id="path44" />
    <path
       d="m 200.725,44.4615 c -0.522,0.5044 -1.333,0.7566 -2.413,0.7566 h -1.784 v 3.8909 h -1.207 v -9.277 h 2.991 c 1.044,0 1.837,0.2522 2.395,0.7566 0.541,0.5044 0.811,1.1529 0.811,1.9635 0,0.7746 -0.252,1.405 -0.793,1.9094 z m -0.918,-0.6665 c 0.324,-0.2882 0.486,-0.7025 0.486,-1.2429 0,-1.1529 -0.648,-1.7113 -1.963,-1.7113 h -1.784 v 3.4046 h 1.784 c 0.666,0 1.152,-0.1622 1.477,-0.4504 z"
       id="path45" />
    <path
       d="m 202.527,43.4718 c 0.306,-0.5584 0.72,-1.0087 1.243,-1.315 0.522,-0.3062 1.117,-0.4683 1.765,-0.4683 0.631,0 1.189,0.1441 1.657,0.4143 0.469,0.2702 0.829,0.6125 1.045,1.0448 v -1.333 h 1.225 v 7.2955 h -1.225 V 47.759 c -0.234,0.4324 -0.594,0.7746 -1.063,1.0628 -0.468,0.2883 -1.026,0.4144 -1.657,0.4144 -0.648,0 -1.225,-0.1622 -1.765,-0.4864 -0.523,-0.3242 -0.937,-0.7746 -1.243,-1.351 -0.306,-0.5765 -0.45,-1.2249 -0.45,-1.9635 0,-0.7386 0.162,-1.4051 0.468,-1.9635 z m 5.386,0.5404 c -0.216,-0.4143 -0.522,-0.7205 -0.901,-0.9367 -0.378,-0.2161 -0.792,-0.3242 -1.243,-0.3242 -0.45,0 -0.864,0.1081 -1.243,0.3242 -0.378,0.2162 -0.666,0.5224 -0.882,0.9367 -0.216,0.4143 -0.324,0.8827 -0.324,1.4411 0,0.5584 0.108,1.0448 0.324,1.4591 0.216,0.4143 0.522,0.7206 0.882,0.9367 0.379,0.2162 0.793,0.3243 1.243,0.3243 0.451,0 0.865,-0.1081 1.243,-0.3243 0.379,-0.2161 0.685,-0.5404 0.901,-0.9367 0.216,-0.4143 0.324,-0.9007 0.324,-1.4411 0,-0.5764 -0.108,-1.0448 -0.324,-1.4591 z"
       id="path46" />
    <path
       d="m 212.56,42.8232 v 4.3053 c 0,0.3603 0.072,0.6125 0.234,0.7566 0.144,0.1441 0.415,0.2161 0.793,0.2161 h 0.883 v 1.0268 h -1.099 c -0.667,0 -1.171,-0.1621 -1.513,-0.4684 -0.343,-0.3062 -0.505,-0.8286 -0.505,-1.5311 v -4.3053 h -0.936 v -0.9907 h 0.936 v -1.8374 h 1.207 v 1.8374 h 1.91 v 0.9907 z"
       id="path47" />
    <path
       d="m 220.558,42.03 c 0.451,0.2341 0.793,0.5944 1.045,1.0628 0.252,0.4683 0.378,1.0447 0.378,1.7112 v 4.3053 h -1.189 v -4.1251 c 0,-0.7206 -0.18,-1.279 -0.54,-1.6753 -0.36,-0.3783 -0.865,-0.5764 -1.495,-0.5764 -0.631,0 -1.153,0.1981 -1.531,0.5944 -0.378,0.3963 -0.559,0.9728 -0.559,1.7473 v 4.0351 h -1.207 v -9.8534 h 1.207 v 3.5847 c 0.235,-0.3783 0.577,-0.6665 0.991,-0.8647 0.414,-0.1981 0.901,-0.3062 1.423,-0.3062 0.541,0.018 1.027,0.1261 1.477,0.3603 z"
       id="path48" />
    <path
       d="m 224.954,48.7664 c -0.559,-0.3062 -0.991,-0.7566 -1.297,-1.333 -0.306,-0.5764 -0.469,-1.2429 -0.469,-1.9815 0,-0.7386 0.163,-1.4051 0.487,-1.9815 0.324,-0.5764 0.756,-1.0088 1.315,-1.315 0.558,-0.3062 1.189,-0.4503 1.873,-0.4503 0.685,0 1.315,0.1441 1.874,0.4503 0.558,0.3062 1.008,0.7386 1.315,1.315 0.324,0.5764 0.486,1.2249 0.486,1.9815 0,0.7566 -0.162,1.4231 -0.504,1.9815 -0.343,0.5584 -0.775,1.0088 -1.351,1.333 -0.577,0.3062 -1.189,0.4684 -1.892,0.4684 -0.666,0 -1.297,-0.1622 -1.837,-0.4684 z m 3.08,-0.9187 c 0.378,-0.1981 0.685,-0.5044 0.919,-0.9187 0.234,-0.4143 0.36,-0.9007 0.36,-1.4951 0,-0.5945 -0.108,-1.0808 -0.342,-1.4951 -0.234,-0.4144 -0.541,-0.7206 -0.901,-0.9187 -0.36,-0.1982 -0.774,-0.3063 -1.207,-0.3063 -0.45,0 -0.846,0.1081 -1.225,0.3063 -0.36,0.1981 -0.666,0.5043 -0.882,0.9187 -0.217,0.4143 -0.325,0.9006 -0.325,1.4951 0,0.5944 0.108,1.0988 0.325,1.4951 0.216,0.4143 0.504,0.7206 0.864,0.9187 0.361,0.1982 0.757,0.3062 1.189,0.3062 0.433,0 0.829,-0.09 1.225,-0.3062 z"
       id="path49" />
    <path
       d="m 236.518,42.1013 c 0.468,0.2702 0.829,0.6124 1.063,1.0448 v -1.333 h 1.225 v 7.4576 c 0,0.6665 -0.144,1.2609 -0.433,1.7833 -0.288,0.5224 -0.684,0.9187 -1.224,1.2249 -0.523,0.2882 -1.135,0.4324 -1.838,0.4324 -0.955,0 -1.765,-0.2342 -2.396,-0.6846 -0.63,-0.4503 -1.008,-1.0628 -1.134,-1.8554 h 1.188 c 0.126,0.4504 0.415,0.7926 0.829,1.0628 0.414,0.2702 0.919,0.4144 1.495,0.4144 0.667,0 1.207,-0.2162 1.621,-0.6305 0.415,-0.4143 0.631,-1.0088 0.631,-1.7653 v -1.5312 c -0.234,0.4323 -0.595,0.7746 -1.063,1.0628 -0.468,0.2882 -1.027,0.4323 -1.657,0.4323 -0.649,0 -1.243,-0.1621 -1.766,-0.4863 -0.522,-0.3243 -0.936,-0.7746 -1.242,-1.3511 -0.307,-0.5764 -0.451,-1.2249 -0.451,-1.9634 0,-0.7386 0.144,-1.4051 0.451,-1.9635 0.306,-0.5584 0.72,-1.0088 1.242,-1.315 0.523,-0.3062 1.117,-0.4684 1.766,-0.4684 0.666,0.0181 1.225,0.1622 1.693,0.4324 z m 0.739,1.9094 c -0.217,-0.4143 -0.523,-0.7205 -0.901,-0.9367 -0.378,-0.2162 -0.793,-0.3242 -1.243,-0.3242 -0.45,0 -0.865,0.108 -1.243,0.3242 -0.378,0.2162 -0.666,0.5224 -0.883,0.9367 -0.216,0.4143 -0.324,0.8827 -0.324,1.4411 0,0.5584 0.108,1.0448 0.324,1.4591 0.217,0.4143 0.523,0.7205 0.883,0.9367 0.378,0.2162 0.793,0.3242 1.243,0.3242 0.45,0 0.865,-0.108 1.243,-0.3242 0.378,-0.2162 0.684,-0.5404 0.901,-0.9367 0.216,-0.4143 0.324,-0.9007 0.324,-1.4411 0,-0.5764 -0.108,-1.0448 -0.324,-1.4591 z"
       id="path50" />
    <path
       d="m 247.146,45.9218 h -5.836 c 0.036,0.7205 0.288,1.2789 0.738,1.6752 0.451,0.3963 0.991,0.6125 1.622,0.6125 0.522,0 0.954,-0.1261 1.315,-0.3603 0.342,-0.2522 0.594,-0.5764 0.738,-0.9727 h 1.297 c -0.198,0.7025 -0.576,1.279 -1.171,1.7113 -0.594,0.4323 -1.315,0.6665 -2.179,0.6665 -0.685,0 -1.315,-0.1621 -1.856,-0.4684 -0.54,-0.3062 -0.973,-0.7565 -1.279,-1.333 -0.306,-0.5764 -0.468,-1.2429 -0.468,-1.9815 0,-0.7565 0.144,-1.423 0.45,-1.9815 0.306,-0.5764 0.721,-1.0087 1.279,-1.315 0.541,-0.3062 1.171,-0.4503 1.892,-0.4503 0.684,0 1.297,0.1441 1.837,0.4503 0.54,0.3063 0.937,0.7206 1.225,1.243 0.288,0.5224 0.432,1.1168 0.432,1.7833 0,0.2162 0,0.4504 -0.036,0.7206 z m -1.513,-2.1797 c -0.198,-0.3242 -0.486,-0.5764 -0.829,-0.7565 -0.342,-0.1802 -0.738,-0.2522 -1.17,-0.2522 -0.613,0 -1.135,0.1981 -1.568,0.5764 -0.432,0.3963 -0.684,0.9367 -0.738,1.6212 h 4.611 c 0,-0.4683 -0.108,-0.8646 -0.306,-1.1889 z"
       id="path51" />
    <path
       d="m 254.172,42.4811 c 0.558,0.5404 0.828,1.315 0.828,2.3237 v 4.3053 h -1.188 V 44.985 c 0,-0.7206 -0.181,-1.279 -0.541,-1.6753 -0.36,-0.3783 -0.865,-0.5764 -1.495,-0.5764 -0.631,0 -1.153,0.1981 -1.531,0.5944 -0.378,0.3963 -0.559,0.9727 -0.559,1.7473 v 4.0351 h -1.207 v -7.2955 h 1.207 v 1.0448 c 0.235,-0.3783 0.559,-0.6665 0.973,-0.8647 0.414,-0.1981 0.865,-0.3062 1.369,-0.3062 0.865,0 1.585,0.2702 2.144,0.7926 z"
       id="path52" />
    <path
       d="m 157.204,63.1772 h -4.053 l -0.738,2.0536 h -1.279 l 3.35,-9.223 h 1.405 l 3.333,9.223 h -1.279 z m -0.342,-0.9727 -1.675,-4.6835 -1.675,4.6835 z"
       id="path53" />
    <path
       d="m 165.923,58.6207 c 0.558,0.5404 0.828,1.315 0.828,2.3238 v 4.3052 h -1.189 v -4.1251 c 0,-0.7205 -0.18,-1.279 -0.54,-1.6753 -0.36,-0.3782 -0.865,-0.5764 -1.495,-0.5764 -0.631,0 -1.153,0.1982 -1.531,0.5945 -0.378,0.3963 -0.559,0.9727 -0.559,1.7473 v 4.035 h -1.207 v -7.2955 h 1.207 v 1.0448 c 0.235,-0.3783 0.559,-0.6665 0.973,-0.8647 0.414,-0.1981 0.865,-0.3062 1.369,-0.3062 0.883,0 1.585,0.2702 2.144,0.7926 z"
       id="path54" />
    <path
       d="m 168.391,59.6115 c 0.306,-0.5585 0.72,-1.0088 1.243,-1.315 0.522,-0.3063 1.117,-0.4684 1.765,-0.4684 0.63,0 1.189,0.1441 1.657,0.4143 0.469,0.2702 0.829,0.6125 1.045,1.0448 v -1.333 h 1.225 v 7.2955 h -1.225 v -1.351 c -0.234,0.4323 -0.594,0.7746 -1.063,1.0628 -0.468,0.2882 -1.027,0.4143 -1.657,0.4143 -0.649,0 -1.225,-0.1621 -1.765,-0.4864 -0.523,-0.3242 -0.937,-0.7746 -1.243,-1.351 -0.307,-0.5764 -0.451,-1.2249 -0.451,-1.9635 0.018,-0.7385 0.162,-1.405 0.469,-1.9634 z m 5.386,0.5404 c -0.216,-0.4143 -0.523,-0.7206 -0.901,-0.9367 -0.378,-0.2162 -0.793,-0.3243 -1.243,-0.3243 -0.45,0 -0.864,0.1081 -1.243,0.3243 -0.378,0.2161 -0.666,0.5224 -0.882,0.9367 -0.217,0.4143 -0.325,0.8826 -0.325,1.4411 0,0.5584 0.108,1.0447 0.325,1.4591 0.216,0.4143 0.522,0.7205 0.882,0.9367 0.379,0.2161 0.793,0.3242 1.243,0.3242 0.45,0 0.865,-0.1081 1.243,-0.3242 0.378,-0.2162 0.685,-0.5404 0.901,-0.9367 0.216,-0.4144 0.324,-0.9007 0.324,-1.4411 0.018,-0.5765 -0.09,-1.0448 -0.324,-1.4591 z"
       id="path55" />
    <path
       d="m 178.208,55.3965 v 9.8534 h -1.207 v -9.8534 z"
       id="path56" />
    <path
       d="m 186.224,57.9531 -4.395,10.7181 h -1.243 l 1.441,-3.5126 -2.936,-7.2055 h 1.351 l 2.288,5.9085 2.269,-5.9085 z"
       id="path57" />
    <path
       d="m 188.007,65.0872 c -0.45,-0.1982 -0.792,-0.4504 -1.044,-0.7926 -0.253,-0.3423 -0.397,-0.7386 -0.433,-1.1709 h 1.243 c 0.036,0.3602 0.198,0.6665 0.505,0.8826 0.306,0.2342 0.702,0.3423 1.207,0.3423 0.468,0 0.828,-0.1081 1.098,-0.3062 0.271,-0.1982 0.397,-0.4684 0.397,-0.7746 0,-0.3243 -0.144,-0.5584 -0.433,-0.7206 -0.288,-0.1621 -0.72,-0.3062 -1.315,-0.4503 -0.54,-0.1441 -0.99,-0.2882 -1.333,-0.4323 -0.342,-0.1441 -0.63,-0.3603 -0.882,-0.6485 -0.253,-0.2882 -0.361,-0.6665 -0.361,-1.1349 0,-0.3783 0.108,-0.7205 0.325,-1.0267 0.216,-0.3063 0.54,-0.5585 0.936,-0.7386 0.415,-0.1801 0.865,-0.2702 1.405,-0.2702 0.811,0 1.459,0.1982 1.964,0.6125 0.504,0.4143 0.756,0.9727 0.792,1.6752 h -1.206 c -0.018,-0.3783 -0.181,-0.6845 -0.451,-0.9187 -0.288,-0.2341 -0.648,-0.3422 -1.117,-0.3422 -0.432,0 -0.774,0.09 -1.044,0.2882 -0.253,0.1801 -0.379,0.4323 -0.379,0.7386 0,0.2341 0.072,0.4323 0.234,0.5944 0.163,0.1621 0.343,0.2882 0.577,0.3783 0.234,0.09 0.558,0.1981 0.973,0.3062 0.522,0.1441 0.954,0.2882 1.279,0.4143 0.324,0.1441 0.612,0.3423 0.846,0.6125 0.234,0.2702 0.36,0.6305 0.36,1.0808 0,0.3963 -0.108,0.7566 -0.324,1.0808 -0.216,0.3243 -0.54,0.5765 -0.936,0.7566 -0.397,0.1801 -0.865,0.2702 -1.387,0.2702 -0.541,-0.018 -1.045,-0.1261 -1.496,-0.3062 z"
       id="path58" />
    <path
       d="m 193.555,56.5316 c -0.162,-0.1621 -0.234,-0.3603 -0.234,-0.5765 0,-0.2341 0.072,-0.4323 0.234,-0.5764 0.163,-0.1441 0.361,-0.2342 0.577,-0.2342 0.216,0 0.414,0.0721 0.558,0.2342 0.162,0.1621 0.235,0.3603 0.235,0.5764 0,0.2342 -0.073,0.4324 -0.235,0.5765 -0.162,0.1621 -0.342,0.2342 -0.558,0.2342 -0.234,0 -0.414,-0.0721 -0.577,-0.2342 z m 1.171,1.423 v 7.2955 h -1.207 v -7.2955 z"
       id="path59" />
    <path
       d="m 197.483,65.0872 c -0.45,-0.1982 -0.793,-0.4504 -1.045,-0.7926 -0.252,-0.3423 -0.396,-0.7386 -0.432,-1.1709 h 1.243 c 0.036,0.3602 0.198,0.6665 0.504,0.8826 0.306,0.2342 0.703,0.3423 1.207,0.3423 0.468,0 0.829,-0.1081 1.099,-0.3062 0.27,-0.1982 0.396,-0.4684 0.396,-0.7746 0,-0.3243 -0.144,-0.5584 -0.432,-0.7206 -0.288,-0.1621 -0.721,-0.3062 -1.315,-0.4503 -0.541,-0.1441 -0.991,-0.2882 -1.333,-0.4323 -0.342,-0.1441 -0.631,-0.3603 -0.883,-0.6485 -0.252,-0.2882 -0.36,-0.6665 -0.36,-1.1349 0,-0.3783 0.108,-0.7205 0.324,-1.0267 0.216,-0.3063 0.541,-0.5585 0.937,-0.7386 0.414,-0.1801 0.865,-0.2702 1.405,-0.2702 0.811,0 1.459,0.1982 1.963,0.6125 0.505,0.4143 0.757,0.9727 0.793,1.6752 h -1.207 c -0.018,-0.3783 -0.18,-0.6845 -0.45,-0.9187 -0.288,-0.2341 -0.649,-0.3422 -1.117,-0.3422 -0.432,0 -0.775,0.09 -1.045,0.2882 -0.252,0.1801 -0.378,0.4323 -0.378,0.7386 0,0.2341 0.072,0.4323 0.234,0.5944 0.162,0.1621 0.342,0.2882 0.576,0.3783 0.235,0.09 0.559,0.1981 0.973,0.3062 0.523,0.1441 0.955,0.2882 1.279,0.4143 0.324,0.1441 0.613,0.3423 0.847,0.6125 0.234,0.2702 0.36,0.6305 0.36,1.0808 0,0.3963 -0.108,0.7566 -0.324,1.0808 -0.216,0.3243 -0.541,0.5765 -0.937,0.7566 -0.396,0.1801 -0.865,0.2702 -1.387,0.2702 -0.54,-0.018 -1.045,-0.1261 -1.495,-0.3062 z"
       id="path60" />
    <path
       d="m 206.435,65.0693 c -0.486,-0.2162 -0.864,-0.5224 -1.135,-0.9007 -0.27,-0.3783 -0.414,-0.8286 -0.432,-1.333 h 1.297 c 0.036,0.4323 0.216,0.7926 0.541,1.0988 0.306,0.3063 0.774,0.4504 1.369,0.4504 0.576,0 1.026,-0.1441 1.369,-0.4323 0.324,-0.2883 0.504,-0.6665 0.504,-1.1169 0,-0.3603 -0.09,-0.6485 -0.288,-0.8646 -0.198,-0.2162 -0.433,-0.3963 -0.739,-0.5044 -0.288,-0.1081 -0.684,-0.2342 -1.189,-0.3783 -0.612,-0.1621 -1.098,-0.3243 -1.477,-0.4864 -0.36,-0.1621 -0.684,-0.4143 -0.936,-0.7565 -0.271,-0.3423 -0.397,-0.7926 -0.397,-1.3691 0,-0.5044 0.126,-0.9547 0.378,-1.351 0.253,-0.3963 0.613,-0.6845 1.081,-0.9007 0.469,-0.2161 1.009,-0.3242 1.604,-0.3242 0.864,0 1.585,0.2161 2.143,0.6485 0.559,0.4323 0.865,1.0087 0.937,1.7293 h -1.333 c -0.036,-0.3603 -0.234,-0.6665 -0.559,-0.9367 -0.324,-0.2702 -0.756,-0.4143 -1.297,-0.4143 -0.504,0 -0.918,0.1261 -1.242,0.3963 -0.325,0.2702 -0.487,0.6304 -0.487,1.0988 0,0.3422 0.09,0.6124 0.288,0.8286 0.199,0.2162 0.433,0.3783 0.703,0.4864 0.288,0.1081 0.666,0.2341 1.171,0.3783 0.612,0.1621 1.099,0.3422 1.477,0.5043 0.378,0.1622 0.684,0.4144 0.955,0.7566 0.27,0.3423 0.396,0.8106 0.396,1.3871 0,0.4503 -0.126,0.8826 -0.36,1.2789 -0.235,0.3963 -0.595,0.7206 -1.063,0.9728 -0.469,0.2521 -1.027,0.3782 -1.657,0.3782 -0.595,0 -1.135,-0.108 -1.622,-0.3242 z"
       id="path61" />
    <path
       d="m 219.099,62.079 h -5.837 c 0.036,0.7205 0.289,1.279 0.739,1.6753 0.45,0.3963 0.991,0.6124 1.621,0.6124 0.523,0 0.955,-0.1261 1.315,-0.3603 0.36,-0.2341 0.595,-0.5764 0.739,-0.9727 h 1.297 c -0.198,0.7025 -0.577,1.279 -1.171,1.7113 -0.595,0.4323 -1.315,0.6665 -2.18,0.6665 -0.684,0 -1.315,-0.1621 -1.855,-0.4683 -0.541,-0.3063 -0.973,-0.7566 -1.279,-1.3331 -0.306,-0.5764 -0.468,-1.2429 -0.468,-1.9814 0,-0.7566 0.144,-1.4231 0.45,-1.9815 0.306,-0.5765 0.72,-1.0088 1.279,-1.315 0.54,-0.3063 1.171,-0.4504 1.891,-0.4504 0.685,0 1.297,0.1441 1.838,0.4504 0.54,0.3062 0.936,0.7205 1.225,1.2429 0.288,0.5224 0.432,1.1168 0.432,1.7834 0,0.2161 -0.018,0.4683 -0.036,0.7205 z m -1.513,-2.1796 c -0.198,-0.3243 -0.487,-0.5765 -0.829,-0.7566 -0.342,-0.1802 -0.738,-0.2522 -1.171,-0.2522 -0.612,0 -1.135,0.1981 -1.567,0.5764 -0.432,0.3963 -0.684,0.9367 -0.739,1.6212 h 4.612 c 0,-0.4503 -0.108,-0.8466 -0.306,-1.1888 z"
       id="path62" />
    <path
       d="m 249.02,62.079 h -5.837 c 0.036,0.7205 0.289,1.279 0.739,1.6753 0.45,0.3963 0.991,0.6124 1.621,0.6124 0.523,0 0.955,-0.1261 1.315,-0.3603 0.36,-0.2341 0.595,-0.5764 0.739,-0.9727 h 1.297 c -0.198,0.7025 -0.577,1.279 -1.171,1.7113 -0.595,0.4323 -1.315,0.6665 -2.18,0.6665 -0.684,0 -1.315,-0.1621 -1.855,-0.4683 -0.541,-0.3063 -0.973,-0.7566 -1.279,-1.3331 -0.306,-0.5764 -0.469,-1.2429 -0.469,-1.9814 0,-0.7566 0.145,-1.4231 0.451,-1.9815 0.306,-0.5765 0.72,-1.0088 1.279,-1.315 0.54,-0.3063 1.171,-0.4504 1.891,-0.4504 0.685,0 1.297,0.1441 1.838,0.4504 0.54,0.3062 0.936,0.7205 1.224,1.2429 0.289,0.5224 0.433,1.1168 0.433,1.7834 0,0.2161 0,0.4683 -0.036,0.7205 z m -1.513,-2.1796 c -0.199,-0.3243 -0.487,-0.5765 -0.829,-0.7566 -0.342,-0.1802 -0.739,-0.2522 -1.171,-0.2522 -0.612,0 -1.135,0.1981 -1.567,0.5764 -0.432,0.3963 -0.685,0.9367 -0.739,1.6212 h 4.612 c 0,-0.4503 -0.108,-0.8466 -0.306,-1.1888 z"
       id="path63" />
    <path
       d="m 221.567,57.9533 v 1.297 c 0.216,-0.5224 0.378,-0.7385 0.648,-0.9547 0.361,-0.2882 0.865,-0.4323 1.351,-0.4323 h 0.289 v 1.2069 c -0.127,-0.018 -0.235,-0.018 -0.325,-0.018 -0.63,0 -1.189,0.2882 -1.549,0.8286 -0.306,0.4503 -0.414,0.8647 -0.414,1.6933 v 3.6387 h -1.189 v -7.2595 z"
       id="path64" />
    <path
       d="m 231.276,57.9531 -2.756,7.2595 h -1.243 l -2.684,-7.2595 h 1.243 l 2.071,5.5662 2.126,-5.5662 z"
       id="path65" />
    <path
       d="m 241.076,64.3307 c -0.811,0.7385 -1.604,1.0628 -2.648,1.0628 -2.054,0 -3.513,-1.5492 -3.513,-3.7288 0,-2.2337 1.477,-3.7829 3.585,-3.7829 1.027,0 1.873,0.3423 2.612,1.0808 l -0.757,0.7566 c -0.54,-0.5044 -1.153,-0.7385 -1.819,-0.7385 -1.423,0 -2.396,1.0988 -2.396,2.648 0,1.5851 0.973,2.702 2.378,2.702 0.702,0 1.261,-0.2342 1.837,-0.7746 z"
       id="path66" />
  </g>
</svg>
