<?xml version="1.0" encoding="UTF-8"?> <svg xmlns="http://www.w3.org/2000/svg" fill="none" height="106" viewBox="0 0 255 106" width="255"><path d="m53.0681 32.0858v-23.68785h-.5945v23.68785h.2882z" fill="#fff"></path><path d="m43.7732 17.8193-.5764.1441 3.999 14.8612c.1801-.054.3783-.108.5764-.1441z" fill="#fff"></path><path d="m28.4975 9.89307-.5043.28823 14.3027 24.7686c.1622-.108.3423-.1981.5044-.2882z" fill="#fff"></path><path d="m12.1593 28.6992-.2882.5044 23.0754 13.33c.09-.1801.1981-.3422.2882-.5043z" fill="#fff"></path><path d="m38.5495 37.85-13.186-13.1859-.4143.4143 13.1859 13.1859c.1261-.1441.2703-.2702.4144-.4143z" fill="#fff"></path><path d="m12.6817 41.4717-.1441.5764 20.4454 5.4761c.054-.1981.0901-.3782.1441-.5764z" fill="#fff"></path><path d="m32.3525 52.208h-25.14693v.5945h25.14693c0-.0901 0-.1982 0-.2883 0-.09 0-.1981 0-.3062z" fill="#fff"></path><path d="m17.6172 61.611.1441.5764 15.3476-4.1071c-.0541-.1801-.1081-.3782-.1442-.5764z" fill="#fff"></path><path d="m11.853 75.8056.2882.5044 23.0934-13.33c-.1081-.1622-.1981-.3423-.2882-.5044z" fill="#fff"></path><path d="m38.1169 66.7451-14.4289 14.4289.4143.4143 14.4289-14.4289c-.1261-.1441-.2702-.2882-.4143-.4143z" fill="#fff"></path><path d="m28.0474 94.7556.5043.2882 14.2668-24.7146c-.1801-.09-.3423-.1981-.5044-.2882z" fill="#fff"></path><path d="m42.3862 90.126.5765.1441 4.8096-17.9776c-.1982-.054-.3783-.09-.5765-.1441z" fill="#fff"></path><path d="m52.4736 72.9229v25.6693h.5945v-25.6693c-.0901 0-.1982 0-.2882 0-.0901 0-.1982 0-.3063 0z" fill="#fff"></path><path d="m64.2904 96.6104.5765-.1441-6.5209-24.3003c-.1802.0541-.3783.1081-.5765.1441z" fill="#fff"></path><path d="m70.9194 21.6383-.5044-.2882-7.6738 13.312c.1801.0901.3423.1982.5044.2882z" fill="#fff"></path><path d="m65.8216 4.97565-.5764-.14411-7.4757 27.88496c.1982.0541.3783.0901.5765.1441z" fill="#fff"></path><path d="m18.6422 65.3644c1.9842-.2476 3.3921-2.0568 3.1446-4.0411-.2476-1.9843-2.0568-3.3922-4.0411-3.1446s-3.3922 2.0568-3.1446 4.0411c.2475 1.9843 2.0568 3.3922 4.0411 3.1446z" fill="#112b5f"></path><path d="m13.0762 45.4758c2.0633-.2574 3.5272-2.1387 3.2698-4.2019-.2574-2.0633-2.1387-3.5272-4.202-3.2698-2.0632.2574-3.52712 2.1387-3.26971 4.202.25741 2.0632 2.13871 3.5271 4.20191 3.2697z" fill="#112b5f"></path><path d="m3.96298 56.4592c2.1887 0 3.96299-1.7743 3.96299-3.963s-1.77429-3.963-3.96299-3.963c-2.18869 0-3.96298 1.7743-3.96298 3.963s1.77429 3.963 3.96298 3.963z" fill="#112b5f"></path><path d="m142.451 30.5732h-1.171v43.9712h1.171z" fill="#fff"></path><path d="m52.7797 105.275c1.94 0 3.5127-1.572 3.5127-3.512 0-1.9403-1.5727-3.513-3.5127-3.513-1.9399 0-3.5126 1.5727-3.5126 3.513 0 1.94 1.5727 3.512 3.5126 3.512z" fill="#a72e94"></path><path d="m64.4938 98.4911c2.1044-.2486 3.6089-2.1561 3.3603-4.2605s-2.156-3.6089-4.2605-3.3604c-2.1044.2486-3.6089 2.1561-3.3603 4.2605.2485 2.1045 2.156 3.6089 4.2605 3.3604z" fill="#a72e94"></path><path d="m43.0824 92.6986c1.5512-.1832 2.6601-1.5892 2.4769-3.1404-.1832-1.5511-1.5892-2.6601-3.1403-2.4769-1.5512.1833-2.6601 1.5892-2.4769 3.1404s1.5892 2.6601 3.1403 2.4769z" fill="#76378a"></path><path d="m28.3532 98.7357c2.1688 0 3.927-1.7581 3.927-3.9269s-1.7582-3.927-3.927-3.927-3.9269 1.7582-3.9269 3.927 1.7581 3.9269 3.9269 3.9269z" fill="#76378a"></path><path d="m27.1169 81.7757c.4059-1.6008-.5627-3.2276-2.1635-3.6335s-3.2275.5627-3.6334 2.1634c-.406 1.6008.5626 3.2276 2.1634 3.6335s3.2275-.5627 3.6335-2.1634z" fill="#35348a"></path><path d="m28.2813 13.8923c2.0992 0 3.8009-1.7018 3.8009-3.8009 0-2.09917-1.7017-3.80087-3.8009-3.80087-2.0991 0-3.8008 1.7017-3.8008 3.80087 0 2.0991 1.7017 3.8009 3.8008 3.8009z" fill="#255291"></path><path d="m52.7618 12.3971c2.1986 0 3.981-1.7824 3.981-3.98104 0-2.19865-1.7824-3.981-3.981-3.981-2.1987 0-3.981 1.78235-3.981 3.981 0 2.19864 1.7823 3.98104 3.981 3.98104z" fill="#3f82b5"></path><path d="m43.819 20.4478c1.4019-.1749 2.3965-1.4531 2.2216-2.8549-.1749-1.4019-1.4531-2.3965-2.8549-2.2216s-2.3965 1.4531-2.2216 2.8549 1.4531 2.3965 2.8549 2.2216z" fill="#3f82b5"></path><path d="m12.0332 32.7885c2.119 0 3.8369-1.7178 3.8369-3.8369 0-2.119-1.7179-3.8369-3.8369-3.8369-2.11907 0-3.83691 1.7179-3.83691 3.8369 0 2.1191 1.71784 3.8369 3.83691 3.8369z" fill="#255291"></path><path d="m25.55 28.026c1.7868-.2229 3.0546-1.8521 2.8317-3.639-.223-1.7868-1.8522-3.0546-3.639-2.8317-1.7869.223-3.0547 1.8522-2.8317 3.639.2229 1.7869 1.8521 3.0547 3.639 2.8317z" fill="#255291"></path><path d="m65.9898 8.45932c1.9448-.24263 3.3247-2.01588 3.0821-3.96067-.2427-1.94479-2.0159-3.32465-3.9607-3.08202s-3.3247 2.01588-3.082 3.96067c.2426 1.94479 2.0159 3.32466 3.9606 3.08202z" fill="#2597c4"></path><path d="m70.6855 25.205c2.0295 0 3.6748-1.6452 3.6748-3.6748 0-2.0295-1.6453-3.6747-3.6748-3.6747s-3.6748 1.6452-3.6748 3.6747c0 2.0296 1.6453 3.6748 3.6748 3.6748z" fill="#2597c4"></path><path d="m12.0152 79.21c1.741 0 3.1523-1.4113 3.1523-3.1524 0-1.741-1.4113-3.1523-3.1523-3.1523s-3.15241 1.4113-3.15241 3.1523c0 1.7411 1.41141 3.1524 3.15241 3.1524z" fill="#35348a"></path><g fill="#fff"><path d="m57.7697 47.8648c-.4503-.8466-1.1168-1.4951-1.9815-1.9455-.8646-.4503-1.8734-.6665-3.0262-.6665-1.9995 0-3.6027.6665-4.8097 1.9815-1.2069 1.315-1.8013 3.0803-1.8013 5.26 0 2.3417.6305 4.1611 1.9094 5.4761 1.261 1.315 3.0083 1.9815 5.224 1.9815 1.5131 0 2.8101-.3783 3.8549-1.1529 1.0447-.7746 1.8193-1.8914 2.3057-3.3325h-7.8539v-4.5574h13.4741v5.7643c-.4503 1.5492-1.2429 2.9723-2.3417 4.3053-1.0989 1.333-2.4859 2.3958-4.1792 3.2244-1.6932.8286-3.6027 1.2249-5.7283 1.2249-2.5039 0-4.7556-.5404-6.7191-1.6392-1.9634-1.0988-3.4946-2.63-4.5934-4.5755-1.0988-1.9634-1.6392-4.1791-1.6392-6.701 0-2.5039.5404-4.7556 1.6392-6.7191 1.0988-1.9634 2.63-3.4946 4.5754-4.5934 1.9635-1.0988 4.1792-1.6393 6.7011-1.6393 3.0443 0 5.6022.7386 7.6918 2.2157 2.0895 1.4771 3.4766 3.5127 4.1431 6.1246h-6.8452z"></path><path d="m87.078 52.0452c-.6845 1.2249-1.7113 2.1977-3.1164 2.9543-1.405.7565-3.1343 1.1168-5.2059 1.1168h-3.8369v9.1149h-6.1966v-25.3992h10.0335c2.0355 0 3.7468.3423 5.1339 1.0448 1.405.7025 2.4498 1.6573 3.1524 2.9002.7025 1.2249 1.0448 2.648 1.0448 4.2332 0 1.4771-.3423 2.8281-1.0088 4.035zm-6.1607-1.6752c.5765-.5585.8647-1.333.8647-2.3598s-.2882-1.8014-.8647-2.3598c-.5764-.5584-1.459-.8286-2.6479-.8286h-3.3686v6.3768h3.3686c1.1889 0 2.0715-.2702 2.6479-.8286z"></path><path d="m103.758 60.7638h-9.4929l-1.5131 4.4854h-6.4849l9.1869-25.4172h7.169l9.187 25.4172h-6.557zm-1.603-4.7916-3.1523-9.295-3.1164 9.313h6.2687z"></path><path d="m118.331 64.6002c-1.477-.5945-2.648-1.4952-3.53-2.6841-.883-1.1889-1.351-2.6119-1.387-4.2692h6.593c.09.9367.414 1.6573.972 2.1617.559.4863 1.279.7385 2.18.7385.919 0 1.639-.2162 2.18-.6305.522-.4143.792-1.0087.792-1.7473 0-.6305-.216-1.1528-.63-1.5491-.415-.4144-.937-.7566-1.549-1.0088-.613-.2702-1.496-.5584-2.63-.9007-1.64-.5044-2.973-1.0087-4.017-1.5131-1.045-.5044-1.928-1.261-2.684-2.2517-.757-.9908-1.117-2.2877-1.117-3.8729 0-2.3598.864-4.2152 2.576-5.5662 1.711-1.333 3.945-2.0175 6.701-2.0175 2.792 0 5.061.6665 6.773 2.0175 1.711 1.333 2.63 3.2064 2.756 5.6022h-6.701c-.054-.8286-.342-1.4591-.901-1.9455-.558-.4683-1.261-.7025-2.143-.7025-.757 0-1.351.1981-1.802.5944-.45.3963-.684.9728-.684 1.7113 0 .8287.378 1.4591 1.153 1.9275.774.4503 1.981.9547 3.62 1.4771 1.639.5584 2.972 1.0808 3.999 1.5852s1.91 1.2429 2.666 2.2157c.757.9727 1.117 2.2156 1.117 3.7288 0 1.4411-.36 2.756-1.099 3.9449-.738 1.1889-1.801 2.1256-3.206 2.8282-1.405.7025-3.062 1.0448-4.954 1.0448-1.909-.0181-3.567-.3243-5.044-.9187z"></path><path d="m232.501 56.5316c-.162-.1621-.234-.3603-.234-.5765 0-.2341.072-.4323.234-.5764s.36-.2342.576-.2342.415.0721.559.2342c.162.1621.234.3603.234.5764 0 .2342-.072.4324-.234.5765-.162.1621-.343.2342-.559.2342-.234 0-.414-.0721-.576-.2342zm1.171 1.423v7.2955h-1.207v-7.2955z"></path><path d="m158.628 42.5162c-.253-.5404-.631-.9547-1.117-1.261-.487-.2882-1.063-.4503-1.712-.4503-.648 0-1.225.1441-1.747.4503-.522.3063-.919.7206-1.225 1.279s-.45 1.1889-.45 1.9274c0 .7206.144 1.3691.45 1.9095.288.5584.703.9727 1.225 1.2789.522.3063 1.099.4504 1.747.4504.901 0 1.658-.2702 2.234-.8106.577-.5404.919-1.279 1.027-2.1977h-3.693v-.9907h4.99v.9367c-.072.7565-.306 1.4591-.721 2.0895-.414.6305-.936 1.1349-1.603 1.4952-.666.3602-1.405.5584-2.216.5584-.864 0-1.639-.1982-2.359-.6125-.703-.3963-1.279-.9727-1.676-1.6752-.396-.7026-.612-1.5312-.612-2.4319 0-.9006.198-1.7112.612-2.4498.415-.7205.973-1.279 1.676-1.6933.702-.3963 1.495-.6124 2.359-.6124.991 0 1.856.2521 2.612.7385.757.4864 1.315 1.1709 1.658 2.0536h-1.459z"></path><path d="m162.879 39.2559v9.8534h-1.207v-9.8534z"></path><path d="m165.923 48.7664c-.558-.3062-.991-.7566-1.297-1.333s-.468-1.2429-.468-1.9815.162-1.4051.486-1.9815.757-1.0088 1.315-1.315 1.189-.4503 1.873-.4503c.685 0 1.315.1441 1.874.4503.558.3062 1.009.7386 1.315 1.315.324.5764.486 1.2249.486 1.9815s-.162 1.4231-.504 1.9815-.775 1.0088-1.351 1.333c-.577.3062-1.189.4684-1.892.4684-.666 0-1.279-.1622-1.837-.4684zm3.08-.9187c.379-.1981.685-.5044.919-.9187s.36-.9007.36-1.4951c0-.5945-.108-1.0808-.342-1.4951-.234-.4144-.54-.7206-.901-.9187-.36-.1982-.774-.3063-1.207-.3063-.45 0-.846.1081-1.224.3063-.361.1981-.667.5043-.883.9187-.216.4143-.324.9006-.324 1.4951 0 .5944.108 1.0988.324 1.4951.216.4143.504.7206.865.9187.36.1982.756.3062 1.188.3062.433 0 .847-.09 1.225-.3062z"></path><path d="m175.074 42.1025c.486-.2702 1.027-.4143 1.639-.4143.649 0 1.243.1622 1.765.4684.523.3062.937.7385 1.243 1.315.307.5584.451 1.2249.451 1.9635 0 .7385-.144 1.387-.451 1.9634-.306.5765-.72 1.0268-1.243 1.3511-.522.3242-1.116.4863-1.765.4863-.63 0-1.189-.1441-1.657-.4143-.469-.2702-.829-.6305-1.063-1.0448v1.351h-1.207v-9.8534h1.207v3.8909c.234-.4323.595-.7745 1.081-1.0628zm3.513 1.8915c-.217-.4143-.523-.7206-.901-.9367-.378-.2162-.793-.3243-1.243-.3243s-.847.1081-1.225.3243c-.378.2161-.685.5404-.901.9367-.234.4143-.342.8826-.342 1.423 0 .5585.108 1.0268.342 1.4411s.523.7206.901.9367c.378.2162.793.3243 1.225.3243.45 0 .865-.1081 1.243-.3243.378-.2161.684-.5404.901-.9367.216-.4143.324-.9007.324-1.4591.018-.5044-.09-.9907-.324-1.405z"></path><path d="m181.487 43.4718c.306-.5584.72-1.0087 1.243-1.315.522-.3062 1.117-.4683 1.765-.4683.631 0 1.189.1441 1.657.4143.469.2702.829.6125 1.045 1.0448v-1.333h1.225v7.2955h-1.225v-1.3511c-.234.4324-.594.7746-1.063 1.0628-.468.2883-1.026.4144-1.657.4144-.648 0-1.225-.1622-1.765-.4864-.523-.3242-.937-.7746-1.243-1.351-.306-.5765-.45-1.2249-.45-1.9635.018-.7386.162-1.4051.468-1.9635zm5.386.5404c-.216-.4143-.522-.7205-.901-.9367-.378-.2161-.792-.3242-1.243-.3242-.45 0-.864.1081-1.243.3242-.378.2162-.666.5224-.882.9367s-.324.8827-.324 1.4411.108 1.0448.324 1.4591.522.7206.882.9367c.379.2162.793.3243 1.243.3243.451 0 .865-.1081 1.243-.3243.379-.2161.685-.5404.901-.9367.216-.4143.324-.9007.324-1.4411 0-.5764-.108-1.0448-.324-1.4591z"></path><path d="m191.304 39.2559v9.8534h-1.207v-9.8534z"></path><path d="m200.725 44.4615c-.522.5044-1.333.7566-2.413.7566h-1.784v3.8909h-1.207v-9.277h2.991c1.044 0 1.837.2522 2.395.7566.541.5044.811 1.1529.811 1.9635 0 .7746-.252 1.405-.793 1.9094zm-.918-.6665c.324-.2882.486-.7025.486-1.2429 0-1.1529-.648-1.7113-1.963-1.7113h-1.784v3.4046h1.784c.666 0 1.152-.1622 1.477-.4504z"></path><path d="m202.527 43.4718c.306-.5584.72-1.0087 1.243-1.315.522-.3062 1.117-.4683 1.765-.4683.631 0 1.189.1441 1.657.4143.469.2702.829.6125 1.045 1.0448v-1.333h1.225v7.2955h-1.225v-1.3511c-.234.4324-.594.7746-1.063 1.0628-.468.2883-1.026.4144-1.657.4144-.648 0-1.225-.1622-1.765-.4864-.523-.3242-.937-.7746-1.243-1.351-.306-.5765-.45-1.2249-.45-1.9635s.162-1.4051.468-1.9635zm5.386.5404c-.216-.4143-.522-.7205-.901-.9367-.378-.2161-.792-.3242-1.243-.3242-.45 0-.864.1081-1.243.3242-.378.2162-.666.5224-.882.9367s-.324.8827-.324 1.4411.108 1.0448.324 1.4591.522.7206.882.9367c.379.2162.793.3243 1.243.3243.451 0 .865-.1081 1.243-.3243.379-.2161.685-.5404.901-.9367.216-.4143.324-.9007.324-1.4411 0-.5764-.108-1.0448-.324-1.4591z"></path><path d="m212.56 42.8232v4.3053c0 .3603.072.6125.234.7566.144.1441.415.2161.793.2161h.883v1.0268h-1.099c-.667 0-1.171-.1621-1.513-.4684-.343-.3062-.505-.8286-.505-1.5311v-4.3053h-.936v-.9907h.936v-1.8374h1.207v1.8374h1.91v.9907z"></path><path d="m220.558 42.03c.451.2341.793.5944 1.045 1.0628.252.4683.378 1.0447.378 1.7112v4.3053h-1.189v-4.1251c0-.7206-.18-1.279-.54-1.6753-.36-.3783-.865-.5764-1.495-.5764-.631 0-1.153.1981-1.531.5944s-.559.9728-.559 1.7473v4.0351h-1.207v-9.8534h1.207v3.5847c.235-.3783.577-.6665.991-.8647.414-.1981.901-.3062 1.423-.3062.541.018 1.027.1261 1.477.3603z"></path><path d="m224.954 48.7664c-.559-.3062-.991-.7566-1.297-1.333s-.469-1.2429-.469-1.9815.163-1.4051.487-1.9815.756-1.0088 1.315-1.315c.558-.3062 1.189-.4503 1.873-.4503.685 0 1.315.1441 1.874.4503.558.3062 1.008.7386 1.315 1.315.324.5764.486 1.2249.486 1.9815s-.162 1.4231-.504 1.9815c-.343.5584-.775 1.0088-1.351 1.333-.577.3062-1.189.4684-1.892.4684-.666 0-1.297-.1622-1.837-.4684zm3.08-.9187c.378-.1981.685-.5044.919-.9187s.36-.9007.36-1.4951c0-.5945-.108-1.0808-.342-1.4951-.234-.4144-.541-.7206-.901-.9187-.36-.1982-.774-.3063-1.207-.3063-.45 0-.846.1081-1.225.3063-.36.1981-.666.5043-.882.9187-.217.4143-.325.9006-.325 1.4951 0 .5944.108 1.0988.325 1.4951.216.4143.504.7206.864.9187.361.1982.757.3062 1.189.3062.433 0 .829-.09 1.225-.3062z"></path><path d="m236.518 42.1013c.468.2702.829.6124 1.063 1.0448v-1.333h1.225v7.4576c0 .6665-.144 1.2609-.433 1.7833-.288.5224-.684.9187-1.224 1.2249-.523.2882-1.135.4324-1.838.4324-.955 0-1.765-.2342-2.396-.6846-.63-.4503-1.008-1.0628-1.134-1.8554h1.188c.126.4504.415.7926.829 1.0628s.919.4144 1.495.4144c.667 0 1.207-.2162 1.621-.6305.415-.4143.631-1.0088.631-1.7653v-1.5312c-.234.4323-.595.7746-1.063 1.0628s-1.027.4323-1.657.4323c-.649 0-1.243-.1621-1.766-.4863-.522-.3243-.936-.7746-1.242-1.3511-.307-.5764-.451-1.2249-.451-1.9634 0-.7386.144-1.4051.451-1.9635.306-.5584.72-1.0088 1.242-1.315.523-.3062 1.117-.4684 1.766-.4684.666.0181 1.225.1622 1.693.4324zm.739 1.9094c-.217-.4143-.523-.7205-.901-.9367s-.793-.3242-1.243-.3242-.865.108-1.243.3242-.666.5224-.883.9367c-.216.4143-.324.8827-.324 1.4411s.108 1.0448.324 1.4591c.217.4143.523.7205.883.9367.378.2162.793.3242 1.243.3242s.865-.108 1.243-.3242.684-.5404.901-.9367c.216-.4143.324-.9007.324-1.4411 0-.5764-.108-1.0448-.324-1.4591z"></path><path d="m247.146 45.9218h-5.836c.036.7205.288 1.2789.738 1.6752.451.3963.991.6125 1.622.6125.522 0 .954-.1261 1.315-.3603.342-.2522.594-.5764.738-.9727h1.297c-.198.7025-.576 1.279-1.171 1.7113-.594.4323-1.315.6665-2.179.6665-.685 0-1.315-.1621-1.856-.4684-.54-.3062-.973-.7565-1.279-1.333-.306-.5764-.468-1.2429-.468-1.9815 0-.7565.144-1.423.45-1.9815.306-.5764.721-1.0087 1.279-1.315.541-.3062 1.171-.4503 1.892-.4503.684 0 1.297.1441 1.837.4503.54.3063.937.7206 1.225 1.243s.432 1.1168.432 1.7833c0 .2162 0 .4504-.036.7206zm-1.513-2.1797c-.198-.3242-.486-.5764-.829-.7565-.342-.1802-.738-.2522-1.17-.2522-.613 0-1.135.1981-1.568.5764-.432.3963-.684.9367-.738 1.6212h4.611c0-.4683-.108-.8646-.306-1.1889z"></path><path d="m254.172 42.4811c.558.5404.828 1.315.828 2.3237v4.3053h-1.188v-4.1251c0-.7206-.181-1.279-.541-1.6753-.36-.3783-.865-.5764-1.495-.5764-.631 0-1.153.1981-1.531.5944s-.559.9727-.559 1.7473v4.0351h-1.207v-7.2955h1.207v1.0448c.235-.3783.559-.6665.973-.8647.414-.1981.865-.3062 1.369-.3062.865 0 1.585.2702 2.144.7926z"></path><path d="m157.204 63.1772h-4.053l-.738 2.0536h-1.279l3.35-9.223h1.405l3.333 9.223h-1.279zm-.342-.9727-1.675-4.6835-1.675 4.6835z"></path><path d="m165.923 58.6207c.558.5404.828 1.315.828 2.3238v4.3052h-1.189v-4.1251c0-.7205-.18-1.279-.54-1.6753-.36-.3782-.865-.5764-1.495-.5764-.631 0-1.153.1982-1.531.5945s-.559.9727-.559 1.7473v4.035h-1.207v-7.2955h1.207v1.0448c.235-.3783.559-.6665.973-.8647.414-.1981.865-.3062 1.369-.3062.883 0 1.585.2702 2.144.7926z"></path><path d="m168.391 59.6115c.306-.5585.72-1.0088 1.243-1.315.522-.3063 1.117-.4684 1.765-.4684.63 0 1.189.1441 1.657.4143.469.2702.829.6125 1.045 1.0448v-1.333h1.225v7.2955h-1.225v-1.351c-.234.4323-.594.7746-1.063 1.0628-.468.2882-1.027.4143-1.657.4143-.649 0-1.225-.1621-1.765-.4864-.523-.3242-.937-.7746-1.243-1.351-.307-.5764-.451-1.2249-.451-1.9635.018-.7385.162-1.405.469-1.9634zm5.386.5404c-.216-.4143-.523-.7206-.901-.9367-.378-.2162-.793-.3243-1.243-.3243s-.864.1081-1.243.3243c-.378.2161-.666.5224-.882.9367-.217.4143-.325.8826-.325 1.4411 0 .5584.108 1.0447.325 1.4591.216.4143.522.7205.882.9367.379.2161.793.3242 1.243.3242s.865-.1081 1.243-.3242c.378-.2162.685-.5404.901-.9367.216-.4144.324-.9007.324-1.4411.018-.5765-.09-1.0448-.324-1.4591z"></path><path d="m178.208 55.3965v9.8534h-1.207v-9.8534z"></path><path d="m186.224 57.9531-4.395 10.7181h-1.243l1.441-3.5126-2.936-7.2055h1.351l2.288 5.9085 2.269-5.9085z"></path><path d="m188.007 65.0872c-.45-.1982-.792-.4504-1.044-.7926-.253-.3423-.397-.7386-.433-1.1709h1.243c.036.3602.198.6665.505.8826.306.2342.702.3423 1.207.3423.468 0 .828-.1081 1.098-.3062.271-.1982.397-.4684.397-.7746 0-.3243-.144-.5584-.433-.7206-.288-.1621-.72-.3062-1.315-.4503-.54-.1441-.99-.2882-1.333-.4323-.342-.1441-.63-.3603-.882-.6485-.253-.2882-.361-.6665-.361-1.1349 0-.3783.108-.7205.325-1.0267.216-.3063.54-.5585.936-.7386.415-.1801.865-.2702 1.405-.2702.811 0 1.459.1982 1.964.6125.504.4143.756.9727.792 1.6752h-1.206c-.018-.3783-.181-.6845-.451-.9187-.288-.2341-.648-.3422-1.117-.3422-.432 0-.774.09-1.044.2882-.253.1801-.379.4323-.379.7386 0 .2341.072.4323.234.5944.163.1621.343.2882.577.3783.234.09.558.1981.973.3062.522.1441.954.2882 1.279.4143.324.1441.612.3423.846.6125s.36.6305.36 1.0808c0 .3963-.108.7566-.324 1.0808-.216.3243-.54.5765-.936.7566-.397.1801-.865.2702-1.387.2702-.541-.018-1.045-.1261-1.496-.3062z"></path><path d="m193.555 56.5316c-.162-.1621-.234-.3603-.234-.5765 0-.2341.072-.4323.234-.5764.163-.1441.361-.2342.577-.2342s.414.0721.558.2342c.162.1621.235.3603.235.5764 0 .2342-.073.4324-.235.5765-.162.1621-.342.2342-.558.2342-.234 0-.414-.0721-.577-.2342zm1.171 1.423v7.2955h-1.207v-7.2955z"></path><path d="m197.483 65.0872c-.45-.1982-.793-.4504-1.045-.7926-.252-.3423-.396-.7386-.432-1.1709h1.243c.036.3602.198.6665.504.8826.306.2342.703.3423 1.207.3423.468 0 .829-.1081 1.099-.3062.27-.1982.396-.4684.396-.7746 0-.3243-.144-.5584-.432-.7206-.288-.1621-.721-.3062-1.315-.4503-.541-.1441-.991-.2882-1.333-.4323s-.631-.3603-.883-.6485-.36-.6665-.36-1.1349c0-.3783.108-.7205.324-1.0267.216-.3063.541-.5585.937-.7386.414-.1801.865-.2702 1.405-.2702.811 0 1.459.1982 1.963.6125.505.4143.757.9727.793 1.6752h-1.207c-.018-.3783-.18-.6845-.45-.9187-.288-.2341-.649-.3422-1.117-.3422-.432 0-.775.09-1.045.2882-.252.1801-.378.4323-.378.7386 0 .2341.072.4323.234.5944s.342.2882.576.3783c.235.09.559.1981.973.3062.523.1441.955.2882 1.279.4143.324.1441.613.3423.847.6125s.36.6305.36 1.0808c0 .3963-.108.7566-.324 1.0808-.216.3243-.541.5765-.937.7566s-.865.2702-1.387.2702c-.54-.018-1.045-.1261-1.495-.3062z"></path><path d="m206.435 65.0693c-.486-.2162-.864-.5224-1.135-.9007-.27-.3783-.414-.8286-.432-1.333h1.297c.036.4323.216.7926.541 1.0988.306.3063.774.4504 1.369.4504.576 0 1.026-.1441 1.369-.4323.324-.2883.504-.6665.504-1.1169 0-.3603-.09-.6485-.288-.8646-.198-.2162-.433-.3963-.739-.5044-.288-.1081-.684-.2342-1.189-.3783-.612-.1621-1.098-.3243-1.477-.4864-.36-.1621-.684-.4143-.936-.7565-.271-.3423-.397-.7926-.397-1.3691 0-.5044.126-.9547.378-1.351.253-.3963.613-.6845 1.081-.9007.469-.2161 1.009-.3242 1.604-.3242.864 0 1.585.2161 2.143.6485.559.4323.865 1.0087.937 1.7293h-1.333c-.036-.3603-.234-.6665-.559-.9367-.324-.2702-.756-.4143-1.297-.4143-.504 0-.918.1261-1.242.3963-.325.2702-.487.6304-.487 1.0988 0 .3422.09.6124.288.8286.199.2162.433.3783.703.4864.288.1081.666.2341 1.171.3783.612.1621 1.099.3422 1.477.5043.378.1622.684.4144.955.7566.27.3423.396.8106.396 1.3871 0 .4503-.126.8826-.36 1.2789-.235.3963-.595.7206-1.063.9728-.469.2521-1.027.3782-1.657.3782-.595 0-1.135-.108-1.622-.3242z"></path><path d="m219.099 62.079h-5.837c.036.7205.289 1.279.739 1.6753s.991.6124 1.621.6124c.523 0 .955-.1261 1.315-.3603.36-.2341.595-.5764.739-.9727h1.297c-.198.7025-.577 1.279-1.171 1.7113-.595.4323-1.315.6665-2.18.6665-.684 0-1.315-.1621-1.855-.4683-.541-.3063-.973-.7566-1.279-1.3331-.306-.5764-.468-1.2429-.468-1.9814 0-.7566.144-1.4231.45-1.9815.306-.5765.72-1.0088 1.279-1.315.54-.3063 1.171-.4504 1.891-.4504.685 0 1.297.1441 1.838.4504.54.3062.936.7205 1.225 1.2429.288.5224.432 1.1168.432 1.7834 0 .2161-.018.4683-.036.7205zm-1.513-2.1796c-.198-.3243-.487-.5765-.829-.7566-.342-.1802-.738-.2522-1.171-.2522-.612 0-1.135.1981-1.567.5764-.432.3963-.684.9367-.739 1.6212h4.612c0-.4503-.108-.8466-.306-1.1888z"></path><path d="m249.02 62.079h-5.837c.036.7205.289 1.279.739 1.6753s.991.6124 1.621.6124c.523 0 .955-.1261 1.315-.3603.36-.2341.595-.5764.739-.9727h1.297c-.198.7025-.577 1.279-1.171 1.7113-.595.4323-1.315.6665-2.18.6665-.684 0-1.315-.1621-1.855-.4683-.541-.3063-.973-.7566-1.279-1.3331-.306-.5764-.469-1.2429-.469-1.9814 0-.7566.145-1.4231.451-1.9815.306-.5765.72-1.0088 1.279-1.315.54-.3063 1.171-.4504 1.891-.4504.685 0 1.297.1441 1.838.4504.54.3062.936.7205 1.224 1.2429.289.5224.433 1.1168.433 1.7834 0 .2161 0 .4683-.036.7205zm-1.513-2.1796c-.199-.3243-.487-.5765-.829-.7566-.342-.1802-.739-.2522-1.171-.2522-.612 0-1.135.1981-1.567.5764-.432.3963-.685.9367-.739 1.6212h4.612c0-.4503-.108-.8466-.306-1.1888z"></path><path d="m221.567 57.9533v1.297c.216-.5224.378-.7385.648-.9547.361-.2882.865-.4323 1.351-.4323h.289v1.2069c-.127-.018-.235-.018-.325-.018-.63 0-1.189.2882-1.549.8286-.306.4503-.414.8647-.414 1.6933v3.6387h-1.189v-7.2595z"></path><path d="m231.276 57.9531-2.756 7.2595h-1.243l-2.684-7.2595h1.243l2.071 5.5662 2.126-5.5662z"></path><path d="m241.076 64.3307c-.811.7385-1.604 1.0628-2.648 1.0628-2.054 0-3.513-1.5492-3.513-3.7288 0-2.2337 1.477-3.7829 3.585-3.7829 1.027 0 1.873.3423 2.612 1.0808l-.757.7566c-.54-.5044-1.153-.7385-1.819-.7385-1.423 0-2.396 1.0988-2.396 2.648 0 1.5851.973 2.702 2.378 2.702.702 0 1.261-.2342 1.837-.7746z"></path></g></svg> 