<?xml version="1.0" encoding="UTF-8" standalone="no"?>
<svg
   xmlns:dc="http://purl.org/dc/elements/1.1/"
   xmlns:cc="http://creativecommons.org/ns#"
   xmlns:rdf="http://www.w3.org/1999/02/22-rdf-syntax-ns#"
   xmlns:svg="http://www.w3.org/2000/svg"
   xmlns="http://www.w3.org/2000/svg"
   xmlns:sodipodi="http://sodipodi.sourceforge.net/DTD/sodipodi-0.dtd"
   xmlns:inkscape="http://www.inkscape.org/namespaces/inkscape"
   version="1.1"
   id="Layer_1"
   x="0px"
   y="0px"
   viewBox="0 0 3664.74 595.78"
   style="enable-background:new 0 0 3664.74 595.78;"
   xml:space="preserve"
   sodipodi:docname="oxford_skyline_full.svg"
   inkscape:version="1.0.1 (3bc2e813f5, 2020-09-07)"><metadata
   id="metadata945"><rdf:RDF><cc:Work
       rdf:about=""><dc:format>image/svg+xml</dc:format><dc:type
         rdf:resource="http://purl.org/dc/dcmitype/StillImage" /></cc:Work></rdf:RDF></metadata><defs
   id="defs943" /><sodipodi:namedview
   pagecolor="#ffffff"
   bordercolor="#666666"
   borderopacity="1"
   objecttolerance="10"
   gridtolerance="10"
   guidetolerance="10"
   inkscape:pageopacity="0"
   inkscape:pageshadow="2"
   inkscape:window-width="1644"
   inkscape:window-height="1064"
   id="namedview941"
   showgrid="false"
   inkscape:zoom="1.6979485"
   inkscape:cx="1926.009"
   inkscape:cy="535.18465"
   inkscape:window-x="0"
   inkscape:window-y="0"
   inkscape:window-maximized="1"
   inkscape:current-layer="Layer_1" />
<path
   d="m 1204.69,400.75 -72.77,-3.71 3.34,-44.51 c 0,0 6.49,-3.25 6.29,-5.3 -0.19,-1.88 -6.62,-3.64 -6.62,-3.64 v -21.51 l -3.01,-12.32 -4.27,-1.91 h -25.48 c 0,0 2.51,-30.35 0,-40.05 -1.28,-4.95 -9.93,-17.87 -9.93,-17.87 0,0 -1.22,-5.46 -1.52,-15.39 -0.25,-8.19 4.09,-14.14 2.85,-18.7 -0.45,-1.64 -4.96,-4.63 -4.96,-4.63 l -6.29,-47 -6.28,46 c 0,0 -5.46,2.44 -6.63,3.98 -1.14,1.5 -1.99,7.28 -1.99,7.28 0,0 -10.65,-14.16 -22.46,-25.85 -8.98,-8.9 -22.05,-17.17 -22.05,-17.17 l -0.17,-4.96 -7.61,-0.33 v -10.59 c 0,0 -2.6,-7.17 -2.6,-9.9 0,-2.05 1.61,-10.58 1.61,-10.58 l 0.84,-4.69 c 1.44,-8.05 -4.15,-15.67 -12.27,-16.72 l -0.24,-0.03 0.38,-4.37 -1.24,-0.01 -3.97,-5.71 0.43,-0.54 c 0.86,-1.08 0.94,-2.58 0.21,-3.75 l -0.64,-1.02 -0.98,-10.67 -1,10.67 -0.72,1.02 c -0.81,1.14 -0.72,2.69 0.22,3.74 l 0.5,0.56 -3.72,5.62 -1.49,-0.01 0.21,4.39 h -0.03 c -7.38,0.88 -12.68,11.14 -12.36,18.57 l 0.06,1.37 c 0,0 1.08,9.6 1.25,12.82 0.17,3.14 -2.81,8.8 -2.81,8.8 v 10.72 l -7.28,0.33 v 4.96 c 0,0 -8.19,5.07 -22.16,17.98 -10.27,9.49 -25.5,31.67 -25.5,31.67 l -4.63,3.64 c 0,0 1.83,14.51 0,15.23 -6.56,2.61 -13.9,2.97 -13.9,2.97 l -7.61,3.31 v 59.24 h -41.37 l -5.63,19.86 -1.99,6.62 v 6.29 l 1.99,2.98 -0.66,8.6 c 0,0 3.11,5.04 3.31,6.95 0.81,7.89 -2.26,44.34 -2.26,44.34 l -25.42,2.28 -1.08,-31.1 c 0,0 0.68,-0.38 0.66,-0.9 -0.02,-0.53 -0.71,-0.74 -0.71,-0.74 l -0.05,-1.49 -10.53,0.34 v 1.31 c 0,0 -0.78,0.25 -0.7,0.91 0.08,0.61 0.7,0.74 0.7,0.74 l 0.08,31.94 -28.68,2.57 -0.93,-31.37 c 0,0 0.63,-0.9 0.61,-1.24 -0.02,-0.32 -0.68,-1.07 -0.68,-1.07 l -0.04,-1.32 -12.37,0.61 0.02,1.37 c 0,0 -0.66,0.76 -0.67,1.08 -0.01,0.36 0.71,1.24 0.71,1.24 l 0.53,31.86 -28.44,2.55 -0.49,-34.33 c 0,0 0.83,-0.87 0.81,-1.24 -0.02,-0.32 -0.84,-0.99 -0.84,-0.99 l -0.02,-1.41 -12.98,0.49 v 1.33 c 0,0 -0.97,0.85 -0.97,1.24 -0.01,0.41 0.98,1.32 0.98,1.32 l 0.13,34.79 c 0,0 -25.48,2.26 -25.75,2.26 -0.99,0 -4.24,-36.88 -4.24,-36.88 l -2.32,-10.59 -2.65,-36.41 -5.39,0.21 -0.49,4.18 -44.28,1.53 -3.78,-105.54 -1.99,-10.26 -3.31,5.96 -3.31,-16.55 -3.31,10.92 v -25.15 h -3.97 l -3.64,-39.71 -4.96,38.39 -5.3,-0.33 -17.16,-151.59 0.06,-0.11 c 0.35,-0.61 0.25,-1.38 -0.26,-1.87 l -0.03,-0.03 -0.15,-1.28 -0.23,1.28 -0.13,0.11 c -0.46,0.41 -0.59,1.07 -0.31,1.62 l 0.14,0.28 -24.3,152.58 -4.96,-38.06 -8.6,38.39 -8.6,26.81 -2.98,17.88 -4.96,114.79 -17.87,2.74 v -11.11 l -4.14,0.47 v 11.46 l -24.82,2.97 v -11.11 l -3.97,0.24 v 11.46 l -26.48,2.71 v -11.23 l -4.63,0.62 v 11.46 l -23.72,2.98 -0.11,-12.13 -4.14,0.38 v 12.33 l -26.31,2.43 V 367.1 l -3.81,0.66 v 11.46 L 377.7,381 v -31.11 c 0,0 3.16,-0.66 3.64,-2.23 0.31,-1.01 0,-3.06 0,-3.06 l -5.3,-0.99 V 316.8 h -25.15 v -67.52 h 3.64 v -2.64 h -6.62 v -40.72 -3.64 -6.29 -4.3 -7.28 l -0.53,0.02 -2.26,-3.67 -1.95,3.86 -0.62,0.03 v 6.38 4.96 5.63 3.64 4.88 l -4.56,0.12 v -4.34 -4.3 -6.29 -4.63 -5.79 l -0.47,0.02 -1.89,-4.15 -1.8,4.29 -0.47,0.02 v 5.27 4.96 6.29 4.3 4.51 l -3.64,0.18 v -5.69 -3.97 -5.63 -5.3 -4.79 l -0.45,0.01 -2.02,-4.32 -1.61,4.43 -0.53,0.02 v 5.31 4.63 5.63 4.3 5.63 l -4.66,0.08 v -5.05 -4.3 -5.3 -5.3 -5.55 l -0.55,0.02 -2.02,-4.37 -2.01,4.51 -0.72,0.02 v 6.7 4.63 5.96 3.64 40.06 h -6.29 v 2.64 h 3.64 v 49.97 17.54 h -33.1 l -0.3,-14.43 -11.24,-0.13 0.31,-52.95 h 2.95 v -2.64 h -6.62 v -40.06 -3.97 -4.96 -7.28 -4.53 l -0.84,0.03 -2.23,-4.59 -1.83,4.72 -0.72,0.02 v 4.03 7.61 4.3 4.96 4.23 l -4.63,0.18 v -3.42 -5.63 -5.3 -6.95 -3.85 l -0.7,0.03 -1.46,-4.77 -1.15,4.89 -0.67,0.03 v 4 6.62 5.63 4.96 3.93 l -3.97,0.18 v -4.77 -4.63 -4.96 -6.95 -3.82 l -0.6,0.02 -1.86,-4.94 -1.55,5.07 -0.62,0.02 v 3.98 6.62 4.63 5.3 4.61 l -3.97,0.18 v -5.78 -4.63 -4.3 -6.62 -3.8 l -0.74,0.03 -1.74,-5.12 -1.24,5.24 -0.91,0.03 v 3.29 5.96 5.96 4.3 40.06 h -7.61 v 2.64 h 2.65 v 53.28 l -10.92,-0.33 v 7.54 H 206.6 v 113.26 l -8.94,-1.32 c 0,0 -8.32,-9.22 -9.3,-13.24 -0.63,-2.59 -0.79,-35.4 -0.63,-46.67 0.01,-0.55 1.85,-1.12 1.85,-1.12 l -0.2,-0.9 -1.65,-0.62 -7.94,-30.12 -7.61,30.05 -1.82,0.73 v 1.49 l 1.65,0.33 v 43.85 c -2.57,16.03 -17.71,17.58 -17.71,17.58 l -33.24,-0.4 -0.39,-13.36 h -6.41 l -0.17,-6.78 h -6.95 v 6.78 h -3.04 v -6.78 h -5.4 v 6.78 h -3.8 v -6.78 h -6.45 l -0.3,6.78 h -2.34 l -0.05,5.13 -28.76,0.32 v 4.77 l -14.89,-0.17 -8.94,-6.09 v -36.74 l -1.82,-0.07 -4.83,-27.4 -5.26,27.03 -1.65,-0.06 -1.22,20.98 c -0.07,1.18 -0.65,2.27 -1.59,2.98 l -3.62,2.75 C 11.8,403.79 0,408.47 0,408.47 l -4.75,188.31 h 1204.69 z"
   id="path932" />
<path
   d="M 1204.69,400.75"
   id="path934" />
<path
   d="M 1154.96,398.22"
   id="path936" />
<path
   d="m 1131.92,397.04 29.43,-8.76 18.99,-121.05 24.34,121.05 5.72,3.16 8.7,-5.54 h 35.6 v -6.33 h 8.7 v 6.33 l 44.31,1.58 9.49,-4.75 7.91,-13.45 56.97,1.58 v -7.91 h 10.29 v 3.96 l 31.65,-0.79 v -14.24 l -2.57,-0.13 v -2.24 l 2.57,-0.26 v -16.88 h 4.35 l 2.18,-11.11 1.59,0.02 1.38,11.09 h 2.37 V 269.8 l 1.58,2.51 7.91,-0.33 9.49,-83.87 11.02,84.16 5.02,0.19 2.16,-2.27 v 62.18 h 3.17 l 1.98,-11.09 1.97,-0.03 1.4,11.12 h 3.21 v 16.88 l 3.56,0.27 -0.13,2.84 -3.29,0.13 0.79,29.47 h 5.54 v -6.33 h 27.69 v -7.91 l -3.08,-0.18 0.05,-2.59 3.03,-0.13 v -8.18 h 19.78 v -8.7 H 1553 v 8.7 h 8.7 v 40.4 h 17.41 v -33.28 h 12.66 v -14.24 l 5.54,-17.41 h 4.75 l 8.7,-87.03 8.7,87.82 h 5.54 l 3.96,15.82 v 13.45 h 11.87 v 13.45 l 14.24,0.79 v -51.43 l -1.98,-0.2 v -3.73 l 1.98,0.2 v -12.09 l -5.27,-3.16 5.27,-3.96 V 257.6 l 10.15,-42.2 9.63,42.2 v 28.62 h 11.87 v -40.35 l 9.23,-28.09 8.18,28.09 v 40.35 h 5.14 V 245.6 l 4.35,-27.82 7.78,34.15 5.46,-33.51 5.88,27.18 0.66,40.62 h 7.12 v -41.67 l 6.73,-24.53 7.52,24.13 v 42.07 h 15.16 V 257.6 l 8.84,-42.73 9.23,42.73 v 44.44 l 4.75,3.96 -5.54,3.16 v 12.09 h 2.77 v 3.73 H 1788 l 0.79,59.34 16.62,5.54 h 18.99 V 341.6 l 16.62,0.79 v 17.41 h 14.24 l 0.2,-38.54 h 2.18 l 1.78,-8.14 1.78,8.14 h 1.98 v 37.75 l 11.08,-1.58 v -8.7 H 1898 l 15.82,8.7 10.29,12.66 4.75,17.41 19.78,0.79 v -18.2 l 5.54,-9.49 5.54,11.08 v 16.62 h 15.82 v -11.08 l 12.66,-0.79 v 6.33 l 4.75,-6.33 h 12.66 v 7.12 h 11.87 V 378 h 7.91 l 5.54,-2.37 v 9.49 h 19.78 l 18.99,-22.15 h 7.91 v 5.54 h 7.12 l 0.26,-21.63 7.91,-11.6 2.11,-21.36 2.37,20.84 7.12,11.6 v 19.78 l 6.33,-1.58 15.03,13.45 v -14.24 l 6.33,-8.7 v -15.03 l 4.75,-7.91 3.96,7.91 v 15.82 l 6.33,7.91 v 22.95 h 45.1 v -23.74 h 8.7 v 24.53 l 11.87,-1.58 v 11.13 l 49.85,-3.22 v -9.49 l 7.12,-14.24 4.75,14.24 v 12.71 h 30.07 l 8.7,-9.55 9.49,4.75 7.91,4.8 h 11.87 l 4.75,-4.01 h 92.57 v -4.75 h 7.12 v -38.77 l 4.75,-4.75 v -45.1 l 2.77,-26.51 4.35,26.51 h 3.86 l 1.87,-15.63 2.97,15.63 h 3.87 l 2.46,-25.52 3.96,25.52 v 26.9 l 4.75,4.75 6.33,-4.75 v -26.9 l 3.56,-14.04 4.35,14.04 v 26.9 l 6.33,4.75 4.75,-4.75 v -26.9 l 2.95,-14.04 4.17,14.04 v 26.9 l 4.75,4.75 5.54,-4.75 v -26.9 l 3.76,-23.54 3.76,23.54 h 5.54 l 1.71,-13.23 3.04,13.23 h 3.96 l 2.97,-23.54 2.97,23.54 v 49.05 l 3.16,4.75 v 23.74 l 8.7,10.29 7.91,3.96 103.65,1.58 3.96,-5.54 15.03,0.79 26.11,-20.57 41.93,29.33 h 35.6 l 8.7,13.4 h 11.08 l 7.91,-3.96 8.7,-0.79 4.75,4.75 6.33,-7.12 15.82,7.12 29.27,-23.74 22.15,13.45 30.86,5.54 h 30.07 l 13.45,-0.79 V 388.3 l 15.82,-95.74 14.24,91.78 v 16.62 h 25.32 l 3.96,-20.57 h 16.62 v -7.12 l 18.2,-10.29 13.45,-1.58 v -37.98 l 3.96,-19.78 4.75,11.87 3.16,-12.66 20.57,-28.48 v -35.6 l 5.54,0.79 v 35.6 l 18.2,24.13 v 13.85 l 6.33,0.79 V 306 l 4.75,0.79 v 74.37 l 11.87,10.29 19.78,11.87 19.78,7.12 v -43.52 l 4.75,-0.79 V 324.2 l 9.49,-0.79 18.99,-90.99 21.36,89.41 h 8.7 v 92.57 l 13.45,10.29 23.74,3.96 21.36,-7.12 18.2,-21.36 22.15,-16.62 c 0,0 7.91,-0.79 7.91,-3.16 0,-2.37 3.96,-49.05 3.96,-49.05 l 16.62,0.79 v 35.6 l 11.08,0.79 v -7.12 h 22.15 l 3.17,-15.82 3.96,16.62 h 18.99 l 5.54,6.33 11.08,-4.75 v -31.65 l 6.33,-0.79 v 7.12 l 4.75,-0.79 v -6.33 l 7.91,0.79 v 64.88 h 7.12 v 26.9 c 0,0 18.2,13.45 26.11,13.45 7.91,0 55.38,3.16 62.51,0 7.12,-3.16 6.33,-23.74 6.33,-23.74 0,0 14.24,-6.33 18.2,-5.54 3.96,0.79 24.53,3.16 24.53,3.16 l 19.78,4.75 V 599.56 L 1131.99,596.4 Z"
   id="path938" />
</svg>
