<?xml version="1.0" encoding="UTF-8" standalone="no"?>
<svg
   id="Layer_1"
   data-name="Layer 1"
   viewBox="0 0 655.72 386.73"
   version="1.1"
   sodipodi:docname="extened_logo_new2.svg"
   inkscape:version="1.3.2 (091e20e, 2023-11-25, custom)"
   xmlns:inkscape="http://www.inkscape.org/namespaces/inkscape"
   xmlns:sodipodi="http://sodipodi.sourceforge.net/DTD/sodipodi-0.dtd"
   xmlns="http://www.w3.org/2000/svg"
   xmlns:svg="http://www.w3.org/2000/svg"
   xmlns:rdf="http://www.w3.org/1999/02/22-rdf-syntax-ns#"
   xmlns:cc="http://creativecommons.org/ns#"
   xmlns:dc="http://purl.org/dc/elements/1.1/">
  <sodipodi:namedview
     id="namedview1"
     pagecolor="#ffffff"
     bordercolor="#000000"
     borderopacity="0.25"
     inkscape:showpageshadow="2"
     inkscape:pageopacity="0.0"
     inkscape:pagecheckerboard="0"
     inkscape:deskcolor="#d1d1d1"
     inkscape:zoom="0.88299888"
     inkscape:cx="108.72041"
     inkscape:cy="152.32182"
     inkscape:window-width="1920"
     inkscape:window-height="1009"
     inkscape:window-x="-8"
     inkscape:window-y="-8"
     inkscape:window-maximized="1"
     inkscape:current-layer="Layer_1" />
  <defs
     id="defs1">
    <style
       id="style1">.cls-1{isolation:isolate;}.cls-2,.cls-5{fill:none;stroke:#65c8d0;stroke-miterlimit:10;}.cls-2{stroke-width:8px;}.cls-3{fill:#65c8d0;}.cls-4{fill:#00687f;}.cls-5{stroke-width:7px;}</style>
  </defs>
  <title
     id="title1">extened_logo</title>
  <g
     class="cls-1"
     id="g13">
    <g
       class="cls-1"
       id="g1">
      <path
         d="M95.2,70C95.2,97,76,119,49,119H12.18V21H49C76,21,95.2,43,95.2,70Zm-7.28,0C87.92,46.76,72.1,28,49,28H19.6v84H49C72.1,112,87.92,93.24,87.92,70Z"
         transform="translate(-6.3 -16)"
         id="path1" />
    </g>
    <g
       class="cls-1"
       id="g2">
      <path
         d="M141.12,48v6.72c-12,0-23.38,7.42-23.38,25.34V119h-7V49h7V62.72C122.5,51.66,131.6,48,141.12,48Z"
         transform="translate(-6.3 -16)"
         id="path2" />
    </g>
    <g
       class="cls-1"
       id="g5">
      <path
         d="M215.32,84.28c0,1.12-.14,2.24-.14,3.36H151.76c1.68,15.82,13.72,26.18,29.68,26.18,11.48,0,20.16-5.32,24.22-12.74l6.16,3.64c-5.74,9.52-16.66,15.82-30.52,15.82-21.56,0-36.82-15.4-36.82-36.54,0-20.58,14.84-36.54,36.26-36.54S215.32,65.1,215.32,84.28Zm-63.56-3.5H208c-1.54-17.08-13.58-26.6-27.3-26.6C164.78,54.18,153.16,65.24,151.76,80.78Z"
         transform="translate(-6.3 -16)"
         id="path3" />
      <path
         d="M299,49v70H291.9V103.18a33.66,33.66,0,0,1-30.1,17.36,36.54,36.54,0,0,1,0-73.08,33.66,33.66,0,0,1,30.1,17.36V49ZM291.9,84c0-16.66-12.88-29.82-29.54-29.82a29.82,29.82,0,0,0,0,59.64C279,113.82,291.9,100.66,291.9,84Z"
         transform="translate(-6.3 -16)"
         id="path4" />
      <path
         d="M419.44,74.62V119h-7V74.62c0-13.3-7.7-20.44-18.62-20.44-11.76,0-21,7.84-21,25.76V119h-7V74.62c0-13.3-7.14-20.44-17.92-20.44-11.48,0-21.7,7.84-21.7,25.76V119h-7V49h7V61c5.18-9.66,13.58-13.58,22.54-13.58,10.22,0,18.2,5,21.84,14.28A25.51,25.51,0,0,1,394,47.46C408.8,47.46,419.44,57.12,419.44,74.62Z"
         transform="translate(-6.3 -16)"
         id="path5" />
    </g>
    <g
       class="cls-1"
       id="g7">
      <path
         d="M526.11,75.46V119H519V75.46c0-12.88-7.42-21.28-20.58-21.28-13.72,0-24.5,9-24.5,27.86v37h-7V49h7V62.3c5.32-10.36,14.28-14.84,25.06-14.84C515.61,47.46,526.11,58.52,526.11,75.46Z"
         transform="translate(-6.3 -16)"
         id="path6" />
      <path
         d="M613.61,49v66.64c0,21-15.54,32.9-34.86,32.9-16.38,0-28-6.58-33-16.8l6.16-3.5c3.64,7.42,11.48,13.58,26.88,13.58,17.5,0,27.86-10.22,27.86-26.18V102.76c-5.74,10.78-16.52,17.78-30.1,17.78A36.06,36.06,0,0,1,540.25,84a36.06,36.06,0,0,1,36.26-36.54c13.58,0,24.36,7,30.1,17.78V49Zm-7,35a29.68,29.68,0,1,0-29.68,29.82A29.46,29.46,0,0,0,606.61,84Z"
         transform="translate(-6.3 -16)"
         id="path7" />
    </g>
    <g
       class="cls-1"
       id="g9">
      <path
         d="M6.3,222.44l6.44-3.78C16.1,230.42,26,238.4,42.14,238.4c16.38,0,24.64-8.4,24.64-19.6,0-11.76-10.36-16.24-25.34-21-16.38-5.32-31.08-9.94-31.08-27,0-16.1,13-26.32,29.68-26.32,16.1,0,26.74,9.24,31.5,20.58l-6.3,3.5C61.6,159.72,54,151.6,40,151.6c-13.58,0-22.12,8-22.12,18.9,0,11.76,9.94,15.4,23.94,20,17.36,5.74,32.48,11.2,32.48,28.14,0,16.24-12.74,26.88-32.2,26.88C23.8,245.54,10.78,236.3,6.3,222.44Z"
         transform="translate(-6.3 -16)"
         id="path8" />
      <path
         d="M161.7,209a36.06,36.06,0,0,1-36.26,36.54c-13.58,0-24.36-7-30.1-17.78V272h-7V174h7v16.24c5.74-10.78,16.52-17.78,30.1-17.78A36.06,36.06,0,0,1,161.7,209Zm-7,0A29.68,29.68,0,1,0,125,238.82,29.46,29.46,0,0,0,154.7,209Z"
         transform="translate(-6.3 -16)"
         id="path9" />
    </g>
    <g
       class="cls-1"
       id="g10">
      <path
         d="M238,173v6.72c-12,0-23.38,7.42-23.38,25.34V244h-7V174h7v13.72C219.38,176.66,228.48,173,238,173Z"
         transform="translate(-6.3 -16)"
         id="path10" />
    </g>
    <g
       class="cls-1"
       id="g11">
      <path
         d="M311.92,209.28c0,1.12-.14,2.24-.14,3.36H248.36c1.68,15.82,13.72,26.18,29.68,26.18,11.48,0,20.16-5.32,24.22-12.74l6.16,3.64c-5.74,9.52-16.66,15.82-30.52,15.82-21.56,0-36.82-15.4-36.82-36.54,0-20.58,14.84-36.54,36.26-36.54S311.92,190.1,311.92,209.28Zm-63.56-3.5h56.28c-1.54-17.08-13.58-26.6-27.3-26.6C261.38,179.18,249.76,190.24,248.36,205.78Z"
         transform="translate(-6.3 -16)"
         id="path11" />
    </g>
    <g
       class="cls-1"
       id="g12">
      <path
         d="M370.58,225.66c0,11.48-10.08,19.88-25.06,19.88-14,0-23.24-6.58-26.6-15.54l6-3.5c2.52,7.56,10.08,12.32,20.58,12.32,9.8,0,18.06-4.34,18.06-13.16,0-19-42.42-8.12-42.42-33.32,0-11.06,9.52-19.88,23.8-19.88,11.34,0,20,5.46,23.8,14l-5.88,3.36c-2.94-7.28-10.22-10.64-17.92-10.64-9.1,0-16.8,4.76-16.8,13.16C328.16,211.1,370.58,200,370.58,225.66Z"
         transform="translate(-6.3 -16)"
         id="path12" />
    </g>
  </g>
  <path
     class="cls-2"
     d="M444.28,30.17V267.44a9.07,9.07,0,0,1-9.07,9.07H193.05a9.07,9.07,0,0,1-9.07-9.07h0V150.64"
     transform="translate(-6.3 -16)"
     id="path13" />
  <circle
     class="cls-3"
     cx="177.68"
     cy="139.34"
     r="14.17"
     id="circle13" />
  <circle
     class="cls-3"
     cx="437.98"
     cy="14.17"
     r="14.17"
     id="circle14" />
  <path
     class="cls-5"
     d="M634.52,325.3l21.06.39a3,3,0,0,1,2.94,3v23.95a3,3,0,0,1-3,3l-455.27,1.08a4,4,0,0,0-4,4v20.53a3,3,0,0,0,2.86,2.94l21.14.6"
     transform="translate(-6.3 -16)"
     id="path56" />
  <circle
     class="cls-3"
     cx="630.22"
     cy="309.3"
     r="8.5"
     id="circle56" />
  <circle
     class="cls-3"
     cx="212.13"
     cy="368.78"
     r="8.5"
     id="circle57" />
  <text
     xml:space="preserve"
     style="font-size:36.6594px;font-family:'Univers Next Typewriter Pro';-inkscape-font-specification:'Univers Next Typewriter Pro';display:inline;fill:#00687f;fill-opacity:1;stroke:#00687f;stroke-width:0.3;stroke-dasharray:none;stroke-opacity:1"
     x="-0.12087405"
     y="624.47064"
     id="text57"
     transform="scale(0.98194893,1.0183829)"><tspan
       id="tspan57"
       x="0.3378014"
       y="312.06815"
       style="font-size:36.6594px;fill:#00687f;fill-opacity:1;stroke:#00687f;stroke-width:0.3;stroke-dasharray:none;stroke-opacity:1">&lt;Bringing software solutions</tspan></text>
  <text
     xml:space="preserve"
     style="font-size:36.6594px;font-family:'Univers Next Typewriter Pro';-inkscape-font-specification:'Univers Next Typewriter Pro';display:inline;fill:#00687f;fill-opacity:1;stroke:#00687f;stroke-width:0.3;stroke-dasharray:none;stroke-opacity:1"
     x="481.29019"
     y="744.01758"
     id="text57-4"
     transform="scale(0.98194893,1.0183829)"><tspan
       id="tspan57-2"
       x="240.16107"
       y="371.98453"
       style="font-size:36.6594px;fill:#00687f;fill-opacity:1;stroke:#00687f;stroke-width:0.3;stroke-dasharray:none;stroke-opacity:1">to your research/&gt;</tspan></text>
  <metadata
     id="metadata57">
    <rdf:RDF>
      <cc:Work
         rdf:about="">
        <dc:title>extened_logo</dc:title>
      </cc:Work>
    </rdf:RDF>
  </metadata>
</svg>
