<svg id="Layer_1" data-name="Layer 1" xmlns="http://www.w3.org/2000/svg" viewBox="0 0 655.72 386.73"><defs><style>.cls-1{isolation:isolate;}.cls-2,.cls-5{fill:none;stroke:#65c8d0;stroke-miterlimit:10;}.cls-2{stroke-width:8px;}.cls-3{fill:#65c8d0;}.cls-4{fill:#00687f;}.cls-5{stroke-width:7px;}</style></defs><title>extened_logo</title><g class="cls-1"><g class="cls-1"><path d="M95.2,70C95.2,97,76,119,49,119H12.18V21H49C76,21,95.2,43,95.2,70Zm-7.28,0C87.92,46.76,72.1,28,49,28H19.6v84H49C72.1,112,87.92,93.24,87.92,70Z" transform="translate(-6.3 -16)"/></g><g class="cls-1"><path d="M141.12,48v6.72c-12,0-23.38,7.42-23.38,25.34V119h-7V49h7V62.72C122.5,51.66,131.6,48,141.12,48Z" transform="translate(-6.3 -16)"/></g><g class="cls-1"><path d="M215.32,84.28c0,1.12-.14,2.24-.14,3.36H151.76c1.68,15.82,13.72,26.18,29.68,26.18,11.48,0,20.16-5.32,24.22-12.74l6.16,3.64c-5.74,9.52-16.66,15.82-30.52,15.82-21.56,0-36.82-15.4-36.82-36.54,0-20.58,14.84-36.54,36.26-36.54S215.32,65.1,215.32,84.28Zm-63.56-3.5H208c-1.54-17.08-13.58-26.6-27.3-26.6C164.78,54.18,153.16,65.24,151.76,80.78Z" transform="translate(-6.3 -16)"/><path d="M299,49v70H291.9V103.18a33.66,33.66,0,0,1-30.1,17.36,36.54,36.54,0,0,1,0-73.08,33.66,33.66,0,0,1,30.1,17.36V49ZM291.9,84c0-16.66-12.88-29.82-29.54-29.82a29.82,29.82,0,0,0,0,59.64C279,113.82,291.9,100.66,291.9,84Z" transform="translate(-6.3 -16)"/><path d="M419.44,74.62V119h-7V74.62c0-13.3-7.7-20.44-18.62-20.44-11.76,0-21,7.84-21,25.76V119h-7V74.62c0-13.3-7.14-20.44-17.92-20.44-11.48,0-21.7,7.84-21.7,25.76V119h-7V49h7V61c5.18-9.66,13.58-13.58,22.54-13.58,10.22,0,18.2,5,21.84,14.28A25.51,25.51,0,0,1,394,47.46C408.8,47.46,419.44,57.12,419.44,74.62Z" transform="translate(-6.3 -16)"/></g><g class="cls-1"><path d="M526.11,75.46V119H519V75.46c0-12.88-7.42-21.28-20.58-21.28-13.72,0-24.5,9-24.5,27.86v37h-7V49h7V62.3c5.32-10.36,14.28-14.84,25.06-14.84C515.61,47.46,526.11,58.52,526.11,75.46Z" transform="translate(-6.3 -16)"/><path d="M613.61,49v66.64c0,21-15.54,32.9-34.86,32.9-16.38,0-28-6.58-33-16.8l6.16-3.5c3.64,7.42,11.48,13.58,26.88,13.58,17.5,0,27.86-10.22,27.86-26.18V102.76c-5.74,10.78-16.52,17.78-30.1,17.78A36.06,36.06,0,0,1,540.25,84a36.06,36.06,0,0,1,36.26-36.54c13.58,0,24.36,7,30.1,17.78V49Zm-7,35a29.68,29.68,0,1,0-29.68,29.82A29.46,29.46,0,0,0,606.61,84Z" transform="translate(-6.3 -16)"/></g><g class="cls-1"><path d="M6.3,222.44l6.44-3.78C16.1,230.42,26,238.4,42.14,238.4c16.38,0,24.64-8.4,24.64-19.6,0-11.76-10.36-16.24-25.34-21-16.38-5.32-31.08-9.94-31.08-27,0-16.1,13-26.32,29.68-26.32,16.1,0,26.74,9.24,31.5,20.58l-6.3,3.5C61.6,159.72,54,151.6,40,151.6c-13.58,0-22.12,8-22.12,18.9,0,11.76,9.94,15.4,23.94,20,17.36,5.74,32.48,11.2,32.48,28.14,0,16.24-12.74,26.88-32.2,26.88C23.8,245.54,10.78,236.3,6.3,222.44Z" transform="translate(-6.3 -16)"/><path d="M161.7,209a36.06,36.06,0,0,1-36.26,36.54c-13.58,0-24.36-7-30.1-17.78V272h-7V174h7v16.24c5.74-10.78,16.52-17.78,30.1-17.78A36.06,36.06,0,0,1,161.7,209Zm-7,0A29.68,29.68,0,1,0,125,238.82,29.46,29.46,0,0,0,154.7,209Z" transform="translate(-6.3 -16)"/></g><g class="cls-1"><path d="M238,173v6.72c-12,0-23.38,7.42-23.38,25.34V244h-7V174h7v13.72C219.38,176.66,228.48,173,238,173Z" transform="translate(-6.3 -16)"/></g><g class="cls-1"><path d="M311.92,209.28c0,1.12-.14,2.24-.14,3.36H248.36c1.68,15.82,13.72,26.18,29.68,26.18,11.48,0,20.16-5.32,24.22-12.74l6.16,3.64c-5.74,9.52-16.66,15.82-30.52,15.82-21.56,0-36.82-15.4-36.82-36.54,0-20.58,14.84-36.54,36.26-36.54S311.92,190.1,311.92,209.28Zm-63.56-3.5h56.28c-1.54-17.08-13.58-26.6-27.3-26.6C261.38,179.18,249.76,190.24,248.36,205.78Z" transform="translate(-6.3 -16)"/></g><g class="cls-1"><path d="M370.58,225.66c0,11.48-10.08,19.88-25.06,19.88-14,0-23.24-6.58-26.6-15.54l6-3.5c2.52,7.56,10.08,12.32,20.58,12.32,9.8,0,18.06-4.34,18.06-13.16,0-19-42.42-8.12-42.42-33.32,0-11.06,9.52-19.88,23.8-19.88,11.34,0,20,5.46,23.8,14l-5.88,3.36c-2.94-7.28-10.22-10.64-17.92-10.64-9.1,0-16.8,4.76-16.8,13.16C328.16,211.1,370.58,200,370.58,225.66Z" transform="translate(-6.3 -16)"/></g></g><path class="cls-2" d="M444.28,30.17V267.44a9.07,9.07,0,0,1-9.07,9.07H193.05a9.07,9.07,0,0,1-9.07-9.07h0V150.64" transform="translate(-6.3 -16)"/><circle class="cls-3" cx="177.68" cy="139.34" r="14.17"/><circle class="cls-3" cx="437.98" cy="14.17" r="14.17"/><g class="cls-1"><g class="cls-1"><path class="cls-4" d="M7.08,325.41V322.5l18.58-7.35v3.2L10.72,324l14.94,5.57v3.22Z" transform="translate(-6.3 -16)"/><path class="cls-4" d="M30.12,309h7.77a9.81,9.81,0,0,1,6.21,1.74,6,6,0,0,1,2.18,4.94,7.16,7.16,0,0,1-.3,2.17,4.85,4.85,0,0,1-.85,1.61,4.68,4.68,0,0,1-1.42,1.11,6.44,6.44,0,0,1-2,.63,6.23,6.23,0,0,1,4.06,2.19,6.45,6.45,0,0,1,1.09,2.06,8.42,8.42,0,0,1,.37,2.6,6.35,6.35,0,0,1-2.34,5.36q-2.35,1.83-7,1.83H30.12Zm7.7,10.82a8.87,8.87,0,0,0,2.24-.24,3.75,3.75,0,0,0,1.49-.76,3.88,3.88,0,0,0,1.14-3.11,4.83,4.83,0,0,0-.28-1.77,2.73,2.73,0,0,0-.85-1.15,6.23,6.23,0,0,0-3.74-.88H33.69v7.91Zm.07,12.5a7,7,0,0,0,4.41-1.09,4.32,4.32,0,0,0,1.32-3.55,4.75,4.75,0,0,0-1.39-3.78,6.62,6.62,0,0,0-4.34-1.19h-4.2v9.61Z" transform="translate(-6.3 -16)"/><path class="cls-4" d="M54.19,315.55h2.93l.32,3.85a6.74,6.74,0,0,1,2.49-3.21,7,7,0,0,1,4-1.11,8.16,8.16,0,0,1,2.25.3,7,7,0,0,1,1,.37,7.18,7.18,0,0,1,1,.56v3.3A6.71,6.71,0,0,0,66,318.44a7.29,7.29,0,0,0-2.38-.37A5.68,5.68,0,0,0,59,320a8.27,8.27,0,0,0-1.6,5.49v9.79H54.19Z" transform="translate(-6.3 -16)"/><path class="cls-4" d="M85.65,335.38a6.86,6.86,0,0,1-2.52-.44,4.92,4.92,0,0,1-2-1.42,7.84,7.84,0,0,1-1.6-5.28V318.08H75.26v-2.53H82.8v12.69a5.5,5.5,0,0,0,.81,3.29,2.55,2.55,0,0,0,1,.85,3.39,3.39,0,0,0,1.35.26h3.78v2.74ZM79.74,312a.46.46,0,0,1-.52-.52v-3a.46.46,0,0,1,.52-.53h2.54a.46.46,0,0,1,.52.53v3a.46.46,0,0,1-.52.52Z" transform="translate(-6.3 -16)"/><path class="cls-4" d="M95.65,315.55h2.92l.32,3a6,6,0,0,1,2.34-2.57,6.75,6.75,0,0,1,3.48-.86,6.42,6.42,0,0,1,2.69.51,4.72,4.72,0,0,1,1.82,1.46q1.48,2,1.48,6v12.2h-3.25V323a6.55,6.55,0,0,0-.93-3.9,3.43,3.43,0,0,0-2.94-1.25,4.8,4.8,0,0,0-2,.4,3.88,3.88,0,0,0-1.45,1.2,7.48,7.48,0,0,0-1.23,4.62v11.13H95.65Z" transform="translate(-6.3 -16)"/><path class="cls-4" d="M124.46,343c-.45,0-.91,0-1.37-.06s-.93-.1-1.42-.18-1-.18-1.43-.3-1-.26-1.49-.42v-3.2c.57.27,1.13.5,1.66.7s1,.37,1.47.49a9.66,9.66,0,0,0,2.65.39,6.31,6.31,0,0,0,2.22-.35,3.74,3.74,0,0,0,1.53-1.09,6.94,6.94,0,0,0,1.19-4.5v-2.34a5.4,5.4,0,0,1-2.11,2.46,6.1,6.1,0,0,1-3.23.81,6.53,6.53,0,0,1-5.52-2.76,14.29,14.29,0,0,1,0-14.78,6.82,6.82,0,0,1,2.4-2.08,7,7,0,0,1,3.14-.68,7.73,7.73,0,0,1,1.71.18,5.91,5.91,0,0,1,1.47.57,5.61,5.61,0,0,1,2.14,2.34l.32-2.55h2.92V334c0,2.95-.7,5.18-2.09,6.72S127.18,343,124.46,343Zm.37-10.28a3.83,3.83,0,0,0,3.47-1.91,10.75,10.75,0,0,0,1.17-5.54,10.62,10.62,0,0,0-1.17-5.54,3.7,3.7,0,0,0-1.51-1.44,4.43,4.43,0,0,0-2-.44,4.06,4.06,0,0,0-3.6,1.88,12.81,12.81,0,0,0,0,11.08A4.07,4.07,0,0,0,124.83,332.69Z" transform="translate(-6.3 -16)"/><path class="cls-4" d="M150.67,335.38a6.86,6.86,0,0,1-2.52-.44,5,5,0,0,1-2-1.42,7.84,7.84,0,0,1-1.6-5.28V318.08h-4.31v-2.53h7.54v12.69a5.5,5.5,0,0,0,.81,3.29,2.55,2.55,0,0,0,1,.85,3.39,3.39,0,0,0,1.35.26h3.78v2.74Zm-5.9-23.4a.46.46,0,0,1-.53-.52v-3a.46.46,0,0,1,.53-.53h2.53a.46.46,0,0,1,.52.53v3a.46.46,0,0,1-.52.52Z" transform="translate(-6.3 -16)"/><path class="cls-4" d="M160.67,315.55h2.92l.32,3a6,6,0,0,1,2.34-2.57,6.75,6.75,0,0,1,3.48-.86,6.42,6.42,0,0,1,2.69.51,4.72,4.72,0,0,1,1.82,1.46q1.48,2,1.48,6v12.2h-3.25V323a6.55,6.55,0,0,0-.93-3.9,3.43,3.43,0,0,0-2.94-1.25,4.8,4.8,0,0,0-2,.4,3.88,3.88,0,0,0-1.45,1.2,7.48,7.48,0,0,0-1.23,4.62v11.13h-3.24Z" transform="translate(-6.3 -16)"/><path class="cls-4" d="M189.48,343c-.45,0-.91,0-1.37-.06s-.93-.1-1.42-.18-1-.18-1.43-.3-1-.26-1.49-.42v-3.2c.58.27,1.13.5,1.66.7s1,.37,1.47.49a9.68,9.68,0,0,0,2.66.39,6.29,6.29,0,0,0,2.21-.35A3.74,3.74,0,0,0,193.3,339a6.88,6.88,0,0,0,1.19-4.5v-2.34a5.44,5.44,0,0,1-2.1,2.46,6.16,6.16,0,0,1-3.24.81,6.53,6.53,0,0,1-5.52-2.76,14.29,14.29,0,0,1,0-14.78,6.82,6.82,0,0,1,2.4-2.08,7,7,0,0,1,3.14-.68,7.73,7.73,0,0,1,1.71.18,5.76,5.76,0,0,1,1.47.57,5.55,5.55,0,0,1,2.14,2.34l.32-2.55h2.92V334c0,2.95-.7,5.18-2.09,6.72S192.2,343,189.48,343Zm.37-10.28a3.83,3.83,0,0,0,3.47-1.91,10.75,10.75,0,0,0,1.17-5.54,10.62,10.62,0,0,0-1.17-5.54,3.64,3.64,0,0,0-1.51-1.44,4.42,4.42,0,0,0-2-.44,4.08,4.08,0,0,0-3.61,1.88,12.81,12.81,0,0,0,0,11.08A4.08,4.08,0,0,0,189.85,332.69Z" transform="translate(-6.3 -16)"/><path class="cls-4" d="M225.61,315.55h2.93l.32,2.52a5.69,5.69,0,0,1,2.16-2.24,6.25,6.25,0,0,1,3.11-.75,7.23,7.23,0,0,1,3.17.68,6.63,6.63,0,0,1,2.42,2.08,9.5,9.5,0,0,1,1.52,3.29,16.81,16.81,0,0,1,.5,4.32,12.46,12.46,0,0,1-2,7.56,6.59,6.59,0,0,1-5.59,2.74,6.83,6.83,0,0,1-1.74-.2A6.34,6.34,0,0,1,231,335a5.42,5.42,0,0,1-2.13-2.22v10h-3.25Zm8,17.46a3.86,3.86,0,0,0,3.53-1.92,14.24,14.24,0,0,0,0-11.35,3.86,3.86,0,0,0-3.53-1.92,4,4,0,0,0-3.57,1.92,10.77,10.77,0,0,0-1.21,5.67,10.66,10.66,0,0,0,1.21,5.66A4,4,0,0,0,233.64,333Z" transform="translate(-6.3 -16)"/><path class="cls-4" d="M249.25,315.55h2.94l.31,3.85a6.76,6.76,0,0,1,2.5-3.21,6.92,6.92,0,0,1,3.95-1.11,8.16,8.16,0,0,1,2.25.3,7,7,0,0,1,1,.37,6.62,6.62,0,0,1,1,.56v3.3a6.6,6.6,0,0,0-2.11-1.17,7.27,7.27,0,0,0-2.37-.37A5.7,5.7,0,0,0,254.1,320a8.32,8.32,0,0,0-1.6,5.49v9.79h-3.25Z" transform="translate(-6.3 -16)"/><path class="cls-4" d="M276.44,335.75a9.23,9.23,0,0,1-3.59-.66,6.77,6.77,0,0,1-2.66-2,8.87,8.87,0,0,1-1.64-3.31,16.9,16.9,0,0,1-.53-4.4q0-5,2.17-7.67a7.58,7.58,0,0,1,6.25-2.65,9.18,9.18,0,0,1,3.67.67,6.92,6.92,0,0,1,2.61,2q2.16,2.67,2.16,7.65a17.21,17.21,0,0,1-.53,4.46,8.66,8.66,0,0,1-1.63,3.27,6.6,6.6,0,0,1-2.63,2A9.18,9.18,0,0,1,276.44,335.75Zm0-2.74a4.2,4.2,0,0,0,3.75-1.94,10.34,10.34,0,0,0,1.26-5.66,10.45,10.45,0,0,0-1.26-5.67,4.59,4.59,0,0,0-7.47,0,10.35,10.35,0,0,0-1.27,5.67,10.25,10.25,0,0,0,1.27,5.66A4.16,4.16,0,0,0,276.44,333Z" transform="translate(-6.3 -16)"/><path class="cls-4" d="M297.85,343c-.45,0-.91,0-1.37-.06s-.93-.1-1.42-.18-1-.18-1.43-.3-1-.26-1.49-.42v-3.2c.58.27,1.13.5,1.66.7s1,.37,1.47.49a9.66,9.66,0,0,0,2.65.39,6.31,6.31,0,0,0,2.22-.35,3.74,3.74,0,0,0,1.53-1.09,6.88,6.88,0,0,0,1.19-4.5v-2.34a5.4,5.4,0,0,1-2.11,2.46,6.1,6.1,0,0,1-3.23.81,6.53,6.53,0,0,1-5.52-2.76,14.29,14.29,0,0,1,0-14.78,6.82,6.82,0,0,1,2.4-2.08,7,7,0,0,1,3.14-.68,7.73,7.73,0,0,1,1.71.18,5.91,5.91,0,0,1,1.47.57,5.61,5.61,0,0,1,2.14,2.34l.32-2.55h2.92V334c0,2.95-.7,5.18-2.09,6.72S300.57,343,297.85,343Zm.37-10.28a3.83,3.83,0,0,0,3.47-1.91,10.75,10.75,0,0,0,1.17-5.54,10.62,10.62,0,0,0-1.17-5.54,3.7,3.7,0,0,0-1.51-1.44,4.42,4.42,0,0,0-2-.44,4.08,4.08,0,0,0-3.61,1.88,12.81,12.81,0,0,0,0,11.08A4.07,4.07,0,0,0,298.22,332.69Z" transform="translate(-6.3 -16)"/><path class="cls-4" d="M314.27,315.55h2.94l.31,3.85a6.76,6.76,0,0,1,2.5-3.21,6.93,6.93,0,0,1,4-1.11,8.26,8.26,0,0,1,2.25.3,7.3,7.3,0,0,1,1,.37,6.62,6.62,0,0,1,1,.56v3.3a6.6,6.6,0,0,0-2.11-1.17,7.23,7.23,0,0,0-2.37-.37,5.72,5.72,0,0,0-4.61,1.89,8.32,8.32,0,0,0-1.6,5.49v9.79h-3.25Z" transform="translate(-6.3 -16)"/><path class="cls-4" d="M339.66,335.75a6.68,6.68,0,0,1-4.84-1.71,5.79,5.79,0,0,1-1.32-1.9,6.79,6.79,0,0,1-.47-2.65,5.93,5.93,0,0,1,2.21-5c1.46-1.14,3.61-1.71,6.47-1.71h4.34v-.51a6.14,6.14,0,0,0-.3-2,3.17,3.17,0,0,0-.89-1.42,3.71,3.71,0,0,0-1.53-.8,8.56,8.56,0,0,0-2.22-.26,12.54,12.54,0,0,0-3.35.47,14.13,14.13,0,0,0-3.29,1.39v-3.23c.49-.19,1-.38,1.63-.56s1.21-.35,1.82-.48a15.75,15.75,0,0,1,3.21-.33,13.14,13.14,0,0,1,2.27.18,9.33,9.33,0,0,1,1.9.56,8.15,8.15,0,0,1,1.54.88,5.83,5.83,0,0,1,1.24,1.24,5.16,5.16,0,0,1,.59,1.08,6.08,6.08,0,0,1,.35,1.1,19.4,19.4,0,0,1,.29,3.89v4c0,.68,0,1.28.05,1.8s.05,1,.1,1.44.13,1,.21,1.39.14.76.2,1a9.63,9.63,0,0,0,.28,1c.1.32.17.51.19.57h-3.25c-.06-.14-.13-.35-.22-.62s-.17-.58-.25-.91-.12-.52-.17-.78-.09-.49-.12-.68a5.89,5.89,0,0,1-1.3,1.57,9,9,0,0,1-1.58,1.09,7.42,7.42,0,0,1-1.78.64A9.93,9.93,0,0,1,339.66,335.75Zm.66-2.71a5.14,5.14,0,0,0,4.19-1.86,7.88,7.88,0,0,0,1.54-5.12v-.72H342a7.56,7.56,0,0,0-4.26,1,3,3,0,0,0-1.09,1.25,4.12,4.12,0,0,0-.35,1.74,4.26,4.26,0,0,0,.28,1.59,3.47,3.47,0,0,0,.79,1.15,4,4,0,0,0,1.24.72A5.08,5.08,0,0,0,340.32,333Z" transform="translate(-6.3 -16)"/><path class="cls-4" d="M354.23,315.55h2.65l.28,1.69a4.52,4.52,0,0,1,1.46-1.62,3.69,3.69,0,0,1,2-.54,3.85,3.85,0,0,1,2.21.61,4,4,0,0,1,1.37,1.87,4.4,4.4,0,0,1,1.53-1.88,4,4,0,0,1,2.22-.6,4.24,4.24,0,0,1,2.06.46,3.19,3.19,0,0,1,1.3,1.37c.64,1.22,1,3.52,1,6.92v11.41h-2.95V324c0-.75,0-1.4,0-2s0-1.05-.08-1.46-.1-.77-.15-1.06a2.67,2.67,0,0,0-.22-.69,1.52,1.52,0,0,0-.59-.73,2.06,2.06,0,0,0-1.15-.27A2.26,2.26,0,0,0,366,318a1.72,1.72,0,0,0-.72.82,5.54,5.54,0,0,0-.42,1.82c-.08.8-.13,1.9-.13,3.29v11.27h-2.95V324c0-.85,0-1.58,0-2.17s-.06-1.09-.11-1.48a6.57,6.57,0,0,0-.17-1,3.35,3.35,0,0,0-.2-.59,1.64,1.64,0,0,0-.66-.72,2.07,2.07,0,0,0-1.11-.26,2,2,0,0,0-1.16.29,1.79,1.79,0,0,0-.62.76,4.38,4.38,0,0,0-.22.67c-.06.27-.12.6-.17,1s-.08.89-.1,1.45,0,1.23,0,2v11.27h-2.93Z" transform="translate(-6.3 -16)"/><path class="cls-4" d="M375.9,315.55h2.66l.28,1.69a4.35,4.35,0,0,1,1.46-1.62,3.63,3.63,0,0,1,2-.54,3.89,3.89,0,0,1,2.22.61,4,4,0,0,1,1.37,1.87,4.4,4.4,0,0,1,1.53-1.88,4,4,0,0,1,2.21-.6,4.21,4.21,0,0,1,2.06.46,3.13,3.13,0,0,1,1.3,1.37c.64,1.22,1,3.52,1,6.92v11.41h-3V324c0-.75,0-1.4,0-2s0-1.05-.09-1.46a10,10,0,0,0-.15-1.06,3.18,3.18,0,0,0-.21-.69,1.6,1.6,0,0,0-.6-.73,2,2,0,0,0-1.14-.27,2.3,2.3,0,0,0-1.13.25,1.77,1.77,0,0,0-.72.82,5.54,5.54,0,0,0-.42,1.82c-.08.8-.12,1.9-.12,3.29v11.27h-3V324c0-.85,0-1.58,0-2.17s-.06-1.09-.11-1.48a6.77,6.77,0,0,0-.16-1,4.44,4.44,0,0,0-.2-.59,1.77,1.77,0,0,0-.66-.72,2.09,2.09,0,0,0-1.12-.26,1.92,1.92,0,0,0-1.15.29,1.74,1.74,0,0,0-.63.76,4.38,4.38,0,0,0-.22.67,8.29,8.29,0,0,0-.16,1c-.05.4-.08.89-.11,1.45s0,1.23,0,2v11.27H375.9Z" transform="translate(-6.3 -16)"/><path class="cls-4" d="M410.76,335.38a6.86,6.86,0,0,1-2.52-.44,4.92,4.92,0,0,1-2-1.42,7.84,7.84,0,0,1-1.6-5.28V318.08h-4.31v-2.53h7.54v12.69a5.5,5.5,0,0,0,.81,3.29,2.55,2.55,0,0,0,1,.85,3.35,3.35,0,0,0,1.35.26h3.77v2.74ZM404.85,312a.46.46,0,0,1-.52-.52v-3a.46.46,0,0,1,.52-.53h2.53a.46.46,0,0,1,.53.53v3a.46.46,0,0,1-.53.52Z" transform="translate(-6.3 -16)"/><path class="cls-4" d="M420.76,315.55h2.92l.32,3a6.09,6.09,0,0,1,2.33-2.57,6.8,6.8,0,0,1,3.48-.86,6.39,6.39,0,0,1,2.69.51,4.68,4.68,0,0,1,1.83,1.46q1.49,2,1.48,6v12.2h-3.25V323a6.47,6.47,0,0,0-.94-3.9,3.42,3.42,0,0,0-2.93-1.25,4.77,4.77,0,0,0-2,.4,3.81,3.81,0,0,0-1.45,1.2,7.48,7.48,0,0,0-1.23,4.62v11.13h-3.24Z" transform="translate(-6.3 -16)"/><path class="cls-4" d="M449.57,343c-.46,0-.91,0-1.37-.06s-.93-.1-1.42-.18-1-.18-1.44-.3-1-.26-1.48-.42v-3.2c.57.27,1.13.5,1.66.7s1,.37,1.47.49a9.66,9.66,0,0,0,2.65.39,6.31,6.31,0,0,0,2.22-.35,3.74,3.74,0,0,0,1.53-1.09,6.94,6.94,0,0,0,1.19-4.5v-2.34a5.46,5.46,0,0,1-2.11,2.46,6.12,6.12,0,0,1-3.23.81,6.53,6.53,0,0,1-5.52-2.76,14.29,14.29,0,0,1,0-14.78,6.82,6.82,0,0,1,2.4-2.08,7,7,0,0,1,3.13-.68,7.83,7.83,0,0,1,1.72.18,5.91,5.91,0,0,1,1.47.57,5.61,5.61,0,0,1,2.14,2.34l.32-2.55h2.92V334c0,2.95-.7,5.18-2.1,6.72S452.29,343,449.57,343Zm.37-10.28a3.82,3.82,0,0,0,3.46-1.91,10.64,10.64,0,0,0,1.18-5.54,10.52,10.52,0,0,0-1.18-5.54,3.68,3.68,0,0,0-1.5-1.44,4.43,4.43,0,0,0-2-.44,4.06,4.06,0,0,0-3.6,1.88,10.15,10.15,0,0,0-1.25,5.56,10,10,0,0,0,1.27,5.52A4.07,4.07,0,0,0,449.94,332.69Z" transform="translate(-6.3 -16)"/><path class="cls-4" d="M491.41,333.85q-1.5-1.44-1.5-5V318.07h-5.25v-2.52h5.25V310.4l3.24-1.4v6.55h7.35v2.52h-7.35v10.75a4.44,4.44,0,0,0,.82,3.05,3.9,3.9,0,0,0,2.89.86h3.64v2.58h-4Q492.92,335.31,491.41,333.85Z" transform="translate(-6.3 -16)"/><path class="cls-4" d="M513.05,335.75a6.7,6.7,0,0,1-4.84-1.71,5.79,5.79,0,0,1-1.32-1.9,6.79,6.79,0,0,1-.47-2.65,5.93,5.93,0,0,1,2.21-5c1.46-1.14,3.61-1.71,6.47-1.71h4.34v-.51a6.43,6.43,0,0,0-.29-2,3.28,3.28,0,0,0-.9-1.42,3.71,3.71,0,0,0-1.53-.8,8.56,8.56,0,0,0-2.22-.26,12.54,12.54,0,0,0-3.35.47,14.31,14.31,0,0,0-3.29,1.39v-3.23c.49-.19,1-.38,1.64-.56a18.53,18.53,0,0,1,1.81-.48,15.75,15.75,0,0,1,3.21-.33,13.14,13.14,0,0,1,2.27.18,9.33,9.33,0,0,1,1.9.56,8.15,8.15,0,0,1,1.54.88,5.83,5.83,0,0,1,1.24,1.24,5.16,5.16,0,0,1,.59,1.08,7.05,7.05,0,0,1,.36,1.1,20.36,20.36,0,0,1,.28,3.89v4c0,.68,0,1.28,0,1.8s0,1,.1,1.44.13,1,.21,1.39.14.76.2,1a9.63,9.63,0,0,0,.28,1l.19.57h-3.25c-.06-.14-.13-.35-.22-.62s-.17-.58-.25-.91-.12-.52-.17-.78-.09-.49-.11-.68a6.12,6.12,0,0,1-1.31,1.57,9,9,0,0,1-1.58,1.09,7.27,7.27,0,0,1-1.78.64A9.93,9.93,0,0,1,513.05,335.75Zm.66-2.71a5.14,5.14,0,0,0,4.19-1.86,7.88,7.88,0,0,0,1.54-5.12v-.72h-4.09a7.56,7.56,0,0,0-4.26,1,3,3,0,0,0-1.09,1.25,4.12,4.12,0,0,0-.35,1.74,4.26,4.26,0,0,0,.28,1.59,3.35,3.35,0,0,0,.8,1.15,3.91,3.91,0,0,0,1.23.72A5.08,5.08,0,0,0,513.71,333Z" transform="translate(-6.3 -16)"/><path class="cls-4" d="M537.61,334.94a5,5,0,0,1-2-1.42,7.84,7.84,0,0,1-1.6-5.28V310.42h-5.18v-2.53h8.42v20.35a5.58,5.58,0,0,0,.8,3.29,2.58,2.58,0,0,0,1,.85,3.34,3.34,0,0,0,1.34.26h3.78v2.74h-4.1A6.94,6.94,0,0,1,537.61,334.94Z" transform="translate(-6.3 -16)"/><path class="cls-4" d="M559.28,335.75a11.28,11.28,0,0,1-4.07-.69,8.25,8.25,0,0,1-3.07-2.05,9.08,9.08,0,0,1-1.93-3.26,13.43,13.43,0,0,1-.65-4.32,13.09,13.09,0,0,1,.66-4.35,9.53,9.53,0,0,1,1.85-3.19,8.1,8.1,0,0,1,3-2.12,9.82,9.82,0,0,1,3.7-.69,8.44,8.44,0,0,1,3.46.65,6.94,6.94,0,0,1,2.54,1.88,8.45,8.45,0,0,1,1.61,3,13.2,13.2,0,0,1,.55,4v1.58h-14v.11a6.87,6.87,0,0,0,1.69,5,5.43,5.43,0,0,0,2,1.3,7.33,7.33,0,0,0,2.75.46,11.6,11.6,0,0,0,3.25-.49,20.35,20.35,0,0,0,3.6-1.5v3.22c-.62.26-1.22.48-1.81.67s-1.16.34-1.74.47a14,14,0,0,1-1.68.28A15.86,15.86,0,0,1,559.28,335.75Zm4.43-12.11a9.09,9.09,0,0,0-.4-2.59,5,5,0,0,0-.94-1.75,3.88,3.88,0,0,0-1.56-1.11,5.61,5.61,0,0,0-2.1-.37,5.12,5.12,0,0,0-3.86,1.55,7,7,0,0,0-1.8,4.29Z" transform="translate(-6.3 -16)"/><path class="cls-4" d="M572.48,315.55h2.92l.31,3a6.18,6.18,0,0,1,2.34-2.57,6.75,6.75,0,0,1,3.48-.86,6.42,6.42,0,0,1,2.69.51,4.68,4.68,0,0,1,1.83,1.46q1.47,2,1.47,6v12.2h-3.25V323a6.55,6.55,0,0,0-.93-3.9,3.42,3.42,0,0,0-2.93-1.25,4.82,4.82,0,0,0-2,.4,3.88,3.88,0,0,0-1.45,1.2,7.48,7.48,0,0,0-1.23,4.62v11.13h-3.23Z" transform="translate(-6.3 -16)"/><path class="cls-4" d="M599.78,333.85q-1.5-1.44-1.5-5V318.07H593v-2.52h5.25V310.4l3.24-1.4v6.55h7.34v2.52h-7.34v10.75a4.44,4.44,0,0,0,.82,3.05,3.9,3.9,0,0,0,2.89.86h3.63v2.58h-4C602.5,335.31,600.78,334.82,599.78,333.85Z" transform="translate(-6.3 -16)"/></g><g class="cls-1"><path class="cls-4" d="M252.26,393.85q-1.5-1.44-1.5-5V378.07h-5.25v-2.52h5.25V370.4L254,369v6.55h7.34v2.52H254v10.75a4.44,4.44,0,0,0,.82,3.05,3.9,3.9,0,0,0,2.89.86h3.63v2.58h-3.95C255,395.31,253.26,394.82,252.26,393.85Z" transform="translate(-6.3 -16)"/><path class="cls-4" d="M275.71,395.75a9.24,9.24,0,0,1-3.6-.66,6.77,6.77,0,0,1-2.66-2,8.87,8.87,0,0,1-1.64-3.31,16.92,16.92,0,0,1-.52-4.4q0-5,2.16-7.67a7.6,7.6,0,0,1,6.26-2.65,9.16,9.16,0,0,1,3.66.67,6.92,6.92,0,0,1,2.61,2q2.16,2.67,2.16,7.65a17.21,17.21,0,0,1-.53,4.46,8.66,8.66,0,0,1-1.63,3.27,6.6,6.6,0,0,1-2.63,2A9.16,9.16,0,0,1,275.71,395.75Zm0-2.74a4.18,4.18,0,0,0,3.74-1.94,10.33,10.33,0,0,0,1.27-5.66,10.44,10.44,0,0,0-1.27-5.67,4.59,4.59,0,0,0-7.47,0,10.44,10.44,0,0,0-1.27,5.67,10.33,10.33,0,0,0,1.27,5.66A4.16,4.16,0,0,0,275.71,393Z" transform="translate(-6.3 -16)"/><path class="cls-4" d="M311.46,400h1.92a3.29,3.29,0,0,0,1.33-.24,2.91,2.91,0,0,0,.9-.58,6.12,6.12,0,0,0,.88-1.39,29.26,29.26,0,0,0,1.17-2.89l-7.61-19.37h3.43l5.84,15.4,5.74-15.4h3.43l-5.18,13.36c-.28.73-.5,1.29-.66,1.69l-.37.94c-.09.23-.16.4-.2.53s-.1.26-.16.43l-.24.65-.43,1.18c-.35.95-.65,1.74-.9,2.39l-.66,1.61c-.19.42-.35.76-.47,1s-.23.46-.31.61a6.72,6.72,0,0,1-.86,1.19,4.6,4.6,0,0,1-1.16.9,5.62,5.62,0,0,1-2.83.69h-2.6Z" transform="translate(-6.3 -16)"/><path class="cls-4" d="M340.73,395.75a9.24,9.24,0,0,1-3.6-.66,6.84,6.84,0,0,1-2.66-2,9,9,0,0,1-1.64-3.31,16.92,16.92,0,0,1-.52-4.4q0-5,2.16-7.67a7.6,7.6,0,0,1,6.26-2.65,9.13,9.13,0,0,1,3.66.67,6.92,6.92,0,0,1,2.61,2c1.44,1.78,2.17,4.33,2.17,7.65a16.77,16.77,0,0,1-.54,4.46,8.66,8.66,0,0,1-1.63,3.27,6.64,6.64,0,0,1-2.62,2A9.21,9.21,0,0,1,340.73,395.75Zm0-2.74a4.18,4.18,0,0,0,3.74-1.94,10.25,10.25,0,0,0,1.27-5.66,10.35,10.35,0,0,0-1.27-5.67,4.59,4.59,0,0,0-7.47,0,10.45,10.45,0,0,0-1.26,5.67,10.34,10.34,0,0,0,1.26,5.66A4.18,4.18,0,0,0,340.73,393Z" transform="translate(-6.3 -16)"/><path class="cls-4" d="M361,395.75a5.21,5.21,0,0,1-4.48-2q-1.49-2-1.48-6v-12.2h3.24v12.2a6.43,6.43,0,0,0,.94,3.9,3,3,0,0,0,1.16.92,4,4,0,0,0,1.74.33,4.1,4.1,0,0,0,3.5-1.62,7.51,7.51,0,0,0,1.22-4.61V375.59h3.25v19.65h-2.94l-.31-2.95a6.14,6.14,0,0,1-2.34,2.58A6.74,6.74,0,0,1,361,395.75Z" transform="translate(-6.3 -16)"/><path class="cls-4" d="M378.56,375.55h2.93l.32,3.85a6.74,6.74,0,0,1,2.49-3.21,7,7,0,0,1,4-1.11,8.16,8.16,0,0,1,2.25.3,7,7,0,0,1,1,.37,7.18,7.18,0,0,1,1,.56v3.3a6.71,6.71,0,0,0-2.11-1.17,7.29,7.29,0,0,0-2.38-.37,5.68,5.68,0,0,0-4.6,1.89,8.27,8.27,0,0,0-1.6,5.49v9.79h-3.25Z" transform="translate(-6.3 -16)"/><path class="cls-4" d="M421.9,375.55h2.94l.32,3.85a6.74,6.74,0,0,1,2.49-3.21,6.93,6.93,0,0,1,4-1.11,8.26,8.26,0,0,1,2.25.3,7,7,0,0,1,1,.37,6.51,6.51,0,0,1,1,.56v3.3a6.6,6.6,0,0,0-2.11-1.17,7.18,7.18,0,0,0-2.37-.37,5.72,5.72,0,0,0-4.61,1.89,8.32,8.32,0,0,0-1.59,5.49v9.79H421.9Z" transform="translate(-6.3 -16)"/><path class="cls-4" d="M450.17,395.75a11.32,11.32,0,0,1-4.07-.69A8.33,8.33,0,0,1,443,393a9.06,9.06,0,0,1-1.92-3.26,13.15,13.15,0,0,1-.66-4.32,12.83,12.83,0,0,1,.67-4.35,9.51,9.51,0,0,1,1.84-3.19,8.18,8.18,0,0,1,3-2.12,9.87,9.87,0,0,1,3.71-.69,8.43,8.43,0,0,1,3.45.65,6.94,6.94,0,0,1,2.54,1.88,8.45,8.45,0,0,1,1.61,3,13.2,13.2,0,0,1,.55,4v1.58h-14v.11a6.91,6.91,0,0,0,1.69,5,5.43,5.43,0,0,0,2,1.3,7.37,7.37,0,0,0,2.75.46,11.6,11.6,0,0,0,3.25-.49,20.74,20.74,0,0,0,3.61-1.5v3.22c-.62.26-1.23.48-1.81.67s-1.17.34-1.74.47a14.52,14.52,0,0,1-1.69.28A15.71,15.71,0,0,1,450.17,395.75Zm4.43-12.11a8.75,8.75,0,0,0-.4-2.59,5,5,0,0,0-.94-1.75,3.88,3.88,0,0,0-1.56-1.11,5.56,5.56,0,0,0-2.09-.37,5.14,5.14,0,0,0-3.87,1.55,6.93,6.93,0,0,0-1.79,4.29Z" transform="translate(-6.3 -16)"/><path class="cls-4" d="M470.31,395.75c-.51,0-1,0-1.59-.08s-1.07-.13-1.57-.22-1-.22-1.61-.39-1.23-.34-1.85-.54v-3.34c.75.37,1.39.66,1.91.87s1,.38,1.55.52a14.31,14.31,0,0,0,1.56.35,10.09,10.09,0,0,0,1.57.12,5.48,5.48,0,0,0,3.32-.88,2.77,2.77,0,0,0,.9-1.07,3.07,3.07,0,0,0,.28-1.25,2.37,2.37,0,0,0-1-2,8.44,8.44,0,0,0-3.27-1.22l-.14,0-1.21-.24a11.84,11.84,0,0,1-2.35-.71A5.43,5.43,0,0,1,465,384.5a4.75,4.75,0,0,1-1.28-3.53,6.22,6.22,0,0,1,.48-2.52,4.84,4.84,0,0,1,1.43-1.84,6.29,6.29,0,0,1,2.39-1.17,12.47,12.47,0,0,1,3.11-.36c.51,0,1,0,1.52.07s1,.12,1.49.21.91.21,1.4.36,1,.32,1.47.52v3.16a12.75,12.75,0,0,0-2.8-1.21,11.81,11.81,0,0,0-1.41-.3,10.58,10.58,0,0,0-1.52-.1,8.6,8.6,0,0,0-1.84.17,3.94,3.94,0,0,0-1.36.53,2.44,2.44,0,0,0-1.09,2.2,2.9,2.9,0,0,0,.2,1.12,2,2,0,0,0,.6.83,4.53,4.53,0,0,0,1.35.62,21.9,21.9,0,0,0,2.68.64l1.3.25a8.18,8.18,0,0,1,2.16.7,4.86,4.86,0,0,1,2.73,4.71,6,6,0,0,1-.54,2.63A5.45,5.45,0,0,1,476,394.1a7.17,7.17,0,0,1-2.5,1.25A11.63,11.63,0,0,1,470.31,395.75Z" transform="translate(-6.3 -16)"/><path class="cls-4" d="M493.52,395.75a11.28,11.28,0,0,1-4.07-.69,8.25,8.25,0,0,1-3.07-2.05,8.92,8.92,0,0,1-1.92-3.26,14.57,14.57,0,0,1,0-8.67,9.53,9.53,0,0,1,1.85-3.19,8.18,8.18,0,0,1,3-2.12,9.82,9.82,0,0,1,3.7-.69,8.44,8.44,0,0,1,3.46.65,6.94,6.94,0,0,1,2.54,1.88,8.45,8.45,0,0,1,1.61,3,13.2,13.2,0,0,1,.55,4v1.58h-14v.11a6.87,6.87,0,0,0,1.69,5,5.43,5.43,0,0,0,2,1.3,7.33,7.33,0,0,0,2.75.46,11.6,11.6,0,0,0,3.25-.49,20.35,20.35,0,0,0,3.6-1.5v3.22c-.62.26-1.22.48-1.81.67s-1.16.34-1.74.47a14,14,0,0,1-1.68.28A15.86,15.86,0,0,1,493.52,395.75ZM498,383.64a9.09,9.09,0,0,0-.4-2.59,5,5,0,0,0-.94-1.75,3.88,3.88,0,0,0-1.56-1.11,5.61,5.61,0,0,0-2.1-.37,5.12,5.12,0,0,0-3.86,1.55,7,7,0,0,0-1.8,4.29Z" transform="translate(-6.3 -16)"/><path class="cls-4" d="M512.31,395.75a6.7,6.7,0,0,1-4.84-1.71,5.62,5.62,0,0,1-1.31-1.9,6.6,6.6,0,0,1-.48-2.65,5.91,5.91,0,0,1,2.22-5q2.18-1.71,6.46-1.71h4.35v-.51a6.14,6.14,0,0,0-.3-2,3.28,3.28,0,0,0-.9-1.42,3.71,3.71,0,0,0-1.53-.8,8.54,8.54,0,0,0-2.21-.26,12.55,12.55,0,0,0-3.36.47,14.31,14.31,0,0,0-3.29,1.39v-3.23c.49-.19,1-.38,1.64-.56a18.53,18.53,0,0,1,1.81-.48,15.83,15.83,0,0,1,3.21-.33,13.06,13.06,0,0,1,2.27.18,9.33,9.33,0,0,1,1.9.56,8.15,8.15,0,0,1,1.54.88,5.83,5.83,0,0,1,1.24,1.24,5.71,5.71,0,0,1,.6,1.08,8.21,8.21,0,0,1,.35,1.1A20.36,20.36,0,0,1,522,384v4c0,.68,0,1.28,0,1.8a12.77,12.77,0,0,0,.11,1.44c0,.49.12,1,.2,1.39s.14.76.2,1,.18.71.28,1,.17.51.2.57h-3.26c-.06-.14-.13-.35-.22-.62s-.17-.58-.25-.91-.12-.52-.17-.78-.09-.49-.11-.68a6.12,6.12,0,0,1-1.31,1.57,9,9,0,0,1-1.58,1.09,7.27,7.27,0,0,1-1.78.64A9.93,9.93,0,0,1,512.31,395.75ZM513,393a5.12,5.12,0,0,0,4.18-1.86,7.88,7.88,0,0,0,1.55-5.12v-.72h-4.1a7.52,7.52,0,0,0-4.25,1,3,3,0,0,0-1.1,1.25,4.13,4.13,0,0,0-.34,1.74,4.07,4.07,0,0,0,.28,1.59,3.2,3.2,0,0,0,.79,1.15,3.86,3.86,0,0,0,1.24.72A5,5,0,0,0,513,393Z" transform="translate(-6.3 -16)"/><path class="cls-4" d="M530.27,375.55h2.94l.31,3.85a6.82,6.82,0,0,1,2.5-3.21,6.93,6.93,0,0,1,4-1.11,8.26,8.26,0,0,1,2.25.3,7,7,0,0,1,1,.37,7.07,7.07,0,0,1,1,.56v3.3a6.6,6.6,0,0,0-2.11-1.17,7.23,7.23,0,0,0-2.37-.37,5.72,5.72,0,0,0-4.61,1.89,8.32,8.32,0,0,0-1.6,5.49v9.79h-3.25Z" transform="translate(-6.3 -16)"/><path class="cls-4" d="M559.15,395.75a11.16,11.16,0,0,1-4-.69,8.21,8.21,0,0,1-3.06-2.05,8.91,8.91,0,0,1-1.93-3.28,13.44,13.44,0,0,1-.64-4.32,13.18,13.18,0,0,1,.68-4.41,9,9,0,0,1,1.9-3.2,8.41,8.41,0,0,1,3.09-2.05,11.19,11.19,0,0,1,4-.67,11.63,11.63,0,0,1,1.5.09,8.1,8.1,0,0,1,1.35.28,11.79,11.79,0,0,1,2.72,1.14V380a13.25,13.25,0,0,0-1.28-1,6.29,6.29,0,0,0-1.28-.67,8,8,0,0,0-2.92-.51,5.76,5.76,0,0,0-4.69,2,8.59,8.59,0,0,0-1.64,5.61,12.49,12.49,0,0,0,.38,3.13,6.25,6.25,0,0,0,1.26,2.49,5.8,5.8,0,0,0,4.74,2,8.86,8.86,0,0,0,1.61-.14,8.13,8.13,0,0,0,1.34-.39,6.48,6.48,0,0,0,1.37-.69,10.29,10.29,0,0,0,1.11-.91v3.36a12.12,12.12,0,0,1-1.3.65,11.93,11.93,0,0,1-1.37.49,8.58,8.58,0,0,1-1.34.27A11.15,11.15,0,0,1,559.15,395.75Z" transform="translate(-6.3 -16)"/><path class="cls-4" d="M571.74,367.89H575v10.62a6.18,6.18,0,0,1,2.34-2.57,6.75,6.75,0,0,1,3.48-.86,6.39,6.39,0,0,1,2.69.51,4.68,4.68,0,0,1,1.83,1.46c1,1.32,1.48,3.32,1.48,6v12.2h-3.26V383a6.55,6.55,0,0,0-.93-3.9,3.42,3.42,0,0,0-2.93-1.25,4.82,4.82,0,0,0-2,.4,4,4,0,0,0-1.45,1.2,7.48,7.48,0,0,0-1.23,4.62v11.13h-3.23Z" transform="translate(-6.3 -16)"/><path class="cls-4" d="M605.61,369H609l-13.81,29.58h-3.36Z" transform="translate(-6.3 -16)"/><path class="cls-4" d="M613.21,389.54,628.15,384l-14.94-5.62v-3.2l18.58,7.35v2.91l-18.58,7.35Z" transform="translate(-6.3 -16)"/></g></g><path class="cls-5" d="M634.52,325.3l21.06.39a3,3,0,0,1,2.94,3v23.95a3,3,0,0,1-3,3l-455.27,1.08a4,4,0,0,0-4,4v20.53a3,3,0,0,0,2.86,2.94l21.14.6" transform="translate(-6.3 -16)"/><circle class="cls-3" cx="630.22" cy="309.3" r="8.5"/><circle class="cls-3" cx="212.13" cy="368.78" r="8.5"/></svg>