<?xml version="1.0" encoding="UTF-8" standalone="no"?>
<svg
   id="Layer_1"
   data-name="Layer 1"
   viewBox="0 0 655.72 386.73"
   version="1.1"
   xmlns="http://www.w3.org/2000/svg"
   xmlns:svg="http://www.w3.org/2000/svg"
   xmlns:rdf="http://www.w3.org/1999/02/22-rdf-syntax-ns#"
   xmlns:cc="http://creativecommons.org/ns#"
   xmlns:dc="http://purl.org/dc/elements/1.1/">
  <defs
     id="defs1">
    <style
       id="style1">.cls-1{isolation:isolate;}.cls-2,.cls-5{fill:none;stroke:#65c8d0;stroke-miterlimit:10;}.cls-2{stroke-width:8px;}.cls-3{fill:#65c8d0;}.cls-4{fill:#00687f;}.cls-5{stroke-width:7px;}</style>
  </defs>
  <title
     id="title1">extened_logo</title>
  <g
     class="cls-1"
     id="g13">
    <g
       class="cls-1"
       id="g1">
      <path
         d="M95.2,70C95.2,97,76,119,49,119H12.18V21H49C76,21,95.2,43,95.2,70Zm-7.28,0C87.92,46.76,72.1,28,49,28H19.6v84H49C72.1,112,87.92,93.24,87.92,70Z"
         transform="translate(-6.3 -16)"
         id="path1" />
    </g>
    <g
       class="cls-1"
       id="g2">
      <path
         d="M141.12,48v6.72c-12,0-23.38,7.42-23.38,25.34V119h-7V49h7V62.72C122.5,51.66,131.6,48,141.12,48Z"
         transform="translate(-6.3 -16)"
         id="path2" />
    </g>
    <g
       class="cls-1"
       id="g5">
      <path
         d="M215.32,84.28c0,1.12-.14,2.24-.14,3.36H151.76c1.68,15.82,13.72,26.18,29.68,26.18,11.48,0,20.16-5.32,24.22-12.74l6.16,3.64c-5.74,9.52-16.66,15.82-30.52,15.82-21.56,0-36.82-15.4-36.82-36.54,0-20.58,14.84-36.54,36.26-36.54S215.32,65.1,215.32,84.28Zm-63.56-3.5H208c-1.54-17.08-13.58-26.6-27.3-26.6C164.78,54.18,153.16,65.24,151.76,80.78Z"
         transform="translate(-6.3 -16)"
         id="path3" />
      <path
         d="M299,49v70H291.9V103.18a33.66,33.66,0,0,1-30.1,17.36,36.54,36.54,0,0,1,0-73.08,33.66,33.66,0,0,1,30.1,17.36V49ZM291.9,84c0-16.66-12.88-29.82-29.54-29.82a29.82,29.82,0,0,0,0,59.64C279,113.82,291.9,100.66,291.9,84Z"
         transform="translate(-6.3 -16)"
         id="path4" />
      <path
         d="M419.44,74.62V119h-7V74.62c0-13.3-7.7-20.44-18.62-20.44-11.76,0-21,7.84-21,25.76V119h-7V74.62c0-13.3-7.14-20.44-17.92-20.44-11.48,0-21.7,7.84-21.7,25.76V119h-7V49h7V61c5.18-9.66,13.58-13.58,22.54-13.58,10.22,0,18.2,5,21.84,14.28A25.51,25.51,0,0,1,394,47.46C408.8,47.46,419.44,57.12,419.44,74.62Z"
         transform="translate(-6.3 -16)"
         id="path5" />
    </g>
    <g
       class="cls-1"
       id="g7">
      <path
         d="M526.11,75.46V119H519V75.46c0-12.88-7.42-21.28-20.58-21.28-13.72,0-24.5,9-24.5,27.86v37h-7V49h7V62.3c5.32-10.36,14.28-14.84,25.06-14.84C515.61,47.46,526.11,58.52,526.11,75.46Z"
         transform="translate(-6.3 -16)"
         id="path6" />
      <path
         d="M613.61,49v66.64c0,21-15.54,32.9-34.86,32.9-16.38,0-28-6.58-33-16.8l6.16-3.5c3.64,7.42,11.48,13.58,26.88,13.58,17.5,0,27.86-10.22,27.86-26.18V102.76c-5.74,10.78-16.52,17.78-30.1,17.78A36.06,36.06,0,0,1,540.25,84a36.06,36.06,0,0,1,36.26-36.54c13.58,0,24.36,7,30.1,17.78V49Zm-7,35a29.68,29.68,0,1,0-29.68,29.82A29.46,29.46,0,0,0,606.61,84Z"
         transform="translate(-6.3 -16)"
         id="path7" />
    </g>
    <g
       class="cls-1"
       id="g9">
      <path
         d="M6.3,222.44l6.44-3.78C16.1,230.42,26,238.4,42.14,238.4c16.38,0,24.64-8.4,24.64-19.6,0-11.76-10.36-16.24-25.34-21-16.38-5.32-31.08-9.94-31.08-27,0-16.1,13-26.32,29.68-26.32,16.1,0,26.74,9.24,31.5,20.58l-6.3,3.5C61.6,159.72,54,151.6,40,151.6c-13.58,0-22.12,8-22.12,18.9,0,11.76,9.94,15.4,23.94,20,17.36,5.74,32.48,11.2,32.48,28.14,0,16.24-12.74,26.88-32.2,26.88C23.8,245.54,10.78,236.3,6.3,222.44Z"
         transform="translate(-6.3 -16)"
         id="path8" />
      <path
         d="M161.7,209a36.06,36.06,0,0,1-36.26,36.54c-13.58,0-24.36-7-30.1-17.78V272h-7V174h7v16.24c5.74-10.78,16.52-17.78,30.1-17.78A36.06,36.06,0,0,1,161.7,209Zm-7,0A29.68,29.68,0,1,0,125,238.82,29.46,29.46,0,0,0,154.7,209Z"
         transform="translate(-6.3 -16)"
         id="path9" />
    </g>
    <g
       class="cls-1"
       id="g10">
      <path
         d="M238,173v6.72c-12,0-23.38,7.42-23.38,25.34V244h-7V174h7v13.72C219.38,176.66,228.48,173,238,173Z"
         transform="translate(-6.3 -16)"
         id="path10" />
    </g>
    <g
       class="cls-1"
       id="g11">
      <path
         d="M311.92,209.28c0,1.12-.14,2.24-.14,3.36H248.36c1.68,15.82,13.72,26.18,29.68,26.18,11.48,0,20.16-5.32,24.22-12.74l6.16,3.64c-5.74,9.52-16.66,15.82-30.52,15.82-21.56,0-36.82-15.4-36.82-36.54,0-20.58,14.84-36.54,36.26-36.54S311.92,190.1,311.92,209.28Zm-63.56-3.5h56.28c-1.54-17.08-13.58-26.6-27.3-26.6C261.38,179.18,249.76,190.24,248.36,205.78Z"
         transform="translate(-6.3 -16)"
         id="path11" />
    </g>
    <g
       class="cls-1"
       id="g12">
      <path
         d="M370.58,225.66c0,11.48-10.08,19.88-25.06,19.88-14,0-23.24-6.58-26.6-15.54l6-3.5c2.52,7.56,10.08,12.32,20.58,12.32,9.8,0,18.06-4.34,18.06-13.16,0-19-42.42-8.12-42.42-33.32,0-11.06,9.52-19.88,23.8-19.88,11.34,0,20,5.46,23.8,14l-5.88,3.36c-2.94-7.28-10.22-10.64-17.92-10.64-9.1,0-16.8,4.76-16.8,13.16C328.16,211.1,370.58,200,370.58,225.66Z"
         transform="translate(-6.3 -16)"
         id="path12" />
    </g>
  </g>
  <path
     class="cls-2"
     d="M444.28,30.17V267.44a9.07,9.07,0,0,1-9.07,9.07H193.05a9.07,9.07,0,0,1-9.07-9.07h0V150.64"
     transform="translate(-6.3 -16)"
     id="path13" />
  <path
     id="circle13"
     class="cls-3"
     style="fill:#65c8d0"
     d="m 191.84999,139.34 a 14.17,14.17 0 0 1 -14.17,14.17 14.17,14.17 0 0 1 -14.17,-14.17 14.17,14.17 0 0 1 14.17,-14.17 14.17,14.17 0 0 1 14.17,14.17 z" />
  <path
     id="circle14"
     class="cls-3"
     style="fill:#65c8d0"
     d="m 452.15001,14.17 a 14.17,14.17 0 0 1 -14.17,14.17 14.17,14.17 0 0 1 -14.17,-14.17 14.17,14.17 0 0 1 14.17,-14.17 14.17,14.17 0 0 1 14.17,14.17 z" />
  <path
     class="cls-5"
     d="M634.52,325.3l21.06.39a3,3,0,0,1,2.94,3v23.95a3,3,0,0,1-3,3l-455.27,1.08a4,4,0,0,0-4,4v20.53a3,3,0,0,0,2.86,2.94l21.14.6"
     transform="translate(-6.3 -16)"
     id="path56" />
  <path
     id="circle56"
     class="cls-3"
     style="fill:#65c8d0"
     d="m 638.71997,309.29999 a 8.5,8.5 0 0 1 -8.5,8.5 8.5,8.5 0 0 1 -8.5,-8.5 8.5,8.5 0 0 1 8.5,-8.5 8.5,8.5 0 0 1 8.5,8.5 z" />
  <path
     id="circle57"
     class="cls-3"
     style="fill:#65c8d0"
     d="m 220.63,368.78 a 8.5,8.5 0 0 1 -8.5,8.5 8.5,8.5 0 0 1 -8.5,-8.5 8.5,8.5 0 0 1 8.5,-8.5 8.5,8.5 0 0 1 8.5,8.5 z" />
  <path
     d="m 1.6309111,304.74074 v -2.85943 l 17.6698309,-7.36854 v 2.89609 l -14.4438036,5.93883 14.4438036,5.82884 v 2.89609 z m 40.2886559,0.29328 q 0,2.23622 -0.843166,3.66594 -0.806507,1.42971 -2.162905,2.27288 -1.319738,0.80651 -3.04273,1.13644 -1.686333,0.29328 -3.409325,0.29328 h -7.625155 v -26.50475 h 8.065068 q 1.466376,0 2.896093,0.32994 1.429717,0.32993 2.566158,1.09978 1.136441,0.76984 1.83297,2.05292 0.696529,1.24642 0.696529,3.15271 0,2.67614 -1.24642,4.03254 -1.24642,1.35639 -3.445984,1.9796 1.283079,0.25662 2.346202,0.73319 1.063123,0.43991 1.796311,1.20976 0.769847,0.76985 1.1731,1.90629 0.403254,1.09978 0.403254,2.63948 z m -4.399128,-12.20758 q 0,-1.24642 -0.403254,-2.05293 -0.403253,-0.84317 -1.099782,-1.31974 -0.659869,-0.47657 -1.576354,-0.65987 -0.879826,-0.18329 -1.869629,-0.18329 h -4.509107 v 8.83491 h 4.032534 q 1.099782,0 2.089586,-0.1833 0.989804,-0.21995 1.722992,-0.73318 0.733188,-0.51323 1.173101,-1.39306 0.439913,-0.91649 0.439913,-2.30954 z m 0.989804,12.06094 q 0,-1.46638 -0.476573,-2.41952 -0.476572,-0.95314 -1.283079,-1.50304 -0.806507,-0.54989 -1.906289,-0.76984 -1.099782,-0.21996 -2.309542,-0.21996 h -4.472447 v 9.71474 h 3.482643 q 1.24642,0 2.49284,-0.10998 1.246419,-0.10997 2.236223,-0.58655 0.989804,-0.47657 1.613014,-1.42971 0.62321,-0.98981 0.62321,-2.67614 z m 21.812317,-4.8757 q -0.07332,-0.95314 -0.293275,-1.68633 -0.219956,-0.76985 -0.696529,-1.28308 -0.476572,-0.51323 -1.20976,-0.76985 -0.733188,-0.25661 -1.869629,-0.25661 -1.503036,0 -2.49284,0.65986 -0.953144,0.62321 -1.539694,1.64968 -0.586551,0.9898 -0.806507,2.27288 -0.219957,1.28308 -0.219957,2.56616 v 9.23817 h -3.04273 v -14.11387 q 0,-1.28308 -0.03666,-2.27288 0,-1.02647 -0.07332,-2.12625 h 2.859433 l 0.109978,3.07939 q 1.063123,-1.61301 2.529499,-2.45618 1.503036,-0.84317 3.66594,-0.84317 2.859433,0 4.472447,1.50304 1.613014,1.46637 1.722992,4.83904 z M 74.912978,289.1605 v -3.26269 h 3.409324 v 3.26269 z m 10.044676,23.46201 q -0.62321,0.0733 -1.503036,0.10998 -0.879825,0.0733 -1.906289,0.0733 -1.722991,0 -2.932752,-0.32993 -1.20976,-0.32994 -1.979607,-1.06313 -0.733188,-0.76984 -1.063123,-1.94294 -0.329935,-1.20976 -0.329935,-2.93276 v -10.37461 h -6.635351 v -2.27288 h 9.714741 v 13.38068 q 0,1.83297 0.916485,2.5295 0.916485,0.65987 3.006071,0.65987 0.769847,0 1.393057,-0.0367 0.659869,-0.0733 1.319739,-0.14664 z m 18.622946,-0.21995 v -10.26463 q 0,-1.20977 -0.14664,-2.27289 -0.10997,-1.09978 -0.54989,-1.90629 -0.40325,-0.84316 -1.24642,-1.31974 -0.8065,-0.51323 -2.199561,-0.51323 -1.429716,0 -2.41952,0.62321 -0.989804,0.62321 -1.613014,1.61302 -0.62321,0.9898 -0.916485,2.27288 -0.256616,1.24642 -0.256616,2.5295 v 9.23817 h -3.079389 v -14.11387 q 0,-1.20976 -0.03666,-2.12625 0,-0.95314 -0.07332,-2.27288 h 2.969412 l 0.109978,3.04273 q 1.063123,-1.61301 2.676136,-2.41952 1.613014,-0.84317 3.519298,-0.84317 3.44599,0 4.87571,1.90629 1.46637,1.90629 1.46637,5.31562 v 11.51105 z m 25.14832,-18.513 q -0.0367,0.95314 -0.0733,2.1629 -0.0367,1.17311 -0.0367,2.23623 v 11.07114 q 0,1.90629 -0.25661,3.77592 -0.21996,1.86962 -1.06312,3.336 -0.84317,1.46638 -2.49284,2.38286 -1.64968,0.91649 -4.47245,0.91649 -1.31974,0 -2.67614,-0.25662 -1.31973,-0.25661 -2.38286,-0.87982 -1.02646,-0.62321 -1.68633,-1.64968 -0.65987,-1.02646 -0.65987,-2.56616 h 2.96941 q 0,0.84317 0.3666,1.42972 0.40325,0.58655 1.02646,0.95315 0.62321,0.40325 1.39306,0.58655 0.8065,0.18329 1.61301,0.18329 1.3564,0 2.3462,-0.43991 1.02647,-0.43991 1.64968,-1.24642 0.65986,-0.76985 0.95314,-1.86963 0.32993,-1.06312 0.32993,-2.3462 v -3.29935 q -2.05292,3.29935 -5.82884,3.29935 -1.79631,0 -3.22603,-0.65987 -1.42971,-0.65987 -2.45618,-1.79631 -0.9898,-1.1731 -1.53969,-2.78611 -0.51323,-1.61302 -0.51323,-3.51931 0,-1.83297 0.47657,-3.5193 0.47657,-1.68633 1.42971,-2.96941 0.98981,-1.31974 2.41953,-2.08959 1.42971,-0.76984 3.37266,-0.76984 3.99587,0 5.93882,3.48264 l 0.10998,-3.15271 z m -3.15271,8.83492 q 0,-1.20976 -0.29327,-2.45618 -0.29328,-1.24642 -0.91649,-2.23623 -0.62321,-0.9898 -1.61301,-1.61301 -0.95314,-0.62321 -2.27288,-0.62321 -1.42972,0 -2.45618,0.65987 -0.98981,0.62321 -1.61302,1.64967 -0.58655,1.02646 -0.87982,2.30954 -0.25662,1.28308 -0.25662,2.60282 0,1.28308 0.32994,2.45618 0.32993,1.1731 0.9898,2.08959 0.65987,0.87982 1.61301,1.42971 0.95315,0.51323 2.23623,0.51323 1.46637,0 2.41952,-0.69652 0.9898,-0.69653 1.57635,-1.68634 0.62321,-1.02646 0.87983,-2.19956 0.25661,-1.20976 0.25661,-2.19956 z m 15.54357,-13.56398 v -3.26269 h 3.40932 v 3.26269 z m 10.04468,23.46201 q -0.62321,0.0733 -1.50304,0.10998 -0.87982,0.0733 -1.90629,0.0733 -1.72299,0 -2.93275,-0.32993 -1.20976,-0.32994 -1.97961,-1.06313 -0.73319,-0.76984 -1.06312,-1.94294 -0.32994,-1.20976 -0.32994,-2.93276 v -10.37461 h -6.63535 v -2.27288 h 9.71474 v 13.38068 q 0,1.83297 0.91649,2.5295 0.91648,0.65987 3.00607,0.65987 0.76985,0 1.39306,-0.0367 0.65987,-0.0733 1.31974,-0.14664 z m 18.62294,-0.21995 v -10.26463 q 0,-1.20977 -0.14664,-2.27289 -0.10998,-1.09978 -0.54989,-1.90629 -0.40326,-0.84316 -1.24642,-1.31974 -0.80651,-0.51323 -2.19957,-0.51323 -1.42971,0 -2.41952,0.62321 -0.9898,0.62321 -1.61301,1.61302 -0.62321,0.9898 -0.91649,2.27288 -0.25661,1.24642 -0.25661,2.5295 v 9.23817 h -3.07939 v -14.11387 q 0,-1.20976 -0.0367,-2.12625 0,-0.95314 -0.0733,-2.27288 h 2.96941 l 0.10998,3.04273 q 1.06312,-1.61301 2.67614,-2.41952 1.61301,-0.84317 3.5193,-0.84317 3.44598,0 4.8757,1.90629 1.46638,1.90629 1.46638,5.31562 v 11.51105 z m 25.14833,-18.513 q -0.0367,0.95314 -0.0733,2.1629 -0.0367,1.17311 -0.0367,2.23623 v 11.07114 q 0,1.90629 -0.25662,3.77592 -0.21996,1.86962 -1.06312,3.336 -0.84317,1.46638 -2.49284,2.38286 -1.64967,0.91649 -4.47245,0.91649 -1.31974,0 -2.67613,-0.25662 -1.31974,-0.25661 -2.38286,-0.87982 -1.02647,-0.62321 -1.68634,-1.64968 -0.65987,-1.02646 -0.65987,-2.56616 h 2.96941 q 0,0.84317 0.3666,1.42972 0.40325,0.58655 1.02646,0.95315 0.62321,0.40325 1.39306,0.58655 0.80651,0.18329 1.61301,0.18329 1.3564,0 2.3462,-0.43991 1.02647,-0.43991 1.64968,-1.24642 0.65987,-0.76985 0.95314,-1.86963 0.32994,-1.06312 0.32994,-2.3462 v -3.29935 q -2.05293,3.29935 -5.82885,3.29935 -1.79631,0 -3.22603,-0.65987 -1.42971,-0.65987 -2.45618,-1.79631 -0.9898,-1.1731 -1.53969,-2.78611 -0.51323,-1.61302 -0.51323,-3.51931 0,-1.83297 0.47657,-3.5193 0.47657,-1.68633 1.42972,-2.96941 0.9898,-1.31974 2.41952,-2.08959 1.42971,-0.76984 3.37266,-0.76984 3.99588,0 5.93883,3.48264 l 0.10997,-3.15271 z m -3.15271,8.83492 q 0,-1.20976 -0.29328,-2.45618 -0.29327,-1.24642 -0.91648,-2.23623 -0.62321,-0.9898 -1.61302,-1.61301 -0.95314,-0.62321 -2.27288,-0.62321 -1.42972,0 -2.45618,0.65987 -0.9898,0.62321 -1.61301,1.64967 -0.58655,1.02646 -0.87983,2.30954 -0.25661,1.28308 -0.25661,2.60282 0,1.28308 0.32993,2.45618 0.32993,1.1731 0.9898,2.08959 0.65987,0.87982 1.61302,1.42971 0.95314,0.51323 2.23622,0.51323 1.46638,0 2.41952,-0.69652 0.9898,-0.69653 1.57636,-1.68634 0.62321,-1.02646 0.87982,-2.19956 0.25662,-1.20976 0.25662,-2.19956 z m 47.10727,4.3258 q 0,1.57636 -0.69653,2.67614 -0.69653,1.09978 -1.79631,1.79631 -1.09978,0.65987 -2.49284,0.95315 -1.39305,0.32993 -2.78611,0.32993 -1.42972,0 -2.78612,-0.32993 -1.35639,-0.29328 -2.45618,-0.98981 -1.06312,-0.73319 -1.72299,-1.86963 -0.65987,-1.13644 -0.65987,-2.82277 h 3.07939 q 0.10998,1.94295 1.3564,2.85943 1.28308,0.91649 3.33601,0.91649 0.69652,0 1.46637,-0.14664 0.80651,-0.1833 1.50304,-0.54989 0.69653,-0.3666 1.13644,-0.95315 0.47657,-0.62321 0.47657,-1.50303 0,-0.76985 -0.36659,-1.28308 -0.32994,-0.51323 -0.91649,-0.84317 -0.54989,-0.36659 -1.3564,-0.58655 -0.76984,-0.25661 -1.64967,-0.43991 l -1.50303,-0.32993 q -1.17311,-0.25662 -2.30955,-0.58655 -1.09978,-0.3666 -1.94294,-0.91649 -0.84317,-0.58655 -1.3564,-1.46638 -0.51323,-0.91648 -0.51323,-2.23622 0,-1.46638 0.65987,-2.45618 0.69652,-1.02646 1.75965,-1.64967 1.09978,-0.62321 2.41952,-0.87983 1.31974,-0.29327 2.60281,-0.29327 1.3564,0 2.60282,0.32993 1.28308,0.29328 2.27288,0.95315 0.98981,0.65987 1.57636,1.72299 0.58655,1.06312 0.65987,2.60282 h -3.04273 q -0.0733,-1.64968 -1.24642,-2.5295 -1.13644,-0.87983 -2.89609,-0.87983 -0.76985,0 -1.5397,0.14664 -0.76985,0.14664 -1.39306,0.47657 -0.62321,0.32994 -1.02646,0.87983 -0.40325,0.51323 -0.40325,1.24642 0,0.73318 0.32993,1.20976 0.3666,0.47657 0.91649,0.84316 0.58655,0.32994 1.35639,0.58655 0.80651,0.21996 1.68634,0.40326 l 1.50303,0.32993 q 1.28308,0.29328 2.38286,0.65987 1.13644,0.36659 1.97961,0.95314 0.84317,0.58656 1.31974,1.46638 0.47657,0.87983 0.47657,2.19956 z m 23.2787,-3.99587 q 0,2.27288 -0.62321,4.10585 -0.58655,1.79631 -1.75965,3.07939 -1.13644,1.24642 -2.78611,1.90629 -1.61302,0.65987 -3.66594,0.65987 -4.43579,0 -6.67202,-2.56616 -2.19956,-2.56616 -2.19956,-7.18524 0,-2.23622 0.65987,-3.99587 0.65987,-1.79632 1.83297,-3.04273 1.1731,-1.24642 2.78611,-1.86963 1.64968,-0.65987 3.62928,-0.65987 4.21584,0 6.48872,2.49284 2.30954,2.49284 2.30954,7.07526 z m -3.18937,0 q 0,-1.57635 -0.32993,-2.93275 -0.32994,-1.3564 -1.02646,-2.30954 -0.69653,-0.95315 -1.75966,-1.50304 -1.06312,-0.54989 -2.52949,-0.54989 -1.50304,0 -2.56616,0.58655 -1.06313,0.58655 -1.75965,1.57635 -0.65987,0.98981 -0.98981,2.30955 -0.32993,1.31973 -0.32993,2.82277 0,1.64967 0.32993,3.04273 0.32994,1.3564 0.98981,2.3462 0.69652,0.98981 1.75965,1.5397 1.06312,0.54989 2.56616,0.54989 1.46637,0 2.52949,-0.54989 1.06313,-0.58655 1.75966,-1.57636 0.69652,-1.02646 1.02646,-2.38286 0.32993,-1.39306 0.32993,-2.96941 z m 25.22165,-14.8104 q -0.65987,-0.0733 -1.57635,-0.10998 -0.87983,-0.0733 -1.64968,-0.0733 -1.02646,0 -1.90629,0.14663 -0.84316,0.10998 -1.50303,0.47657 -0.62321,0.32994 -0.9898,0.95315 -0.32994,0.58655 -0.32994,1.57635 v 2.67614 h 7.73513 v 2.27288 h -7.73513 v 16.24012 h -3.07939 v -16.24012 h -6.52537 v -2.27288 h 6.52537 v -1.97961 q 0,-1.79631 0.47657,-3.00607 0.51323,-1.20976 1.42972,-1.90629 0.91648,-0.73319 2.23622,-1.02646 1.31974,-0.29328 2.93276,-0.29328 0.65986,0 1.13644,0.0367 0.51323,0 0.95314,0.0367 0.43991,0 0.87983,0.0733 0.43991,0.0367 0.9898,0.0733 v 2.3462 z m 21.62903,23.93859 q -0.40326,0.0733 -1.02647,0.14664 -0.62321,0.0733 -1.39305,0.10998 -0.73319,0.0733 -1.50304,0.10997 -0.73319,0.0367 -1.31974,0.0367 -2.85943,0 -4.10585,-1.06312 -1.24642,-1.09978 -1.24642,-3.62928 v -11.73101 h -6.52537 v -2.27288 h 6.52537 v -3.95922 l 3.07939,-1.35639 v 5.31561 h 7.51518 v 2.27288 h -7.51518 v 10.63123 q 0,1.06312 0.1833,1.72299 0.18329,0.62321 0.58655,0.9898 0.40325,0.3666 1.09978,0.47658 0.69653,0.10998 1.68633,0.10998 0.62321,0 1.75965,-0.0733 1.13644,-0.10998 2.19957,-0.29328 v 2.45618 z m 20.23594,0.21996 h -3.22603 l -3.18937,-11.32776 -3.48264,11.32776 h -3.22603 l -4.03253,-18.513 h 3.18936 l 2.63948,14.77374 3.44598,-10.70455 h 3.00608 l 3.1527,10.70455 2.85944,-14.77374 h 2.93275 z m 20.49258,0 q -0.0367,-0.76985 -0.0733,-1.3564 -0.0367,-0.62321 -0.10998,-1.24642 -0.54989,0.84317 -1.35639,1.42972 -0.80651,0.54989 -1.75966,0.91648 -0.95314,0.3666 -1.9796,0.51323 -0.98981,0.14664 -1.94295,0.14664 -2.85943,0 -4.61909,-1.28308 -1.72299,-1.31974 -1.72299,-4.17917 0,-1.97961 1.06312,-3.18937 1.09979,-1.24642 2.7128,-1.90629 1.64967,-0.69653 3.55596,-0.91648 1.94295,-0.21996 3.66594,-0.21996 0.47657,0 1.09978,0.0367 0.65987,0 1.06313,0 v -0.95314 q 0,-1.09979 -0.21996,-1.94295 -0.21996,-0.87983 -0.76985,-1.42972 -0.54989,-0.58655 -1.46637,-0.87982 -0.91649,-0.32994 -2.30954,-0.32994 -0.76985,0 -1.5397,0.1833 -0.73319,0.14664 -1.31974,0.54989 -0.58655,0.36659 -0.9898,0.9898 -0.40326,0.62321 -0.47657,1.5397 h -3.00608 q 0.0733,-1.50304 0.73319,-2.5295 0.69653,-1.02646 1.72299,-1.64967 1.02647,-0.62321 2.27289,-0.87983 1.28308,-0.29327 2.5295,-0.29327 1.90629,0 3.336,0.32993 1.42972,0.32994 2.3462,1.13644 0.95315,0.76985 1.42972,2.05293 0.47657,1.24642 0.47657,3.11605 v 6.81865 q 0,1.46637 0.0367,2.71279 0.0733,1.20976 0.21996,2.7128 z m -0.40325,-9.23817 q -0.40326,-0.0367 -0.95315,-0.0367 -0.54989,-0.0367 -1.02646,-0.0367 -1.1731,0 -2.60282,0.14664 -1.39306,0.14663 -2.63947,0.58655 -1.24642,0.43991 -2.08959,1.28308 -0.80651,0.8065 -0.80651,2.19956 0,1.72299 1.09978,2.5295 1.13645,0.80651 2.96942,0.80651 1.68633,0 2.85943,-0.58655 1.1731,-0.62321 1.86963,-1.64968 0.69653,-1.06312 0.9898,-2.38286 0.32994,-1.3564 0.32994,-2.85943 z m 23.13206,-3.15271 q -0.0733,-0.95314 -0.29328,-1.68633 -0.21995,-0.76985 -0.69652,-1.28308 -0.47658,-0.51323 -1.20976,-0.76985 -0.73319,-0.25661 -1.86963,-0.25661 -1.50304,0 -2.49284,0.65986 -0.95315,0.62321 -1.5397,1.64968 -0.58655,0.9898 -0.80651,2.27288 -0.21995,1.28308 -0.21995,2.56616 v 9.23817 h -3.04273 v -14.11387 q 0,-1.28308 -0.0367,-2.27288 0,-1.02647 -0.0733,-2.12625 h 2.85943 l 0.10998,3.07939 q 1.06312,-1.61301 2.5295,-2.45618 1.50304,-0.84317 3.66594,-0.84317 2.85943,0 4.47245,1.50304 1.61301,1.46637 1.72299,4.83904 z m 10.63121,3.73926 v 0.36659 q 0,1.39306 0.40325,2.60282 0.43991,1.1731 1.24642,2.05293 0.80651,0.84316 1.94295,1.31974 1.1731,0.47657 2.60281,0.47657 1.90629,0 3.33601,-0.91649 1.46638,-0.95314 1.94295,-3.22602 h 2.93275 q -0.29328,1.64967 -1.09978,2.85943 -0.76985,1.20976 -1.90629,1.97961 -1.13644,0.76984 -2.5295,1.13644 -1.39306,0.40325 -2.89609,0.40325 -2.05293,0 -3.73926,-0.65987 -1.64967,-0.65987 -2.82278,-1.86963 -1.1731,-1.20976 -1.83297,-2.93275 -0.62321,-1.72299 -0.62321,-3.8859 0,-2.08958 0.5499,-3.88589 0.54989,-1.83297 1.68633,-3.15271 1.13644,-1.3564 2.85943,-2.12625 1.72299,-0.8065 4.0692,-0.8065 2.3462,0 3.95921,0.8065 1.64967,0.76985 2.63948,2.16291 1.02646,1.3564 1.46637,3.26268 0.43992,1.86963 0.43992,4.03254 z m 11.62103,-2.12625 q -0.0733,-2.63947 -1.57636,-4.25249 -1.46638,-1.61301 -4.06919,-1.61301 -2.7128,0 -4.21583,1.68633 -1.46638,1.64967 -1.68634,4.17917 z m 45.97081,5.42559 q 0,1.57636 -0.69653,2.67614 -0.69652,1.09978 -1.79631,1.79631 -1.09978,0.65987 -2.49284,0.95315 -1.39305,0.32993 -2.78611,0.32993 -1.42972,0 -2.78611,-0.32993 -1.3564,-0.29328 -2.45618,-0.98981 -1.06313,-0.73319 -1.723,-1.86963 -0.65987,-1.13644 -0.65987,-2.82277 h 3.07939 q 0.10998,1.94295 1.3564,2.85943 1.28308,0.91649 3.33601,0.91649 0.69653,0 1.46637,-0.14664 0.80651,-0.1833 1.50304,-0.54989 0.69653,-0.3666 1.13644,-0.95315 0.47657,-0.62321 0.47657,-1.50303 0,-0.76985 -0.36659,-1.28308 -0.32994,-0.51323 -0.91649,-0.84317 -0.54989,-0.36659 -1.35639,-0.58655 -0.76985,-0.25661 -1.64968,-0.43991 l -1.50303,-0.32993 q -1.1731,-0.25662 -2.30954,-0.58655 -1.09979,-0.3666 -1.94295,-0.91649 -0.84317,-0.58655 -1.3564,-1.46638 -0.51323,-0.91648 -0.51323,-2.23622 0,-1.46638 0.65987,-2.45618 0.69653,-1.02646 1.75965,-1.64967 1.09978,-0.62321 2.41952,-0.87983 1.31974,-0.29327 2.60282,-0.29327 1.35639,0 2.60281,0.32993 1.28308,0.29328 2.27289,0.95315 0.9898,0.65987 1.57635,1.72299 0.58655,1.06312 0.65987,2.60282 h -3.04273 q -0.0733,-1.64968 -1.24642,-2.5295 -1.13644,-0.87983 -2.89609,-0.87983 -0.76985,0 -1.5397,0.14664 -0.76985,0.14664 -1.39305,0.47657 -0.62321,0.32994 -1.02647,0.87983 -0.40325,0.51323 -0.40325,1.24642 0,0.73318 0.32993,1.20976 0.3666,0.47657 0.91649,0.84316 0.58655,0.32994 1.3564,0.58655 0.8065,0.21996 1.68633,0.40326 l 1.50303,0.32993 q 1.28308,0.29328 2.38286,0.65987 1.13645,0.36659 1.97961,0.95314 0.84317,0.58656 1.31974,1.46638 0.47657,0.87983 0.47657,2.19956 z m 23.2787,-3.99587 q 0,2.27288 -0.62321,4.10585 -0.58655,1.79631 -1.75965,3.07939 -1.13644,1.24642 -2.78611,1.90629 -1.61302,0.65987 -3.66594,0.65987 -4.43579,0 -6.67201,-2.56616 -2.19957,-2.56616 -2.19957,-7.18524 0,-2.23622 0.65987,-3.99587 0.65987,-1.79632 1.83297,-3.04273 1.1731,-1.24642 2.78612,-1.86963 1.64967,-0.65987 3.62928,-0.65987 4.21583,0 6.48871,2.49284 2.30954,2.49284 2.30954,7.07526 z m -3.18937,0 q 0,-1.57635 -0.32993,-2.93275 -0.32993,-1.3564 -1.02646,-2.30954 -0.69653,-0.95315 -1.75965,-1.50304 -1.06313,-0.54989 -2.5295,-0.54989 -1.50304,0 -2.56616,0.58655 -1.06312,0.58655 -1.75965,1.57635 -0.65987,0.98981 -0.98981,2.30955 -0.32993,1.31973 -0.32993,2.82277 0,1.64967 0.32993,3.04273 0.32994,1.3564 0.98981,2.3462 0.69653,0.98981 1.75965,1.5397 1.06312,0.54989 2.56616,0.54989 1.46637,0 2.5295,-0.54989 1.06312,-0.58655 1.75965,-1.57636 0.69653,-1.02646 1.02646,-2.38286 0.32993,-1.39306 0.32993,-2.96941 z m 24.59844,9.5681 q -0.84316,0.10998 -1.64967,0.14664 -0.76985,0.0367 -1.75965,0.0367 -1.72299,0 -2.93275,-0.32993 -1.20976,-0.32994 -1.97961,-1.06313 -0.73319,-0.76984 -1.06312,-1.94294 -0.32994,-1.20976 -0.32994,-2.93276 v -18.36636 h -6.63535 v -2.27288 h 9.71474 v 21.37243 q 0,1.83297 0.91649,2.5295 0.91648,0.65987 3.00607,0.65987 0.76984,0 1.39305,-0.0367 0.65987,-0.0733 1.31974,-0.14664 v 2.3462 z m 18.73294,-0.21995 -0.10998,-3.04273 q -1.06312,1.61301 -2.67614,2.45618 -1.61301,0.8065 -3.5193,0.8065 -1.72299,0 -2.93275,-0.47657 -1.20976,-0.51323 -1.97961,-1.42972 -0.73319,-0.91648 -1.09978,-2.23622 -0.32994,-1.3564 -0.32994,-3.07939 v -11.51105 h 3.07939 v 10.26463 q 0,1.20976 0.10998,2.30954 0.14664,1.09979 0.54989,1.94295 0.43991,0.80651 1.24642,1.28308 0.84317,0.47657 2.23623,0.47657 1.42971,0 2.41952,-0.62321 0.9898,-0.62321 1.61301,-1.61301 0.62321,-0.9898 0.87982,-2.23622 0.29328,-1.28308 0.29328,-2.56616 v -9.23817 h 3.07939 v 14.11387 q 0,1.39306 0,2.38286 0.0367,0.95314 0.10998,2.01627 z m 25.58824,-0.21996 q -0.40326,0.0733 -1.02647,0.14664 -0.6232,0.0733 -1.39305,0.10998 -0.73319,0.0733 -1.50304,0.10997 -0.73319,0.0367 -1.31974,0.0367 -2.85943,0 -4.10585,-1.06312 -1.24642,-1.09978 -1.24642,-3.62928 v -11.73101 h -6.52537 v -2.27288 h 6.52537 v -3.95922 l 3.07939,-1.35639 v 5.31561 h 7.51518 v 2.27288 h -7.51518 v 10.63123 q 0,1.06312 0.1833,1.72299 0.18329,0.62321 0.58655,0.9898 0.40325,0.3666 1.09978,0.47658 0.69653,0.10998 1.68633,0.10998 0.62321,0 1.75965,-0.0733 1.13645,-0.10998 2.19957,-0.29328 v 2.45618 z m 11.84096,-23.0221 v -3.26269 h 3.40933 v 3.26269 z m 10.04468,23.46201 q -0.62321,0.0733 -1.50304,0.10998 -0.87982,0.0733 -1.90628,0.0733 -1.723,0 -2.93276,-0.32993 -1.20976,-0.32994 -1.9796,-1.06313 -0.73319,-0.76984 -1.06313,-1.94294 -0.32993,-1.20976 -0.32993,-2.93276 v -10.37461 h -6.63535 v -2.27288 h 9.71474 v 13.38068 q 0,1.83297 0.91648,2.5295 0.91649,0.65987 3.00607,0.65987 0.76985,0 1.39306,-0.0367 0.65987,-0.0733 1.31974,-0.14664 z m 22.72878,-9.5681 q 0,2.27288 -0.62321,4.10585 -0.58655,1.79631 -1.75965,3.07939 -1.13644,1.24642 -2.78612,1.90629 -1.61301,0.65987 -3.66594,0.65987 -4.43578,0 -6.67201,-2.56616 -2.19956,-2.56616 -2.19956,-7.18524 0,-2.23622 0.65987,-3.99587 0.65987,-1.79632 1.83297,-3.04273 1.1731,-1.24642 2.78611,-1.86963 1.64967,-0.65987 3.62928,-0.65987 4.21583,0 6.48872,2.49284 2.30954,2.49284 2.30954,7.07526 z m -3.18937,0 q 0,-1.57635 -0.32993,-2.93275 -0.32994,-1.3564 -1.02647,-2.30954 -0.69653,-0.95315 -1.75965,-1.50304 -1.06312,-0.54989 -2.5295,-0.54989 -1.50303,0 -2.56616,0.58655 -1.06312,0.58655 -1.75965,1.57635 -0.65987,0.98981 -0.9898,2.30955 -0.32994,1.31973 -0.32994,2.82277 0,1.64967 0.32994,3.04273 0.32993,1.3564 0.9898,2.3462 0.69653,0.98981 1.75965,1.5397 1.06313,0.54989 2.56616,0.54989 1.46638,0 2.5295,-0.54989 1.06312,-0.58655 1.75965,-1.57636 0.69653,-1.02646 1.02647,-2.38286 0.32993,-1.39306 0.32993,-2.96941 z m 21.15249,9.34815 v -10.26463 q 0,-1.20977 -0.14664,-2.27289 -0.10998,-1.09978 -0.54989,-1.90629 -0.40326,-0.84316 -1.24642,-1.31974 -0.80651,-0.51323 -2.19957,-0.51323 -1.42971,0 -2.41952,0.62321 -0.9898,0.62321 -1.61301,1.61302 -0.62321,0.9898 -0.91649,2.27288 -0.25661,1.24642 -0.25661,2.5295 v 9.23817 h -3.07939 v -14.11387 q 0,-1.20976 -0.0367,-2.12625 0,-0.95314 -0.0733,-2.27288 h 2.96941 l 0.10998,3.04273 q 1.06312,-1.61301 2.67614,-2.41952 1.61301,-0.84317 3.5193,-0.84317 3.44598,0 4.8757,1.90629 1.46637,1.90629 1.46637,5.31562 v 11.51105 z m 24.965,-5.35228 q 0,1.57636 -0.69653,2.67614 -0.69653,1.09978 -1.79631,1.79631 -1.09978,0.65987 -2.49284,0.95315 -1.39306,0.32993 -2.78612,0.32993 -1.42971,0 -2.78611,-0.32993 -1.3564,-0.29328 -2.45618,-0.98981 -1.06312,-0.73319 -1.72299,-1.86963 -0.65987,-1.13644 -0.65987,-2.82277 h 3.07939 q 0.10998,1.94295 1.3564,2.85943 1.28307,0.91649 3.336,0.91649 0.69653,0 1.46638,-0.14664 0.8065,-0.1833 1.50303,-0.54989 0.69653,-0.3666 1.13644,-0.95315 0.47658,-0.62321 0.47658,-1.50303 0,-0.76985 -0.3666,-1.28308 -0.32993,-0.51323 -0.91648,-0.84317 -0.54989,-0.36659 -1.3564,-0.58655 -0.76985,-0.25661 -1.64967,-0.43991 l -1.50304,-0.32993 q -1.1731,-0.25662 -2.30954,-0.58655 -1.09978,-0.3666 -1.94295,-0.91649 -0.84317,-0.58655 -1.3564,-1.46638 -0.51323,-0.91648 -0.51323,-2.23622 0,-1.46638 0.65987,-2.45618 0.69653,-1.02646 1.75965,-1.64967 1.09978,-0.62321 2.41952,-0.87983 1.31974,-0.29327 2.60282,-0.29327 1.3564,0 2.60282,0.32993 1.28308,0.29328 2.27288,0.95315 0.9898,0.65987 1.57635,1.72299 0.58655,1.06312 0.65987,2.60282 h -3.04273 q -0.0733,-1.64968 -1.24642,-2.5295 -1.13644,-0.87983 -2.89609,-0.87983 -0.76985,0 -1.53969,0.14664 -0.76985,0.14664 -1.39306,0.47657 -0.62321,0.32994 -1.02646,0.87983 -0.40326,0.51323 -0.40326,1.24642 0,0.73318 0.32994,1.20976 0.36659,0.47657 0.91648,0.84316 0.58655,0.32994 1.3564,0.58655 0.80651,0.21996 1.68633,0.40326 l 1.50304,0.32993 q 1.28308,0.29328 2.38286,0.65987 1.13644,0.36659 1.97961,0.95314 0.84316,0.58656 1.31973,1.46638 0.47658,0.87983 0.47658,2.19956 z"
     id="text57"
     style="font-size:36.6594px;font-family:'Univers Next Typewriter Pro';-inkscape-font-specification:'Univers Next Typewriter Pro';fill:#00687f;stroke:#00687f;stroke-width:0.3"
     transform="scale(0.98194893,1.0183829)"
     aria-label="&lt;Bringing software solutions" />
  <path
     d="m 260.52197,371.81312 q -0.40325,0.0733 -1.02646,0.14664 -0.62321,0.0733 -1.39306,0.10998 -0.73318,0.0733 -1.50303,0.10998 -0.73319,0.0367 -1.31974,0.0367 -2.85943,0 -4.10585,-1.06312 -1.24642,-1.09979 -1.24642,-3.62929 v -11.731 h -6.52538 v -2.27289 h 6.52538 v -3.95921 l 3.07939,-1.3564 v 5.31561 h 7.51517 v 2.27289 h -7.51517 v 10.63122 q 0,1.06313 0.18329,1.72299 0.1833,0.62321 0.58655,0.98981 0.40326,0.36659 1.09979,0.47657 0.69652,0.10998 1.68633,0.10998 0.62321,0 1.75965,-0.0733 1.13644,-0.10998 2.19956,-0.29328 v 2.45618 z m 22.54551,-9.12819 q 0,2.27289 -0.62321,4.10586 -0.58655,1.79631 -1.75965,3.07939 -1.13644,1.24642 -2.78612,1.90629 -1.61301,0.65986 -3.66594,0.65986 -4.43578,0 -6.67201,-2.56615 -2.19956,-2.56616 -2.19956,-7.18525 0,-2.23622 0.65987,-3.99587 0.65987,-1.79631 1.83297,-3.04273 1.1731,-1.24642 2.78611,-1.86963 1.64968,-0.65987 3.62928,-0.65987 4.21583,0 6.48872,2.49284 2.30954,2.49284 2.30954,7.07526 z m -3.18937,0 q 0,-1.57635 -0.32993,-2.93275 -0.32994,-1.3564 -1.02647,-2.30954 -0.69653,-0.95314 -1.75965,-1.50304 -1.06312,-0.54989 -2.5295,-0.54989 -1.50303,0 -2.56615,0.58655 -1.06313,0.58655 -1.75966,1.57636 -0.65986,0.9898 -0.9898,2.30954 -0.32993,1.31974 -0.32993,2.82277 0,1.64968 0.32993,3.04273 0.32994,1.3564 0.9898,2.34621 0.69653,0.9898 1.75966,1.53969 1.06312,0.54989 2.56615,0.54989 1.46638,0 2.5295,-0.54989 1.06312,-0.58655 1.75965,-1.57635 0.69653,-1.02647 1.02647,-2.38286 0.32993,-1.39306 0.32993,-2.96942 z m 37.50252,16.31344 h -3.00607 l 2.74945,-7.00195 -7.77179,-18.47634 h 3.55596 l 5.79219,15.06702 5.49891,-15.06702 h 3.07939 z m 31.89365,-16.31344 q 0,2.27289 -0.62321,4.10586 -0.58655,1.79631 -1.75965,3.07939 -1.13644,1.24642 -2.78612,1.90629 -1.61301,0.65986 -3.66594,0.65986 -4.43578,0 -6.67201,-2.56615 -2.19956,-2.56616 -2.19956,-7.18525 0,-2.23622 0.65987,-3.99587 0.65987,-1.79631 1.83297,-3.04273 1.1731,-1.24642 2.78611,-1.86963 1.64968,-0.65987 3.62928,-0.65987 4.21583,0 6.48872,2.49284 2.30954,2.49284 2.30954,7.07526 z m -3.18937,0 q 0,-1.57635 -0.32993,-2.93275 -0.32994,-1.3564 -1.02647,-2.30954 -0.69652,-0.95314 -1.75965,-1.50304 -1.06312,-0.54989 -2.5295,-0.54989 -1.50303,0 -2.56615,0.58655 -1.06313,0.58655 -1.75966,1.57636 -0.65986,0.9898 -0.9898,2.30954 -0.32993,1.31974 -0.32993,2.82277 0,1.64968 0.32993,3.04273 0.32994,1.3564 0.9898,2.34621 0.69653,0.9898 1.75966,1.53969 1.06312,0.54989 2.56615,0.54989 1.46638,0 2.5295,-0.54989 1.06313,-0.58655 1.75965,-1.57635 0.69653,-1.02647 1.02647,-2.38286 0.32993,-1.39306 0.32993,-2.96942 z m 21.26243,9.34815 -0.10998,-3.04273 q -1.06312,1.61301 -2.67614,2.45618 -1.61301,0.80651 -3.5193,0.80651 -1.72299,0 -2.93275,-0.47657 -1.20976,-0.51324 -1.97961,-1.42972 -0.73319,-0.91649 -1.09978,-2.23622 -0.32994,-1.3564 -0.32994,-3.07939 v -11.51106 h 3.07939 v 10.26464 q 0,1.20976 0.10998,2.30954 0.14664,1.09978 0.54989,1.94295 0.43991,0.8065 1.24642,1.28308 0.84317,0.47657 2.23623,0.47657 1.42971,0 2.41952,-0.62321 0.9898,-0.62321 1.61301,-1.61302 0.62321,-0.9898 0.87982,-2.23622 0.29328,-1.28308 0.29328,-2.56616 v -9.23817 h 3.07939 v 14.11387 q 0,1.39306 0,2.38286 0.0367,0.95315 0.10998,2.01627 z m 22.83878,-12.39088 q -0.0733,-0.95314 -0.29327,-1.68633 -0.21996,-0.76985 -0.69653,-1.28308 -0.47657,-0.51323 -1.20976,-0.76985 -0.73319,-0.25661 -1.86963,-0.25661 -1.50304,0 -2.49284,0.65987 -0.95314,0.62321 -1.53969,1.64967 -0.58655,0.9898 -0.80651,2.27288 -0.21996,1.28308 -0.21996,2.56616 v 9.23817 h -3.04273 v -14.11387 q 0,-1.28308 -0.0367,-2.27288 0,-1.02646 -0.0733,-2.12625 h 2.85944 l 0.10998,3.07939 q 1.06312,-1.61301 2.52949,-2.45618 1.50304,-0.84316 3.66594,-0.84316 2.85944,0 4.47245,1.50303 1.61301,1.46638 1.72299,4.83904 z m 44.13787,0 q -0.0733,-0.95314 -0.29328,-1.68633 -0.21996,-0.76985 -0.69653,-1.28308 -0.47657,-0.51323 -1.20976,-0.76985 -0.73319,-0.25661 -1.86963,-0.25661 -1.50303,0 -2.49284,0.65987 -0.95314,0.62321 -1.53969,1.64967 -0.58655,0.9898 -0.80651,2.27288 -0.21995,1.28308 -0.21995,2.56616 v 9.23817 h -3.04273 v -14.11387 q 0,-1.28308 -0.0367,-2.27288 0,-1.02646 -0.0733,-2.12625 h 2.85943 l 0.10998,3.07939 q 1.06312,-1.61301 2.5295,-2.45618 1.50303,-0.84316 3.66594,-0.84316 2.85943,0 4.47244,1.50303 1.61302,1.46638 1.723,4.83904 z m 10.6312,3.73926 v 0.3666 q 0,1.39305 0.40326,2.60281 0.43991,1.1731 1.24642,2.05293 0.8065,0.84317 1.94294,1.31974 1.1731,0.47657 2.60282,0.47657 1.90629,0 3.33601,-0.91648 1.46637,-0.95315 1.94294,-3.22603 h 2.93276 q -0.29328,1.64967 -1.09979,2.85943 -0.76984,1.20976 -1.90628,1.97961 -1.13645,0.76985 -2.5295,1.13644 -1.39306,0.40325 -2.8961,0.40325 -2.05292,0 -3.73925,-0.65986 -1.64968,-0.65987 -2.82278,-1.86963 -1.1731,-1.20976 -1.83297,-2.93276 -0.62321,-1.72299 -0.62321,-3.88589 0,-2.08959 0.54989,-3.8859 0.54989,-1.83297 1.68634,-3.15271 1.13644,-1.3564 2.85943,-2.12624 1.72299,-0.80651 4.06919,-0.80651 2.3462,0 3.95922,0.80651 1.64967,0.76984 2.63947,2.1629 1.02647,1.3564 1.46638,3.26269 0.43991,1.86963 0.43991,4.03253 z m 11.62103,-2.12624 q -0.0733,-2.63948 -1.57635,-4.25249 -1.46638,-1.61302 -4.0692,-1.61302 -2.71279,0 -4.21583,1.68634 -1.46637,1.64967 -1.68633,4.17917 z m 23.9019,5.42559 q 0,1.57635 -0.69653,2.67613 -0.69653,1.09979 -1.79631,1.79632 -1.09978,0.65986 -2.49284,0.95314 -1.39306,0.32993 -2.78612,0.32993 -1.42971,0 -2.78611,-0.32993 -1.3564,-0.29328 -2.45618,-0.9898 -1.06312,-0.73319 -1.72299,-1.86963 -0.65987,-1.13644 -0.65987,-2.82278 h 3.07939 q 0.10998,1.94295 1.3564,2.85944 1.28307,0.91648 3.336,0.91648 0.69653,0 1.46638,-0.14664 0.8065,-0.18329 1.50303,-0.54989 0.69653,-0.36659 1.13644,-0.95314 0.47658,-0.62321 0.47658,-1.50304 0,-0.76984 -0.3666,-1.28308 -0.32993,-0.51323 -0.91648,-0.84316 -0.54989,-0.3666 -1.3564,-0.58655 -0.76985,-0.25662 -1.64967,-0.43992 l -1.50304,-0.32993 q -1.1731,-0.25662 -2.30954,-0.58655 -1.09978,-0.36659 -1.94295,-0.91649 -0.84317,-0.58655 -1.3564,-1.46637 -0.51323,-0.91649 -0.51323,-2.23623 0,-1.46637 0.65987,-2.45618 0.69653,-1.02646 1.75965,-1.64967 1.09978,-0.62321 2.41952,-0.87982 1.31974,-0.29328 2.60282,-0.29328 1.3564,0 2.60282,0.32994 1.28308,0.29327 2.27288,0.95314 0.9898,0.65987 1.57635,1.72299 0.58655,1.06312 0.65987,2.60282 h -3.04273 q -0.0733,-1.64967 -1.24642,-2.5295 -1.13644,-0.87983 -2.89609,-0.87983 -0.76985,0 -1.53969,0.14664 -0.76985,0.14664 -1.39306,0.47657 -0.62321,0.32994 -1.02646,0.87983 -0.40326,0.51323 -0.40326,1.24642 0,0.73319 0.32994,1.20976 0.36659,0.47657 0.91648,0.84317 0.58655,0.32993 1.3564,0.58655 0.80651,0.21995 1.68633,0.40325 l 1.50304,0.32993 q 1.28308,0.29328 2.38286,0.65987 1.13644,0.3666 1.97961,0.95315 0.84316,0.58655 1.31973,1.46637 0.47658,0.87983 0.47658,2.19957 z m 8.61494,-3.29935 v 0.3666 q 0,1.39305 0.40325,2.60281 0.43991,1.1731 1.24642,2.05293 0.80651,0.84317 1.94295,1.31974 1.1731,0.47657 2.60281,0.47657 1.90629,0 3.33601,-0.91648 1.46638,-0.95315 1.94295,-3.22603 h 2.93275 q -0.29328,1.64967 -1.09978,2.85943 -0.76985,1.20976 -1.90629,1.97961 -1.13644,0.76985 -2.5295,1.13644 -1.39306,0.40325 -2.89609,0.40325 -2.05293,0 -3.73926,-0.65986 -1.64967,-0.65987 -2.82277,-1.86963 -1.17311,-1.20976 -1.83297,-2.93276 -0.62321,-1.72299 -0.62321,-3.88589 0,-2.08959 0.54989,-3.8859 0.54989,-1.83297 1.68633,-3.15271 1.13644,-1.3564 2.85943,-2.12624 1.72299,-0.80651 4.0692,-0.80651 2.3462,0 3.95921,0.80651 1.64967,0.76984 2.63948,2.1629 1.02646,1.3564 1.46637,3.26269 0.43992,1.86963 0.43992,4.03253 z m 11.62103,-2.12624 q -0.0733,-2.63948 -1.57636,-4.25249 -1.46637,-1.61302 -4.06919,-1.61302 -2.7128,0 -4.21583,1.68634 -1.46638,1.64967 -1.68634,4.17917 z m 21.22577,10.77786 q -0.0367,-0.76985 -0.0733,-1.3564 -0.0367,-0.62321 -0.10998,-1.24642 -0.54989,0.84317 -1.3564,1.42972 -0.8065,0.54989 -1.75965,0.91649 -0.95314,0.36659 -1.97961,0.51323 -0.9898,0.14663 -1.94294,0.14663 -2.85944,0 -4.61909,-1.28307 -1.72299,-1.31974 -1.72299,-4.17918 0,-1.9796 1.06312,-3.18936 1.09978,-1.24642 2.7128,-1.90629 1.64967,-0.69653 3.55596,-0.91649 1.94295,-0.21995 3.66594,-0.21995 0.47657,0 1.09978,0.0367 0.65987,0 1.06313,0 v -0.95314 q 0,-1.09978 -0.21996,-1.94295 -0.21996,-0.87982 -0.76985,-1.42971 -0.54989,-0.58655 -1.46637,-0.87983 -0.91649,-0.32993 -2.30955,-0.32993 -0.76984,0 -1.53969,0.18329 -0.73319,0.14664 -1.31974,0.54989 -0.58655,0.3666 -0.9898,0.98981 -0.40326,0.62321 -0.47658,1.53969 H 509.439 q 0.0733,-1.50303 0.73319,-2.5295 0.69653,-1.02646 1.72299,-1.64967 1.02647,-0.62321 2.27289,-0.87983 1.28307,-0.29327 2.52949,-0.29327 1.90629,0 3.33601,0.32993 1.42972,0.32994 2.3462,1.13645 0.95315,0.76984 1.42972,2.05292 0.47657,1.24642 0.47657,3.11605 v 6.81865 q 0,1.46638 0.0367,2.7128 0.0733,1.20976 0.21996,2.71279 z m -0.40325,-9.23817 q -0.40326,-0.0367 -0.95315,-0.0367 -0.54989,-0.0367 -1.02646,-0.0367 -1.1731,0 -2.60282,0.14664 -1.39306,0.14664 -2.63948,0.58655 -1.24642,0.43991 -2.08958,1.28308 -0.80651,0.80651 -0.80651,2.19956 0,1.723 1.09978,2.5295 1.13644,0.80651 2.96941,0.80651 1.68634,0 2.85944,-0.58655 1.1731,-0.62321 1.86963,-1.64967 0.69653,-1.06313 0.9898,-2.38286 0.32994,-1.3564 0.32994,-2.85944 z m 23.13206,-3.15271 q -0.0733,-0.95314 -0.29328,-1.68633 -0.21995,-0.76985 -0.69653,-1.28308 -0.47657,-0.51323 -1.20976,-0.76985 -0.73318,-0.25661 -1.86963,-0.25661 -1.50303,0 -2.49284,0.65987 -0.95314,0.62321 -1.53969,1.64967 -0.58655,0.9898 -0.80651,2.27288 -0.21995,1.28308 -0.21995,2.56616 v 9.23817 h -3.04273 v -14.11387 q 0,-1.28308 -0.0367,-2.27288 0,-1.02646 -0.0733,-2.12625 h 2.85943 l 0.10998,3.07939 q 1.06312,-1.61301 2.5295,-2.45618 1.50303,-0.84316 3.66594,-0.84316 2.85943,0 4.47244,1.50303 1.61302,1.46638 1.723,4.83904 z m 24.89168,6.15878 q -0.14664,1.61302 -0.87983,2.85944 -0.73318,1.20976 -1.83297,2.05292 -1.09978,0.84317 -2.49284,1.28308 -1.39305,0.43991 -2.89609,0.43991 -4.54576,0 -6.85531,-2.49283 -2.30954,-2.5295 -2.30954,-6.96529 0,-2.16291 0.58655,-3.95922 0.62321,-1.83297 1.79631,-3.1527 1.1731,-1.31974 2.8961,-2.05293 1.75965,-0.73319 4.06919,-0.73319 1.57635,0 2.93275,0.40325 1.3564,0.40326 2.38286,1.20976 1.06312,0.80651 1.72299,2.01627 0.65987,1.20976 0.84317,2.82278 h -3.00607 q -0.25662,-1.97961 -1.57635,-3.07939 -1.31974,-1.09979 -3.29935,-1.09979 -1.64967,0 -2.82277,0.58655 -1.17311,0.58655 -1.90629,1.61302 -0.69653,0.9898 -1.02647,2.38286 -0.32993,1.3564 -0.32993,2.89609 0,1.50304 0.29327,2.82278 0.32994,1.31973 1.02647,2.3462 0.69653,0.9898 1.83297,1.57635 1.13644,0.58655 2.78611,0.58655 0.95315,0 1.83297,-0.29327 0.87983,-0.32994 1.5397,-0.91649 0.69652,-0.58655 1.13644,-1.39306 0.43991,-0.8065 0.54989,-1.75965 h 3.00607 z m 18.36634,6.2321 v -10.26463 q 0,-1.20976 -0.14664,-2.27288 -0.10998,-1.09979 -0.54989,-1.90629 -0.40325,-0.84317 -1.24642,-1.31974 -0.80651,-0.51323 -2.19956,-0.51323 -1.42972,0 -2.41952,0.62321 -0.98981,0.62321 -1.61302,1.61301 -0.62321,0.9898 -0.91648,2.27288 -0.25662,1.24642 -0.25662,2.5295 v 9.23817 h -3.07939 v -26.50475 h 3.07939 v 10.88785 q 1.09978,-1.57636 2.67614,-2.34621 1.61301,-0.76984 3.40932,-0.76984 3.44599,0 4.8757,1.90629 1.46638,1.90628 1.46638,5.31561 v 11.51105 z m 14.59042,0.43991 h -2.63948 l 8.13839,-27.49455 h 2.63948 z m 16.0568,-0.76984 v -2.8961 l 14.48046,-5.82884 -14.48046,-5.93882 v -2.8961 l 17.70649,7.36854 v 2.85944 z"
     id="text57-4"
     style="font-size:36.6594px;font-family:'Univers Next Typewriter Pro';-inkscape-font-specification:'Univers Next Typewriter Pro';fill:#00687f;stroke:#00687f;stroke-width:0.3"
     transform="scale(0.98194893,1.0183829)"
     aria-label="to your research/&gt;" />
  <metadata
     id="metadata57">
    <rdf:RDF>
      <cc:Work
         rdf:about="">
        <dc:title>extened_logo</dc:title>
      </cc:Work>
    </rdf:RDF>
  </metadata>
</svg>
