<svg id="Layer_1" data-name="Layer 1" xmlns="http://www.w3.org/2000/svg" viewBox="0 0 207.36 188.51"><defs><style>.cls-1{isolation:isolate;}.cls-2{fill:none;stroke:#65c8d0;stroke-miterlimit:10;stroke-width:8px;}.cls-3{fill:#65c8d0;}</style></defs><title>Mini logo</title><g class="cls-1"><g class="cls-1"><path d="M108.8,95c0,30.88-21.92,56-52.8,56H13.92V39H56C86.88,39,108.8,64.12,108.8,95Zm-8.32,0c0-26.56-18.08-48-44.48-48H22.4v96H56C82.4,143,100.48,121.56,100.48,95Z" transform="translate(-13.92)"/></g><g class="cls-1"><path d="M143.52,126.36l7.36-4.32c3.84,13.44,15.2,22.56,33.6,22.56,18.72,0,28.16-9.6,28.16-22.4,0-13.44-11.84-18.56-29-24C165,92.12,148.16,86.84,148.16,67.32c0-18.4,14.88-30.08,33.92-30.08,18.4,0,30.56,10.56,36,23.52l-7.2,4c-4.16-10.08-12.8-19.36-28.8-19.36-15.52,0-25.28,9.12-25.28,21.6,0,13.44,11.36,17.6,27.36,22.88,19.84,6.56,37.12,12.8,37.12,32.16,0,18.56-14.56,30.72-36.8,30.72C163.52,152.76,148.64,142.2,143.52,126.36Z" transform="translate(-13.92)"/></g></g><polyline class="cls-2" points="46.1 174.65 114.08 174.9 114.08 13.9 179.08 13.9"/><circle class="cls-3" cx="44.1" cy="174.34" r="14.17"/><circle class="cls-3" cx="189.4" cy="14.17" r="14.17"/></svg>