<svg width="356" height="360" xmlns="http://www.w3.org/2000/svg">
 <!-- Created with Method Draw - http://github.com/duopixel/Method-Draw/ -->
 <g>
  <title>background</title>
  <rect fill="none" id="canvas_background" height="362" width="358" y="-1" x="-1"/>
  <g display="none" overflow="visible" y="0" x="0" height="100%" width="100%" id="canvasGrid">
   <rect fill="url(#gridpattern)" stroke-width="0" y="0" x="0" height="100%" width="100%"/>
  </g>
 </g>
 <g>
  <title>Layer 1</title>
  <path id="svg_21" d="m499.47515,149.64227" opacity="0.5" fill-opacity="null" stroke-opacity="null" stroke-width="2" stroke="#000" fill="#ffffff"/>
  <path id="svg_31" d="m487.37637,103.17723" opacity="0.5" fill-opacity="null" stroke-opacity="null" stroke-width="1.5" stroke="#000" fill="#000000"/>
  <path id="svg_42" d="m170.72159,215.0219c14.04301,-2.546 89.19969,6.14817 110.23802,16.32311c21.03833,10.17494 7.20947,12.33356 8.67697,15.66045c1.46749,3.32689 -105.30536,-29.21892 -110.30596,-15.06219c-5.0006,14.15673 5.06227,7.94314 6.25957,21.31258c1.19729,13.36944 8.7181,14.57387 5.24636,27.93146c-3.47174,13.35759 26.82,23.9994 -15.83526,30.84545c-42.65526,6.84605 -11.54465,-71.86342 -40.61487,-76.37565c-29.07022,-4.51223 -41.85991,-4.74454 -46.03525,-28.87911c-4.17534,-24.13458 1.4238,-45.6411 32.31786,-52.19582c30.89406,-6.55473 133.67163,-119.36283 133.52787,-116.06942c-0.14376,3.2934 3.48782,-4.31712 -1.31414,10.33486c-4.80196,14.65199 -70.68688,69.3183 -93.01468,92.10112c-22.3278,22.78282 -3.1895,76.61916 10.85351,74.07316z" stroke-width="1.5" stroke="#ffffff" fill="#ffffff"/>
  <path stroke="#ffffff" id="svg_43" d="m252.12424,95.59159c0,-0.38266 20.33738,16.45459 26.99326,42.85845c6.65587,26.40387 -5.54656,65.053 -5.59059,64.67035c0.04403,0.38265 -4.22571,6.899 0.21154,21.0576c4.43725,14.15859 23.66534,33.30285 29.78392,32.51545c6.11858,-0.78741 36.97708,-18.75057 15.1606,-127.42735c-21.81647,-108.67678 -49.17951,-105.99813 -54.72607,-104.0848c-5.54657,1.91332 -20.3374,25.63854 -15.16061,42.47578c5.17679,16.83725 3.32795,28.3172 3.32795,27.93452z" stroke-width="1.5" fill="#ffffff"/>
  <path stroke="#ffffff" id="svg_44" d="m248.07888,63.29207c-2.3622,20.67663 -1.57481,46.21833 2.36221,81.0848c3.93702,34.86647 22.44099,85.9499 22.39412,85.54449c0.04687,0.40541 6.7398,-8.91933 6.69293,-9.32476c0.04687,0.40542 -19.24451,-60.00277 -20.81931,-83.11194c-1.57481,-23.10917 -2.75591,-69.32751 -2.75591,-74.1926c0,-4.86509 -5.51183,-20.67663 -7.87404,0z" stroke-width="1.5" fill="#ffffff"/>
  <path id="svg_46" d="m80.62521,200.9036c3.14961,17.32287 9.77347,28.69408 19.05342,31.59166c9.27996,2.89759 -23.48837,2.56923 -31.84044,0.07578c-8.35207,-2.49345 -13.78367,-13.57862 0.81704,-8.33364c14.60072,5.24498 -0.53789,-5.68807 -0.77016,-14.89476c-0.23227,-9.20669 4.60597,-21.86116 3.40091,-22.8759c-1.20506,-1.01474 -6.58825,2.42317 -7.63682,3.75583c-1.04857,1.33266 -9.86595,-0.55065 -5.2598,-4.10832c4.60615,-3.55767 30.70799,-18.69674 29.34643,-16.42512c-1.36156,2.27161 -10.2602,13.8916 -7.11058,31.21447z" stroke-width="1.5" stroke="#ffffff" fill="#ffffff"/>
  <path id="svg_47" d="m63.73913,192.01136c0,0 -3.71133,13.84625 -3.52288,16.65409c0.18845,2.80784 10.6445,20.20555 13.64983,23.48287c3.00532,3.27731 -11.10428,-0.70088 -15.23035,-2.84648c-4.12607,-2.1456 -11.35172,-6.872 -12.52685,-15.24157c-1.17513,-8.36957 0.28173,-12.95364 4.32737,-19.50304c4.04564,-6.5494 7.59392,-8.21357 13.3318,-11.93829c5.73788,-3.72473 -0.02892,9.39242 -0.02892,9.39242z" stroke-width="1.5" stroke="#ffffff" fill="#ffffff"/>
 </g>
</svg>